{"glyphs":{"0":{"ha":1014,"x_min":69,"x_max":944,"o":"m 431 628 l 431 349 q 450 283 431 308 q 507 258 469 258 q 564 283 544 258 q 583 349 583 308 l 583 628 q 507 718 583 718 q 431 628 431 718 m 944 614 l 944 360 q 827 83 944 181 q 507 -14 710 -14 q 187 84 304 -14 q 69 363 69 182 l 69 611 q 191 888 69 790 q 507 986 313 986 q 823 888 701 986 q 944 614 944 790 z "},"1":{"ha":781,"x_min":14,"x_max":697,"o":"m 697 935 l 697 38 q 686 11 697 22 q 660 0 675 0 l 388 0 q 361 11 372 0 q 350 38 350 22 l 350 599 l 194 479 q 170 471 183 471 q 142 490 157 471 l 19 649 q 14 667 14 658 q 32 703 14 692 l 367 963 q 397 972 381 972 l 660 972 q 686 961 675 972 q 697 935 697 950 z "},"2":{"ha":1031,"x_min":69,"x_max":961,"o":"m 924 286 q 950 275 939 286 q 961 249 961 264 l 961 38 q 950 11 961 22 q 924 0 939 0 l 107 0 q 81 11 92 0 q 69 38 69 22 l 69 182 q 104 257 69 232 q 461 524 399 469 q 560 663 560 610 q 538 714 560 706 q 513 718 526 718 q 491 716 500 718 q 475 710 482 714 q 463 701 468 707 q 453 692 457 696 q 446 679 450 688 q 440 667 442 671 q 433 647 433 650 q 378 615 422 615 l 117 615 q 95 624 104 615 q 86 646 86 633 q 206 896 86 800 q 513 992 326 992 q 812 909 700 992 q 924 681 924 826 q 847 482 924 571 q 614 286 771 393 l 924 286 z "},"3":{"ha":1051,"x_min":69,"x_max":975,"o":"m 975 304 q 847 74 975 161 q 521 -14 719 -14 q 310 15 403 -14 q 168 90 218 44 q 69 275 69 181 q 78 297 69 288 q 100 306 88 306 l 379 306 q 429 281 404 306 q 518 256 454 256 q 614 329 614 256 q 517 390 614 390 l 349 390 q 322 401 333 390 q 311 428 311 413 l 311 540 q 339 596 311 579 l 532 701 l 167 701 q 140 713 151 701 q 129 739 129 724 l 129 935 q 140 961 129 950 q 167 972 151 972 l 878 972 q 904 961 893 972 q 915 935 915 950 l 915 758 q 888 703 915 722 l 725 592 q 975 304 975 529 z "},"4":{"ha":1092,"x_min":69,"x_max":1015,"o":"m 856 438 l 976 438 q 1004 426 993 438 q 1015 400 1015 415 l 1015 193 q 1004 167 1015 178 q 978 156 993 156 l 856 156 l 856 38 q 844 11 856 22 q 818 0 833 0 l 560 0 q 533 11 544 0 q 522 38 522 22 l 522 156 l 107 156 q 81 167 92 156 q 69 193 69 178 l 69 392 q 85 435 69 415 l 478 949 q 529 972 497 972 l 818 972 q 844 961 833 972 q 856 935 856 950 l 856 438 m 532 422 l 532 622 l 386 422 l 532 422 z "},"5":{"ha":1043,"x_min":76,"x_max":967,"o":"m 439 300 q 449 288 439 300 q 475 265 458 275 q 526 254 492 254 q 584 277 560 254 q 608 338 608 300 q 585 400 608 375 q 526 425 563 425 q 466 408 490 425 q 435 392 442 392 l 158 392 q 137 401 146 392 q 128 422 128 410 l 128 429 l 183 925 q 238 972 189 972 l 858 972 q 885 961 874 972 q 896 935 896 950 l 896 739 q 885 713 896 724 q 858 701 874 701 l 453 701 l 442 603 q 635 650 511 650 q 863 558 760 650 q 967 324 967 465 q 850 83 967 183 q 522 -17 733 -17 q 194 73 311 -17 q 76 294 76 163 q 85 316 76 307 q 107 325 94 325 l 388 325 q 439 300 419 325 z "},"6":{"ha":1043,"x_min":69,"x_max":974,"o":"m 974 353 q 848 90 974 194 q 524 -14 722 -14 q 198 82 326 -14 q 69 346 69 178 q 204 649 69 474 l 431 944 q 485 972 450 972 l 764 972 q 785 963 776 972 q 794 943 794 954 q 789 924 794 932 l 614 692 q 844 603 726 686 q 937 498 900 564 q 974 353 974 432 m 524 257 q 544 257 524 257 q 592 281 565 257 q 619 348 619 306 q 592 414 619 390 q 524 438 565 438 q 455 414 482 438 q 428 348 428 390 q 455 281 428 306 q 524 257 482 257 z "},"7":{"ha":904,"x_min":56,"x_max":849,"o":"m 93 972 l 811 972 q 838 961 828 972 q 849 935 849 950 l 849 751 q 831 681 849 719 l 528 32 q 471 0 510 0 l 203 0 q 181 9 190 0 q 172 28 172 18 q 175 43 172 38 l 475 688 l 93 688 q 67 699 78 688 q 56 725 56 710 l 56 935 q 67 961 56 950 q 93 972 78 972 z "},"8":{"ha":1042,"x_min":76,"x_max":965,"o":"m 111 698 q 111 759 111 698 q 210 903 111 819 q 519 986 308 986 q 826 903 729 986 q 924 699 924 821 q 842 514 924 578 q 932 428 899 486 q 965 304 965 369 q 940 185 965 239 q 865 85 915 131 q 725 13 814 39 q 519 -14 636 -14 q 185 78 293 -14 q 76 303 76 169 q 110 426 76 369 q 197 514 143 483 q 111 698 111 576 m 590 242 q 603 253 590 242 q 617 301 617 264 q 590 361 617 339 q 519 383 563 383 q 449 361 476 383 q 422 301 422 339 q 449 242 422 264 q 519 219 476 219 q 590 242 563 219 m 584 623 q 596 634 584 623 q 608 676 608 644 q 584 730 608 708 q 519 751 560 751 q 456 730 479 751 q 432 676 432 708 q 456 623 432 644 q 519 601 479 601 q 584 623 560 601 z "},"9":{"ha":1043,"x_min":69,"x_max":974,"o":"m 69 624 q 189 880 69 774 q 519 986 308 986 q 851 890 729 986 q 974 638 974 794 q 953 535 974 589 q 915 454 932 482 q 847 358 899 426 q 783 272 794 289 l 600 28 q 546 0 581 0 l 267 0 q 245 9 254 0 q 236 29 236 18 q 242 49 236 40 l 424 292 q 156 414 264 307 q 94 505 118 450 q 69 624 69 560 m 519 715 q 499 715 519 715 q 451 691 478 715 q 424 624 424 667 q 451 558 424 582 q 519 535 478 535 q 588 558 561 535 q 615 624 615 582 q 588 691 615 667 q 519 715 561 715 z "}," ":{"ha":403,"x_min":0,"x_max":0,"o":""},"!":{"ha":469,"x_min":76,"x_max":393,"o":"m 114 317 l 356 317 q 382 306 371 317 q 393 279 393 294 l 393 38 q 382 11 393 22 q 356 0 371 0 l 114 0 q 88 11 99 0 q 76 38 76 22 l 76 279 q 88 306 76 294 q 114 317 99 317 m 114 972 l 356 972 q 382 961 371 972 q 393 935 393 950 l 393 410 q 382 383 393 394 q 356 372 371 372 l 114 372 q 88 383 99 372 q 76 410 76 394 l 76 935 q 88 961 76 950 q 114 972 99 972 z "},"\"":{"ha":846,"x_min":35,"x_max":818,"o":"m 153 986 l 382 986 q 403 977 394 986 q 413 959 413 968 q 411 946 413 950 l 279 611 q 215 567 263 567 l 65 567 q 44 576 53 567 q 35 597 35 585 l 35 600 l 86 932 q 108 969 89 953 q 153 986 126 986 m 558 986 l 788 986 q 809 977 800 986 q 818 959 818 968 q 817 946 818 950 l 685 611 q 621 567 668 567 l 471 567 q 449 576 458 567 q 440 597 440 585 l 440 600 l 492 932 q 513 969 494 953 q 558 986 532 986 z "},"#":{"ha":968,"x_min":69,"x_max":899,"o":"m 442 558 l 424 444 l 522 444 l 540 558 l 442 558 m 864 788 q 888 777 878 788 q 899 753 899 767 l 899 589 q 888 565 899 575 q 864 554 878 554 l 761 554 l 746 449 l 828 449 q 852 438 842 449 q 863 414 863 428 l 863 236 q 852 212 863 222 q 828 201 842 201 l 710 201 l 692 83 q 657 54 686 54 l 496 54 q 474 63 483 54 q 465 85 465 72 l 465 88 l 483 201 l 393 201 l 375 83 q 340 54 369 54 l 179 54 q 158 63 167 54 q 149 85 149 72 l 149 88 l 167 201 l 104 201 q 79 212 89 201 q 69 236 69 222 l 69 414 q 79 438 69 428 q 104 449 89 449 l 203 449 l 218 554 l 140 554 q 115 565 125 554 q 106 589 106 575 l 106 753 q 115 777 106 767 q 140 788 125 788 l 253 788 l 268 881 q 301 910 274 910 l 463 910 q 484 901 475 910 q 493 879 493 892 l 493 875 l 479 788 l 569 788 l 585 881 q 618 910 590 910 l 779 910 q 801 901 792 910 q 810 879 810 892 l 810 875 l 796 788 l 864 788 z "},"$":{"ha":1069,"x_min":78,"x_max":996,"o":"m 654 1074 l 654 974 q 877 863 793 944 q 961 699 961 781 q 952 677 961 686 q 932 668 943 668 l 654 668 q 596 692 622 668 q 525 715 569 715 q 458 676 458 715 q 491 642 458 656 q 613 617 524 628 q 908 520 819 590 q 996 319 996 450 q 902 105 996 189 q 654 -4 808 21 l 654 -101 q 643 -128 654 -117 q 617 -139 632 -139 l 449 -139 q 422 -128 433 -139 q 411 -101 411 -117 l 411 -6 q 164 98 250 18 q 78 282 78 178 q 87 303 78 294 q 108 313 96 313 l 372 313 q 437 285 401 313 q 535 257 472 257 q 639 296 639 257 q 601 334 639 321 q 460 361 564 347 q 101 667 101 408 q 185 868 101 785 q 411 976 269 951 l 411 1074 q 422 1100 411 1089 q 449 1111 433 1111 l 617 1111 q 643 1100 632 1111 q 654 1074 654 1089 z "},"%":{"ha":1139,"x_min":56,"x_max":1083,"o":"m 824 308 l 824 179 q 859 138 824 138 q 894 179 894 138 l 894 308 q 859 350 894 350 q 824 308 824 350 m 1083 308 l 1083 178 q 1023 36 1083 86 q 858 -14 963 -14 q 694 36 754 -14 q 633 179 633 86 l 633 307 q 696 449 633 399 q 858 500 758 500 q 1021 449 958 500 q 1083 308 1083 399 m 246 794 l 246 665 q 281 624 246 624 q 317 665 317 624 l 317 794 q 281 836 317 836 q 246 794 246 836 m 506 794 l 506 664 q 445 522 506 572 q 281 472 385 472 q 116 522 176 472 q 56 665 56 572 l 56 793 q 118 935 56 885 q 281 986 181 986 q 443 935 381 986 q 506 794 506 885 m 869 972 l 958 972 q 992 944 992 972 q 986 929 992 936 l 314 26 q 264 0 294 0 l 175 0 q 142 28 142 0 q 147 43 142 36 l 819 946 q 869 972 839 972 z "},"&":{"ha":1144,"x_min":56,"x_max":1075,"o":"m 154 735 q 154 787 154 735 q 240 913 154 839 q 484 988 325 988 q 726 913 643 988 q 810 736 810 839 q 766 601 810 660 q 632 489 722 542 l 736 381 q 804 494 771 417 q 832 508 810 508 l 1042 508 q 1060 501 1053 508 q 1067 483 1067 494 q 1010 357 1067 443 q 901 215 954 271 l 1067 43 q 1075 24 1075 35 q 1067 7 1075 14 q 1050 0 1060 0 l 767 0 q 732 14 750 0 l 694 47 q 425 -19 592 -19 q 157 58 258 -19 q 56 279 56 135 q 236 543 56 442 q 154 735 154 631 m 358 299 q 358 279 358 299 q 384 238 358 260 q 453 215 410 215 q 524 232 496 215 l 401 358 q 358 299 358 338 m 543 725 q 528 761 543 747 q 492 775 514 775 q 456 760 471 775 q 440 719 440 746 q 478 657 440 692 q 543 725 543 686 z "},"'":{"ha":440,"x_min":35,"x_max":413,"o":"m 153 986 l 382 986 q 403 977 394 986 q 413 959 413 968 q 411 946 413 950 l 279 611 q 215 567 263 567 l 65 567 q 44 576 53 567 q 35 597 35 585 l 35 600 l 86 932 q 108 969 89 953 q 153 986 126 986 z "},"(":{"ha":565,"x_min":69,"x_max":524,"o":"m 319 619 l 319 238 q 369 97 319 154 q 497 31 419 40 q 515 21 507 29 q 524 0 524 13 l 524 -190 q 515 -212 524 -203 q 493 -221 506 -221 q 190 -99 311 -221 q 69 236 69 22 l 69 621 q 190 956 69 835 q 493 1078 311 1078 q 515 1069 506 1078 q 524 1047 524 1060 l 524 857 q 515 836 524 844 q 497 826 507 828 q 369 760 419 817 q 319 619 319 703 z "},")":{"ha":565,"x_min":42,"x_max":496,"o":"m 246 238 l 246 619 q 196 760 246 703 q 68 826 146 817 q 50 836 58 828 q 42 857 42 844 l 42 1047 q 51 1069 42 1060 q 72 1078 60 1078 q 375 956 254 1078 q 496 621 496 835 l 496 236 q 375 -99 496 22 q 72 -221 254 -221 q 51 -212 60 -221 q 42 -190 42 -203 l 42 0 q 50 21 42 13 q 68 31 58 29 q 196 97 146 40 q 246 238 246 154 z "},"*":{"ha":629,"x_min":42,"x_max":588,"o":"m 93 599 q 83 621 83 606 q 93 643 83 636 l 183 725 l 71 733 q 42 764 42 736 q 43 774 42 767 l 81 910 q 110 932 86 932 q 125 928 117 932 l 231 876 l 203 993 q 201 1006 201 999 q 210 1022 201 1013 q 232 1032 219 1032 l 399 1032 q 420 1023 411 1032 q 429 1006 429 1014 q 428 992 429 997 l 400 876 l 506 928 q 521 932 514 932 q 550 910 544 932 l 586 774 q 588 764 588 767 q 560 733 588 736 l 447 725 l 536 644 q 547 620 547 635 q 536 597 547 606 l 414 510 q 390 503 406 503 q 367 521 375 503 l 315 633 l 264 521 q 240 503 256 503 q 217 510 225 503 l 93 599 z "},"+":{"ha":831,"x_min":42,"x_max":789,"o":"m 294 138 l 294 361 l 79 361 q 53 372 64 361 q 42 399 42 383 l 42 550 q 53 576 42 565 q 79 588 64 588 l 294 588 l 294 804 q 306 831 294 819 q 332 842 317 842 l 501 842 q 528 831 517 842 q 539 804 539 819 l 539 588 l 751 588 q 778 576 767 588 q 789 550 789 565 l 789 399 q 778 372 789 383 q 751 361 767 361 l 539 361 l 539 138 q 528 111 539 122 q 501 100 517 100 l 332 100 q 306 111 317 100 q 294 138 294 122 z "},",":{"ha":454,"x_min":56,"x_max":433,"o":"m 174 317 l 403 317 q 424 308 415 317 q 433 290 433 299 q 432 276 433 281 l 300 -58 q 236 -103 283 -103 l 86 -103 q 65 -94 74 -103 q 56 -72 56 -85 l 56 -69 l 107 263 q 128 300 110 283 q 174 317 147 317 z "},"-":{"ha":676,"x_min":56,"x_max":621,"o":"m 93 604 l 583 604 q 610 593 599 604 q 621 567 621 582 l 621 369 q 610 343 621 354 q 583 332 599 332 l 93 332 q 67 343 78 332 q 56 369 56 354 l 56 567 q 67 593 56 582 q 93 604 78 604 z "},".":{"ha":483,"x_min":83,"x_max":400,"o":"m 121 317 l 363 317 q 389 306 378 317 q 400 279 400 294 l 400 38 q 389 11 400 22 q 363 0 378 0 l 121 0 q 94 11 106 0 q 83 38 83 22 l 83 279 q 94 306 83 294 q 121 317 106 317 z "},"/":{"ha":829,"x_min":42,"x_max":788,"o":"m 571 1092 l 757 1092 q 778 1083 769 1092 q 788 1065 788 1074 q 785 1049 788 1056 l 315 -75 q 254 -117 299 -117 l 72 -117 q 51 -108 60 -117 q 42 -90 42 -99 q 44 -74 42 -81 l 510 1050 q 571 1092 528 1092 z "},":":{"ha":428,"x_min":56,"x_max":372,"o":"m 93 303 l 335 303 q 361 292 350 303 q 372 265 372 281 l 372 38 q 361 11 372 22 q 335 0 350 0 l 93 0 q 67 11 78 0 q 56 38 56 22 l 56 265 q 67 292 56 281 q 93 303 78 303 m 93 789 l 335 789 q 361 778 350 789 q 372 751 372 767 l 372 524 q 361 497 372 508 q 335 486 350 486 l 93 486 q 67 497 78 486 q 56 524 56 508 l 56 751 q 67 778 56 767 q 93 789 78 789 z "},";":{"ha":500,"x_min":56,"x_max":431,"o":"m 151 789 l 393 789 q 419 778 408 789 q 431 751 431 767 l 431 524 q 419 497 431 508 q 393 486 408 486 l 151 486 q 125 497 136 486 q 114 524 114 508 l 114 751 q 125 778 114 767 q 151 789 136 789 m 174 317 l 389 317 q 410 308 401 317 q 419 290 419 299 q 418 276 419 281 l 286 -58 q 222 -103 269 -103 l 86 -103 q 65 -94 74 -103 q 56 -72 56 -85 l 56 -69 l 107 263 q 128 300 110 283 q 174 317 147 317 z "},"<":{"ha":738,"x_min":28,"x_max":668,"o":"m 28 457 l 28 515 q 68 574 28 547 l 624 949 q 641 953 631 953 q 660 944 651 953 q 668 924 668 936 l 668 699 q 624 638 668 664 l 381 486 l 624 333 q 644 321 638 325 q 659 303 650 317 q 668 274 668 290 l 668 49 q 660 28 668 36 q 641 19 651 19 q 624 24 631 19 l 68 399 q 28 457 28 425 z "},"=":{"ha":776,"x_min":69,"x_max":707,"o":"m 107 768 l 669 768 q 696 757 685 768 q 707 731 707 746 l 707 569 q 696 543 707 554 q 669 532 685 532 l 107 532 q 81 543 92 532 q 69 569 69 554 l 69 731 q 81 757 69 746 q 107 768 92 768 m 107 421 l 669 421 q 696 410 685 421 q 707 383 707 399 l 707 222 q 696 196 707 207 q 669 185 685 185 l 107 185 q 81 196 92 185 q 69 222 69 207 l 69 383 q 81 410 69 399 q 107 421 92 421 z "},">":{"ha":738,"x_min":69,"x_max":710,"o":"m 710 515 l 710 457 q 669 399 710 425 l 114 24 q 97 19 107 19 q 78 28 86 19 q 69 49 69 36 l 69 274 q 78 303 69 290 q 94 321 88 317 q 114 333 100 325 l 357 486 l 114 638 q 69 699 69 664 l 69 924 q 78 944 69 936 q 97 953 86 953 q 114 949 107 953 l 669 574 q 710 515 710 547 z "},"?":{"ha":922,"x_min":42,"x_max":881,"o":"m 490 986 q 653 967 582 986 q 767 921 725 949 q 836 856 808 893 q 881 733 881 794 q 856 619 881 671 q 801 534 831 567 q 729 459 771 501 q 672 394 688 417 q 653 367 657 372 q 619 351 639 351 l 322 351 q 304 359 313 351 q 296 375 296 367 q 340 467 296 411 q 419 553 385 522 q 513 671 513 632 q 499 703 513 692 q 459 715 486 715 q 413 702 432 715 q 389 672 394 689 q 335 629 376 629 l 76 629 q 51 642 61 629 q 42 671 42 654 l 42 672 q 159 889 42 792 q 490 986 276 986 m 336 296 l 590 296 q 617 285 606 296 q 628 258 628 274 l 628 38 q 617 11 628 22 q 590 0 606 0 l 336 0 q 310 11 321 0 q 299 38 299 22 l 299 258 q 310 285 299 274 q 336 296 321 296 z "},"@":{"ha":1222,"x_min":69,"x_max":1153,"o":"m 376 260 q 344 296 376 260 q 313 471 313 332 q 376 683 313 610 q 563 756 439 756 q 683 701 653 756 l 683 707 q 694 733 683 722 q 721 744 706 744 l 835 744 q 861 733 850 744 q 872 707 872 722 l 872 413 q 875 373 872 388 q 892 345 878 358 q 931 332 906 332 q 993 413 993 332 l 993 578 q 979 720 993 665 q 927 815 965 775 q 822 870 889 854 q 647 886 754 886 q 330 815 431 886 q 229 579 229 743 l 229 386 q 328 131 229 206 q 647 56 428 56 q 806 67 743 56 q 888 90 868 79 q 933 119 908 100 q 969 139 957 139 l 1122 139 q 1143 131 1135 139 q 1151 111 1151 122 q 1144 90 1151 100 q 650 -96 999 -96 q 210 26 350 -96 q 69 382 69 147 l 69 579 q 208 923 69 808 q 647 1038 347 1038 q 1001 964 882 1038 q 1139 742 1111 896 q 1153 575 1153 671 l 1153 414 q 1090 256 1153 311 q 919 201 1028 201 q 721 256 772 201 q 661 205 694 222 q 563 188 628 188 q 376 260 439 188 m 590 593 q 511 474 511 593 q 590 356 511 356 q 663 474 663 356 q 590 593 663 593 z "},"A":{"ha":1090,"x_min":21,"x_max":1069,"o":"m 394 972 l 696 972 q 758 926 746 972 l 1068 40 q 1069 27 1069 36 q 1060 9 1069 18 q 1039 0 1051 0 l 782 0 q 728 35 740 0 l 694 126 l 396 126 l 363 35 q 308 0 350 0 l 51 0 q 30 9 39 0 q 21 27 21 18 q 22 40 21 36 l 332 926 q 394 972 344 972 m 467 397 l 624 397 l 544 656 l 467 397 z "},"B":{"ha":1050,"x_min":90,"x_max":994,"o":"m 597 625 q 604 634 597 625 q 611 668 611 643 q 597 713 611 693 q 554 733 582 733 l 438 733 l 438 607 l 554 607 q 597 625 582 607 m 438 375 l 438 239 l 567 239 q 615 260 599 239 q 631 308 631 282 l 631 310 q 613 356 631 336 q 567 375 596 375 l 438 375 m 603 0 l 128 0 q 101 11 113 0 q 90 38 90 22 l 90 935 q 101 961 90 950 q 128 972 113 972 l 589 972 q 880 901 786 972 q 974 685 974 829 l 974 681 q 939 574 974 621 q 863 507 904 528 q 956 428 918 485 q 994 306 994 372 q 603 0 994 0 z "},"C":{"ha":1038,"x_min":63,"x_max":996,"o":"m 424 603 l 424 369 q 526 257 424 257 q 631 332 606 257 q 648 364 638 356 q 682 372 658 372 l 965 372 q 987 363 978 372 q 996 342 996 354 q 926 139 996 221 q 528 -14 799 -14 q 189 80 315 -14 q 63 368 63 174 l 63 604 q 192 890 63 794 q 528 986 321 986 q 926 833 799 986 q 996 631 996 751 q 987 609 996 618 q 965 600 978 600 l 682 600 q 649 608 660 600 q 631 640 639 617 q 526 715 604 715 q 424 603 424 715 z "},"D":{"ha":1056,"x_min":90,"x_max":993,"o":"m 128 972 l 528 972 q 862 872 731 972 q 993 590 993 771 l 993 383 q 865 97 993 194 q 529 0 738 0 l 128 0 q 101 11 113 0 q 90 38 90 22 l 90 935 q 101 961 90 950 q 128 972 113 972 m 438 701 l 438 271 l 528 271 q 603 299 575 271 q 632 383 632 328 l 632 590 q 528 701 632 701 l 438 701 z "},"E":{"ha":965,"x_min":90,"x_max":889,"o":"m 424 271 l 851 271 q 878 260 867 271 q 889 233 889 249 l 889 38 q 878 11 889 22 q 851 0 867 0 l 128 0 q 101 11 113 0 q 90 38 90 22 l 90 935 q 101 961 90 950 q 128 972 113 972 l 840 972 q 867 961 856 972 q 878 935 878 950 l 878 739 q 867 713 878 724 q 840 701 856 701 l 424 701 l 424 614 l 810 614 q 836 603 825 614 q 847 576 847 592 l 847 396 q 836 369 847 381 q 810 358 825 358 l 424 358 l 424 271 z "},"F":{"ha":921,"x_min":90,"x_max":865,"o":"m 128 972 l 828 972 q 854 961 843 972 q 865 935 865 950 l 865 724 q 854 697 865 708 q 828 686 843 686 l 431 686 l 431 583 l 800 583 q 826 572 815 583 q 838 546 838 561 l 838 336 q 826 310 838 321 q 800 299 815 299 l 431 299 l 431 38 q 419 11 431 22 q 393 0 408 0 l 128 0 q 101 11 113 0 q 90 38 90 22 l 90 935 q 101 961 90 950 q 128 972 113 972 z "},"G":{"ha":1071,"x_min":63,"x_max":1008,"o":"m 589 586 l 971 586 q 997 575 986 586 q 1008 549 1008 564 l 1008 368 q 878 85 1008 185 q 530 -14 747 -14 q 188 83 313 -14 q 63 372 63 179 l 63 606 q 190 888 63 790 q 531 986 318 986 q 876 897 744 986 q 1008 676 1008 807 q 999 655 1008 664 q 978 646 990 646 l 671 646 q 631 661 643 646 q 589 703 603 697 q 531 715 557 715 q 424 611 424 715 l 424 375 q 538 257 424 257 q 654 357 654 257 l 589 357 q 563 368 574 357 q 551 394 551 379 l 551 549 q 563 575 551 564 q 589 586 574 586 z "},"H":{"ha":1100,"x_min":90,"x_max":1010,"o":"m 700 972 l 972 972 q 999 961 988 972 q 1010 935 1010 950 l 1010 38 q 999 11 1010 22 q 972 0 988 0 l 700 0 q 674 11 685 0 q 663 38 663 22 l 663 338 l 438 338 l 438 38 q 426 11 438 22 q 400 0 415 0 l 128 0 q 101 10 113 0 q 90 38 90 21 l 90 935 q 101 961 90 950 q 128 972 113 972 l 400 972 q 426 961 415 972 q 438 935 438 950 l 438 643 l 663 643 l 663 935 q 674 961 663 950 q 700 972 685 972 z "},"I":{"ha":539,"x_min":90,"x_max":449,"o":"m 411 0 l 128 0 q 101 11 113 0 q 90 38 90 22 l 90 935 q 101 961 90 950 q 128 972 113 972 l 411 972 q 438 961 426 972 q 449 935 449 950 l 449 38 q 438 11 449 22 q 411 0 426 0 z "},"J":{"ha":1032,"x_min":56,"x_max":949,"o":"m 949 935 l 949 365 q 823 81 949 176 q 506 -14 697 -14 q 185 78 314 -14 q 56 326 56 169 q 65 348 56 339 q 86 357 74 357 l 369 357 q 403 347 392 357 q 428 309 415 336 q 458 269 440 282 q 507 257 475 257 q 589 369 589 257 l 589 690 l 176 690 q 150 701 161 690 q 139 728 139 713 l 139 935 q 150 961 139 950 q 176 972 161 972 l 911 972 q 938 961 926 972 q 949 935 949 950 z "},"K":{"ha":1018,"x_min":90,"x_max":1004,"o":"m 1000 46 q 1004 28 1004 39 q 995 9 1004 18 q 974 0 986 0 l 657 0 q 600 32 617 0 l 431 335 l 431 38 q 419 11 431 22 q 393 0 408 0 l 128 0 q 101 11 113 0 q 90 38 90 22 l 90 935 q 101 961 90 950 q 128 972 113 972 l 393 972 q 419 961 408 972 q 431 935 431 950 l 431 660 l 588 942 q 643 972 603 972 l 950 972 q 972 963 963 972 q 981 944 981 954 q 976 926 981 933 l 726 507 l 1000 46 z "},"L":{"ha":900,"x_min":90,"x_max":865,"o":"m 443 285 l 828 285 q 854 274 843 285 q 865 247 865 263 l 865 38 q 854 11 865 22 q 828 0 843 0 l 128 0 q 101 11 113 0 q 90 38 90 22 l 90 935 q 101 961 90 950 q 128 972 113 972 l 406 972 q 432 961 421 972 q 443 935 443 950 l 443 285 z "},"M":{"ha":1217,"x_min":90,"x_max":1126,"o":"m 869 972 l 1089 972 q 1115 961 1104 972 q 1126 935 1126 950 l 1126 38 q 1115 11 1126 22 q 1089 0 1104 0 l 838 0 q 811 11 822 0 q 800 38 800 22 l 800 418 l 708 268 q 657 233 686 233 l 560 233 q 508 268 531 233 l 417 418 l 417 38 q 406 11 417 22 q 379 0 394 0 l 128 0 q 101 11 113 0 q 90 38 90 22 l 90 935 q 101 961 90 950 q 128 972 113 972 l 347 972 q 407 935 386 972 l 608 601 l 810 935 q 869 972 831 972 z "},"N":{"ha":1056,"x_min":90,"x_max":965,"o":"m 676 972 l 928 972 q 954 961 943 972 q 965 935 965 950 l 965 38 q 954 11 965 22 q 928 0 943 0 l 708 0 q 651 32 672 0 l 417 386 l 417 38 q 406 11 417 22 q 379 0 394 0 l 128 0 q 101 11 113 0 q 90 38 90 22 l 90 935 q 101 961 90 950 q 128 972 113 972 l 347 972 q 404 940 386 972 l 639 556 l 639 935 q 650 961 639 950 q 676 972 661 972 z "},"O":{"ha":1053,"x_min":63,"x_max":990,"o":"m 190 883 q 253 935 190 883 q 526 986 317 986 q 863 883 736 986 q 990 592 990 779 l 990 375 q 865 85 990 185 q 526 -14 739 -14 q 188 85 314 -14 q 63 375 63 185 l 63 592 q 190 883 63 781 m 451 285 q 465 271 451 285 q 526 257 479 257 q 601 285 574 257 q 629 369 629 313 l 629 603 q 601 687 629 658 q 526 715 574 715 q 451 687 479 715 q 424 603 424 658 l 424 369 q 451 285 424 313 z "},"P":{"ha":1008,"x_min":90,"x_max":967,"o":"m 128 972 l 542 972 q 854 886 742 972 q 967 632 967 800 q 855 383 967 464 q 542 303 743 303 l 451 303 l 451 38 q 440 11 451 22 q 414 0 429 0 l 128 0 q 101 11 113 0 q 90 38 90 22 l 90 935 q 101 961 90 950 q 128 972 113 972 m 444 714 l 444 560 l 542 560 q 586 578 567 560 q 606 632 606 597 q 590 690 606 667 q 542 714 575 714 l 444 714 z "},"Q":{"ha":1068,"x_min":63,"x_max":1004,"o":"m 190 883 q 253 935 190 883 q 526 986 317 986 q 863 883 736 986 q 990 592 990 779 l 990 375 q 892 110 990 211 l 1000 -47 q 1004 -65 1004 -56 q 997 -82 1004 -74 q 976 -90 989 -90 l 704 -90 q 646 -58 669 -90 l 607 -10 q 526 -14 567 -14 q 188 85 314 -14 q 63 375 63 185 l 63 592 q 190 883 63 781 m 451 285 q 465 271 451 285 q 526 257 479 257 q 601 285 574 257 q 629 369 629 313 l 629 603 q 601 687 629 658 q 526 715 574 715 q 451 687 479 715 q 424 603 424 658 l 424 369 q 451 285 424 313 z "},"R":{"ha":1031,"x_min":90,"x_max":989,"o":"m 985 46 q 989 28 989 38 q 980 9 989 18 q 958 0 971 0 l 674 0 q 614 38 631 0 l 494 303 l 438 303 l 438 38 q 426 11 438 22 q 400 0 415 0 l 128 0 q 101 11 113 0 q 90 38 90 22 l 90 935 q 101 961 90 950 q 128 972 113 972 l 539 972 q 851 883 739 972 q 964 626 964 793 q 814 363 964 458 l 985 46 m 438 714 l 438 567 l 539 567 q 586 587 569 567 q 603 638 603 607 q 587 691 603 668 q 539 714 571 714 l 438 714 z "},"S":{"ha":1001,"x_min":42,"x_max":960,"o":"m 65 667 q 183 897 65 808 q 491 986 300 986 q 803 893 682 986 q 925 699 925 800 q 916 677 925 686 q 896 668 907 668 l 618 668 q 560 692 586 668 q 489 715 533 715 q 422 676 422 715 q 455 642 422 656 q 576 617 488 628 q 872 520 783 590 q 960 308 960 450 q 830 76 960 165 q 490 -14 700 -14 q 161 72 281 -14 q 42 282 42 158 q 51 303 42 294 q 72 313 60 313 l 336 313 q 401 285 365 313 q 499 257 436 257 q 603 296 603 257 q 565 334 603 321 q 424 361 528 347 q 65 667 65 408 z "},"T":{"ha":972,"x_min":42,"x_max":931,"o":"m 79 972 l 893 972 q 919 961 908 972 q 931 935 931 950 l 931 711 q 919 685 931 696 q 893 674 908 674 l 663 674 l 663 38 q 651 11 663 22 q 625 0 640 0 l 347 0 q 321 11 332 0 q 310 38 310 22 l 310 674 l 79 674 q 53 685 64 674 q 42 711 42 696 l 42 935 q 53 961 42 950 q 79 972 64 972 z "},"U":{"ha":1053,"x_min":76,"x_max":976,"o":"m 667 972 l 939 972 q 965 961 954 972 q 976 935 976 950 l 976 376 q 856 84 976 182 q 527 -14 735 -14 q 198 83 319 -14 q 76 376 76 181 l 76 935 q 88 961 76 950 q 114 972 99 972 l 386 972 q 413 961 401 972 q 424 935 424 950 l 424 372 q 526 265 424 265 q 629 372 629 265 l 629 935 q 640 961 629 950 q 667 972 651 972 z "},"V":{"ha":1008,"x_min":21,"x_max":988,"o":"m 699 972 l 957 972 q 978 963 969 972 q 988 946 988 954 q 986 932 988 938 l 725 46 q 663 0 713 0 l 346 0 q 283 46 296 0 l 22 932 q 21 946 21 938 q 30 963 21 954 q 51 972 39 972 l 310 972 q 372 926 360 972 l 504 410 l 636 926 q 699 972 649 972 z "},"W":{"ha":1219,"x_min":49,"x_max":1171,"o":"m 439 0 l 240 0 q 197 16 214 0 q 176 53 179 32 l 49 938 l 49 942 q 58 963 49 954 q 79 972 67 972 l 338 972 q 388 935 383 972 l 435 543 l 492 717 q 539 757 506 757 l 681 757 q 728 717 714 757 l 785 544 l 832 935 q 882 972 836 972 l 1140 972 q 1162 963 1153 972 q 1171 942 1171 954 l 1171 938 l 1043 53 q 1023 16 1040 32 q 979 0 1006 0 l 781 0 q 724 38 738 0 l 610 322 l 496 38 q 439 0 482 0 z "},"X":{"ha":1054,"x_min":14,"x_max":1040,"o":"m 1036 46 q 1040 28 1040 39 q 1031 9 1040 18 q 1010 0 1022 0 l 697 0 q 640 32 660 0 l 519 218 l 404 32 q 347 0 385 0 l 44 0 q 23 9 32 0 q 14 28 14 18 q 18 46 14 39 l 310 497 l 47 926 q 43 944 43 935 q 52 963 43 954 q 74 972 61 972 l 375 972 q 433 938 414 972 l 531 768 l 636 938 q 694 972 656 972 l 982 972 q 1003 963 994 972 q 1013 944 1013 954 q 1008 926 1013 933 l 740 501 l 1036 46 z "},"Y":{"ha":1006,"x_min":14,"x_max":992,"o":"m 639 0 l 367 0 q 340 11 351 0 q 329 38 329 22 l 329 311 l 17 929 q 14 944 14 935 q 23 963 14 954 q 44 972 32 972 l 306 972 q 364 938 347 972 l 503 658 l 642 938 q 700 972 658 972 l 961 972 q 983 963 974 972 q 992 944 992 954 q 989 929 992 935 l 676 311 l 676 38 q 665 11 676 22 q 639 0 654 0 z "},"Z":{"ha":993,"x_min":63,"x_max":931,"o":"m 893 285 q 919 274 908 285 q 931 247 931 263 l 931 38 q 919 11 931 22 q 893 0 908 0 l 100 0 q 74 11 85 0 q 63 38 63 22 l 63 238 q 83 286 63 265 l 472 690 l 107 690 q 81 701 92 690 q 69 728 69 713 l 69 935 q 81 961 69 950 q 107 972 92 972 l 875 972 q 901 961 890 972 q 913 935 913 950 l 913 738 q 894 692 913 710 l 526 285 l 893 285 z "},"[":{"ha":682,"x_min":83,"x_max":640,"o":"m 121 1078 l 603 1078 q 629 1067 618 1078 q 640 1040 640 1056 l 640 889 q 629 863 640 874 q 603 851 618 851 l 335 851 l 335 6 l 603 6 q 629 -6 618 6 q 640 -32 640 -17 l 640 -183 q 629 -210 640 -199 q 603 -221 618 -221 l 121 -221 q 94 -210 106 -221 q 83 -183 83 -199 l 83 1040 q 94 1067 83 1056 q 121 1078 106 1078 z "},"\\":{"ha":829,"x_min":42,"x_max":788,"o":"m 785 -74 q 788 -90 788 -81 q 778 -108 788 -99 q 757 -117 769 -117 l 575 -117 q 514 -75 531 -117 l 44 1049 q 42 1065 42 1056 q 51 1083 42 1074 q 72 1092 60 1092 l 258 1092 q 319 1050 301 1092 l 785 -74 z "},"]":{"ha":682,"x_min":42,"x_max":599,"o":"m 79 1078 l 561 1078 q 588 1067 576 1078 q 599 1040 599 1056 l 599 -183 q 588 -210 599 -199 q 561 -221 576 -221 l 79 -221 q 53 -210 64 -221 q 42 -183 42 -199 l 42 -32 q 53 -6 42 -17 q 79 6 64 6 l 347 6 l 347 851 l 79 851 q 53 863 64 851 q 42 889 42 874 l 42 1040 q 53 1067 42 1056 q 79 1078 64 1078 z "},"^":{"ha":747,"x_min":69,"x_max":678,"o":"m 283 1022 l 464 1022 q 489 1018 481 1022 q 515 996 497 1014 l 671 831 q 678 813 678 824 q 656 790 678 790 l 557 790 q 501 800 521 790 l 374 858 l 246 800 q 190 790 226 790 l 92 790 q 69 813 69 790 q 76 831 69 824 l 232 996 q 258 1018 250 1014 q 283 1022 267 1022 z "},"_":{"ha":1165,"x_min":56,"x_max":1110,"o":"m 93 142 l 1072 142 q 1099 131 1088 142 q 1110 104 1110 119 l 1110 -99 q 1099 -125 1110 -114 q 1072 -136 1088 -136 l 93 -136 q 67 -125 78 -136 q 56 -99 56 -114 l 56 104 q 67 131 56 119 q 93 142 78 142 z "},"`":{"ha":625,"x_min":69,"x_max":556,"o":"m 556 813 q 533 790 556 790 l 353 790 q 296 804 311 790 l 76 978 q 69 994 69 985 q 96 1022 69 1022 l 356 1022 q 407 996 383 1022 l 549 831 q 556 813 556 824 z "},"a":{"ha":896,"x_min":49,"x_max":833,"o":"m 49 207 q 353 447 49 394 l 500 471 q 493 527 500 513 q 460 542 486 542 q 410 519 435 542 q 363 497 385 497 l 126 497 q 96 527 96 497 q 117 591 96 557 q 180 658 139 625 q 295 714 221 692 q 461 736 369 736 q 740 658 647 736 q 833 436 833 581 l 833 38 q 822 11 833 22 q 796 0 811 0 l 553 0 q 526 11 538 0 q 515 38 515 22 l 515 76 q 325 -14 450 -14 q 124 49 200 -14 q 49 207 49 113 m 414 192 q 504 300 504 192 l 422 282 q 361 231 361 268 q 375 203 361 214 q 414 192 389 192 z "},"b":{"ha":929,"x_min":69,"x_max":881,"o":"m 881 417 l 881 307 q 799 65 881 143 q 585 -14 717 -14 q 381 79 453 -14 l 381 38 q 369 11 381 22 q 343 0 358 0 l 107 0 q 81 11 92 0 q 69 38 69 22 l 69 949 q 81 975 69 964 q 107 986 92 986 l 364 986 q 390 975 379 986 q 401 949 401 964 l 401 671 q 594 736 474 736 q 797 654 714 736 q 881 417 881 572 m 401 315 q 471 235 401 235 q 540 315 540 235 l 540 407 q 471 488 540 488 q 401 418 406 488 l 401 315 z "},"c":{"ha":886,"x_min":49,"x_max":844,"o":"m 389 410 l 389 313 q 401 244 389 265 q 440 224 414 224 q 476 233 467 224 q 497 267 486 242 q 536 293 507 293 l 807 293 q 833 282 822 293 q 844 253 844 271 q 832 204 844 235 q 789 135 819 174 q 714 63 758 96 q 597 8 669 31 q 438 -14 525 -14 q 156 77 264 -14 q 49 329 49 168 l 49 393 q 156 645 49 554 q 438 736 264 736 q 624 705 540 736 q 752 628 707 674 q 821 540 797 583 q 844 474 844 497 q 833 440 844 451 q 807 429 822 429 l 536 429 q 496 457 510 429 q 444 499 476 499 q 389 410 389 499 z "},"d":{"ha":929,"x_min":49,"x_max":860,"o":"m 49 307 l 49 417 q 132 654 49 572 q 335 736 215 736 q 528 671 456 736 l 528 949 q 539 975 528 964 q 565 986 550 986 l 822 986 q 849 975 838 986 q 860 949 860 964 l 860 38 q 849 11 860 22 q 822 0 838 0 l 586 0 q 560 11 571 0 q 549 38 549 22 l 549 79 q 344 -14 476 -14 q 131 65 213 -14 q 49 307 49 143 m 528 315 l 528 418 q 458 488 524 488 q 389 407 389 488 l 389 315 q 458 235 389 235 q 528 315 528 235 z "},"e":{"ha":889,"x_min":49,"x_max":840,"o":"m 803 279 l 389 279 l 389 272 q 443 188 389 188 q 481 210 458 188 q 529 232 503 232 l 792 232 q 822 201 822 232 q 720 60 822 133 q 444 -14 618 -14 q 159 77 269 -14 q 49 328 49 168 l 49 394 q 161 641 49 546 q 456 736 274 736 q 740 629 639 736 q 840 358 840 522 l 840 317 q 829 290 840 301 q 803 279 818 279 m 500 458 q 444 542 500 542 q 389 458 389 542 l 389 453 l 500 453 l 500 458 z "},"f":{"ha":710,"x_min":21,"x_max":682,"o":"m 472 739 l 472 722 l 629 722 q 656 711 644 722 q 667 685 667 700 l 667 517 q 656 490 667 501 q 629 479 644 479 l 472 479 l 472 38 q 461 11 472 22 q 435 0 450 0 l 192 0 q 165 11 176 0 q 154 38 154 22 l 154 479 l 58 479 q 32 490 43 479 q 21 517 21 501 l 21 685 q 32 711 21 700 q 58 722 43 722 l 154 722 l 154 746 q 250 966 154 904 q 515 1028 346 1028 l 644 1028 q 671 1017 660 1028 q 682 990 682 1006 l 682 822 q 671 796 682 807 q 644 785 660 785 l 532 785 q 472 739 472 785 z "},"g":{"ha":938,"x_min":49,"x_max":868,"o":"m 49 346 l 49 417 q 132 654 49 572 q 344 736 215 736 q 549 642 474 736 l 549 685 q 560 711 549 700 q 586 722 571 722 l 829 722 q 856 711 844 722 q 867 685 867 700 l 868 24 q 760 -224 868 -143 q 475 -306 651 -306 q 279 -276 365 -306 q 150 -203 193 -246 q 63 -57 63 -117 q 74 -31 63 -42 q 100 -19 85 -19 l 371 -19 q 412 -51 396 -19 q 468 -82 428 -82 q 528 -7 528 -82 l 528 92 q 335 32 460 32 q 130 107 211 32 q 49 346 49 182 m 458 274 q 528 343 524 274 l 528 418 q 458 488 524 488 q 389 407 389 488 l 389 354 q 458 274 389 274 z "},"h":{"ha":965,"x_min":69,"x_max":903,"o":"m 415 411 l 415 38 q 404 11 415 22 q 378 0 393 0 l 107 0 q 81 11 92 0 q 69 38 69 22 l 69 949 q 81 975 69 964 q 107 986 92 986 l 378 986 q 404 975 393 986 q 415 949 415 964 l 415 650 q 618 736 494 736 q 822 656 742 736 q 903 421 903 575 l 903 39 q 892 13 903 24 q 865 1 881 1 l 593 1 q 567 13 578 1 q 556 39 556 24 l 556 411 q 485 488 556 488 q 415 411 415 488 z "},"i":{"ha":463,"x_min":69,"x_max":393,"o":"m 356 0 l 107 0 q 81 11 92 0 q 69 38 69 22 l 69 685 q 81 711 69 700 q 107 722 92 722 l 356 722 q 382 711 371 722 q 393 685 393 700 l 393 38 q 382 11 393 22 q 356 0 371 0 m 386 990 l 386 822 q 375 796 386 807 q 349 785 364 785 l 114 785 q 88 796 99 785 q 76 822 76 807 l 76 990 q 88 1017 76 1006 q 114 1028 99 1028 l 349 1028 q 375 1017 364 1028 q 386 990 386 1006 z "},"j":{"ha":500,"x_min":-83,"x_max":431,"o":"m 76 -264 l -46 -264 q -72 -253 -61 -264 q -83 -226 -83 -242 l -83 -58 q -72 -32 -83 -43 q -46 -21 -61 -21 l 35 -21 q 94 49 94 -21 l 94 685 q 106 711 94 700 q 132 722 117 722 l 393 722 q 419 711 408 722 q 431 685 431 700 l 431 54 q 333 -185 431 -106 q 76 -264 236 -264 m 424 990 l 424 822 q 413 796 424 807 q 386 785 401 785 l 139 785 q 113 796 124 785 q 101 822 101 807 l 101 990 q 113 1017 101 1006 q 139 1028 124 1028 l 386 1028 q 413 1017 401 1028 q 424 990 424 1006 z "},"k":{"ha":911,"x_min":69,"x_max":897,"o":"m 388 949 l 388 499 l 510 699 q 550 722 524 722 l 831 722 q 854 713 844 722 q 864 690 864 703 q 857 668 864 678 l 667 397 l 892 51 q 897 31 897 43 q 888 10 897 19 q 864 0 878 0 l 572 0 q 529 24 544 0 l 388 260 l 388 38 q 376 11 388 22 q 350 0 365 0 l 107 0 q 81 11 92 0 q 69 38 69 22 l 69 949 q 81 975 69 964 q 107 986 92 986 l 350 986 q 376 975 365 986 q 388 949 388 964 z "},"l":{"ha":463,"x_min":69,"x_max":393,"o":"m 356 0 l 107 0 q 81 11 92 0 q 69 38 69 22 l 69 949 q 81 975 69 964 q 107 986 92 986 l 356 986 q 382 975 371 986 q 393 949 393 964 l 393 38 q 382 11 393 22 q 356 0 371 0 z "},"m":{"ha":1317,"x_min":69,"x_max":1254,"o":"m 879 488 q 841 471 857 488 q 825 421 825 454 l 825 38 q 814 11 825 22 q 788 0 803 0 l 543 0 q 517 11 528 0 q 506 38 506 22 l 506 411 q 450 488 506 488 q 410 470 426 488 q 394 422 394 453 l 394 38 q 383 11 394 22 q 357 0 372 0 l 107 0 q 81 11 92 0 q 69 38 69 22 l 69 685 q 81 711 69 700 q 107 722 92 722 l 336 722 q 363 711 351 722 q 374 685 374 700 l 374 639 q 453 704 401 675 q 581 736 510 736 q 786 622 733 736 q 878 703 819 671 q 999 736 936 736 q 1183 657 1111 736 q 1254 421 1254 578 l 1254 38 q 1243 11 1254 22 q 1217 0 1232 0 l 972 0 q 946 11 957 0 q 935 38 935 22 l 935 411 q 879 488 935 488 z "},"n":{"ha":950,"x_min":69,"x_max":888,"o":"m 888 421 l 888 38 q 876 11 888 22 q 850 0 865 0 l 585 0 q 558 11 569 0 q 547 38 547 22 l 547 411 q 478 488 547 488 q 408 411 408 488 l 408 38 q 397 11 408 22 q 371 0 386 0 l 107 0 q 81 11 92 0 q 69 38 69 22 l 69 685 q 81 711 69 700 q 107 722 92 722 l 350 722 q 376 711 365 722 q 388 685 388 700 l 388 639 q 485 709 424 682 q 618 736 547 736 q 810 656 732 736 q 888 421 888 576 z "},"o":{"ha":903,"x_min":49,"x_max":854,"o":"m 49 314 l 49 408 q 161 651 49 567 q 451 736 274 736 q 742 651 629 736 q 854 408 854 567 l 854 314 q 746 70 854 154 q 451 -14 638 -14 q 157 70 265 -14 q 49 314 49 154 m 514 303 l 514 419 q 500 493 514 472 q 451 514 486 514 q 403 493 417 514 q 389 419 389 472 l 389 303 q 403 228 389 247 q 451 208 417 208 q 500 229 486 208 q 514 303 514 250 z "},"p":{"ha":929,"x_min":69,"x_max":881,"o":"m 881 415 l 881 306 q 797 68 881 150 q 594 -14 714 -14 q 401 51 474 -14 l 401 -226 q 390 -253 401 -242 q 364 -264 379 -264 l 107 -264 q 81 -253 92 -264 q 69 -226 69 -242 l 69 685 q 81 711 69 700 q 107 722 92 722 l 343 722 q 369 711 358 722 q 381 685 381 700 l 381 643 q 585 736 453 736 q 799 658 717 736 q 881 415 881 579 m 401 407 l 401 304 q 471 235 406 235 q 540 315 540 235 l 540 407 q 471 488 540 488 q 401 407 401 488 z "},"q":{"ha":929,"x_min":49,"x_max":860,"o":"m 49 306 l 49 415 q 131 658 49 579 q 344 736 213 736 q 549 643 476 736 l 549 685 q 560 711 549 700 q 586 722 571 722 l 822 722 q 849 711 838 722 q 860 685 860 700 l 860 -226 q 849 -253 860 -242 q 822 -264 838 -264 l 565 -264 q 539 -253 550 -264 q 528 -226 528 -242 l 528 51 q 335 -14 456 -14 q 132 68 215 -14 q 49 306 49 150 m 528 407 q 458 488 528 488 q 389 407 389 488 l 389 315 q 458 235 389 235 q 528 304 524 235 l 528 407 z "},"r":{"ha":736,"x_min":56,"x_max":694,"o":"m 374 685 l 374 636 q 590 722 471 722 l 657 722 q 683 711 672 722 q 694 685 694 700 l 694 468 q 683 442 694 453 q 657 431 672 431 l 478 431 q 419 413 440 431 q 394 367 397 396 l 394 38 q 383 11 394 22 q 357 0 372 0 l 93 0 q 67 11 78 0 q 56 38 56 22 l 56 685 q 67 711 56 700 q 93 722 78 722 l 336 722 q 363 711 351 722 q 374 685 374 700 z "},"s":{"ha":839,"x_min":42,"x_max":801,"o":"m 454 200 q 447 222 454 214 q 314 266 429 244 q 127 342 199 288 q 56 496 56 397 q 150 665 56 594 q 405 736 244 736 q 668 669 565 736 q 771 535 771 603 q 762 508 771 519 q 740 497 753 497 l 507 497 q 456 519 486 497 q 410 542 425 542 q 378 519 378 542 q 385 497 378 506 q 536 457 403 476 q 735 372 669 438 q 801 225 801 306 q 700 49 801 113 q 413 -15 599 -15 q 238 7 314 -15 q 121 63 161 29 q 42 185 42 128 q 51 211 42 200 q 75 222 61 222 l 317 222 q 367 201 336 222 q 426 179 399 179 q 454 200 454 179 z "},"t":{"ha":738,"x_min":21,"x_max":710,"o":"m 486 479 l 486 326 q 546 257 486 257 l 672 257 q 699 246 688 257 q 710 219 710 235 l 710 38 q 699 11 710 22 q 672 0 688 0 l 515 0 q 168 299 168 0 l 168 479 l 58 479 q 32 490 43 479 q 21 517 21 501 l 21 685 q 32 711 21 700 q 58 722 43 722 l 168 722 l 168 949 q 179 975 168 964 q 206 986 190 986 l 449 986 q 475 975 464 986 q 486 949 486 964 l 486 722 l 661 722 q 688 711 676 722 q 699 685 699 700 l 699 517 q 688 490 699 501 q 661 479 676 479 l 486 479 z "},"u":{"ha":950,"x_min":63,"x_max":881,"o":"m 63 301 l 63 685 q 74 711 63 700 q 100 722 85 722 l 365 722 q 392 711 381 722 q 403 685 403 700 l 403 311 q 472 235 403 235 q 542 311 542 235 l 542 685 q 553 711 542 700 q 579 722 564 722 l 843 722 q 869 711 858 722 q 881 685 881 700 l 881 38 q 869 11 881 22 q 843 0 858 0 l 600 0 q 574 11 585 0 q 563 38 563 22 l 563 83 q 332 -14 497 -14 q 140 66 218 -14 q 63 301 63 146 z "},"v":{"ha":892,"x_min":21,"x_max":871,"o":"m 557 0 l 335 0 q 289 35 306 0 l 22 678 q 21 692 21 682 q 31 711 21 701 q 54 721 40 721 l 289 721 q 335 688 322 721 l 446 365 l 557 689 q 603 722 569 722 l 838 722 q 861 713 851 722 q 871 693 871 703 q 869 679 871 683 l 603 35 q 557 0 586 0 z "},"w":{"ha":1218,"x_min":28,"x_max":1190,"o":"m 544 722 l 674 722 q 721 689 711 722 l 811 400 l 896 689 q 943 722 906 722 l 1157 722 q 1181 713 1171 722 q 1190 693 1190 703 q 1189 678 1190 683 l 986 35 q 940 0 975 0 l 754 0 q 708 35 719 0 l 610 315 l 510 35 q 464 0 499 0 l 278 0 q 232 35 243 0 l 29 678 q 28 693 28 683 q 38 713 28 703 q 61 722 47 722 l 275 722 q 322 689 313 722 l 407 400 l 497 689 q 544 722 507 722 z "},"x":{"ha":892,"x_min":14,"x_max":878,"o":"m 872 51 q 878 32 878 44 q 868 10 878 19 q 844 0 858 0 l 578 0 q 536 24 553 0 l 444 158 l 349 24 q 307 0 333 0 l 47 0 q 24 10 33 0 q 14 32 14 19 q 19 51 14 44 l 244 372 l 44 671 q 39 691 39 679 q 49 713 39 703 q 72 722 58 722 l 326 722 q 371 696 353 722 l 451 572 l 532 696 q 576 722 550 722 l 819 722 q 843 713 833 722 q 853 691 853 703 q 847 671 853 679 l 643 374 l 872 51 z "},"y":{"ha":892,"x_min":21,"x_max":878,"o":"m 56 722 l 290 722 q 335 689 322 722 l 449 372 l 567 689 q 614 722 581 722 l 846 722 q 868 713 858 722 q 878 694 878 704 q 876 679 878 685 l 485 -231 q 436 -264 471 -264 l 208 -264 q 187 -256 196 -264 q 178 -235 178 -247 q 179 -221 178 -224 l 290 46 l 22 679 q 21 689 21 683 q 56 722 26 722 z "},"z":{"ha":867,"x_min":69,"x_max":797,"o":"m 760 239 q 786 228 775 239 q 797 201 797 217 l 797 38 q 786 11 797 22 q 760 0 775 0 l 107 0 q 81 11 92 0 q 69 38 69 22 l 69 197 q 92 246 69 226 l 368 483 l 117 483 q 90 494 101 483 q 79 521 79 506 l 79 685 q 90 711 79 700 q 117 722 101 722 l 731 722 q 757 711 746 722 q 768 685 768 700 l 768 510 q 749 469 768 486 l 485 239 l 760 239 z "},"{":{"ha":704,"x_min":69,"x_max":663,"o":"m 69 393 l 69 465 q 110 524 69 506 l 133 533 q 208 671 208 564 q 244 857 208 778 q 339 983 279 936 q 632 1078 458 1078 q 653 1069 644 1078 q 663 1047 663 1060 l 663 857 q 654 836 663 844 q 636 826 646 828 q 458 661 458 804 q 428 508 458 574 q 357 429 397 443 q 428 347 397 415 q 458 197 458 279 q 636 32 458 54 q 654 22 646 31 q 663 1 663 14 l 663 -189 q 653 -210 663 -201 q 632 -219 644 -219 q 339 -125 458 -219 q 244 1 279 -78 q 208 188 208 81 q 133 325 208 294 l 110 335 q 69 393 69 353 z "},"|":{"ha":428,"x_min":83,"x_max":344,"o":"m 121 1244 l 307 1244 q 333 1233 322 1244 q 344 1207 344 1222 l 344 -251 q 333 -278 344 -267 q 307 -289 322 -289 l 121 -289 q 94 -278 106 -289 q 83 -251 83 -267 l 83 1207 q 94 1233 83 1222 q 121 1244 106 1244 z "},"}":{"ha":704,"x_min":42,"x_max":635,"o":"m 635 465 l 635 393 q 594 335 635 353 l 571 325 q 496 188 496 294 q 460 1 496 81 q 365 -125 425 -78 q 72 -219 246 -219 q 51 -210 60 -219 q 42 -189 42 -201 l 42 1 q 50 22 42 14 q 68 32 58 31 q 246 197 246 54 q 276 347 246 279 q 347 429 307 415 q 276 508 307 443 q 246 661 246 574 q 68 826 246 804 q 50 836 58 828 q 42 857 42 844 l 42 1047 q 51 1069 42 1060 q 72 1078 60 1078 q 365 983 246 1078 q 460 857 425 936 q 496 671 496 778 q 571 533 496 564 l 594 524 q 635 465 635 506 z "},"~":{"ha":764,"x_min":69,"x_max":694,"o":"m 111 533 q 132 549 111 533 q 222 565 153 565 q 385 536 292 565 q 538 507 479 507 q 636 543 596 507 q 666 555 650 554 q 688 544 682 556 q 694 504 694 532 l 694 354 q 653 275 694 307 q 542 243 611 243 q 378 272 472 243 q 226 301 285 301 q 128 265 168 301 q 98 253 114 254 q 76 265 82 253 q 69 304 69 276 l 69 454 q 111 533 69 501 z "},"¡":{"ha":469,"x_min":76,"x_max":393,"o":"m 356 406 l 114 406 q 88 417 99 406 q 76 443 76 428 l 76 685 q 88 711 76 700 q 114 722 99 722 l 356 722 q 382 711 371 722 q 393 685 393 700 l 393 443 q 382 417 393 428 q 356 406 371 406 m 356 -250 l 114 -250 q 88 -239 99 -250 q 76 -212 76 -228 l 76 313 q 88 339 76 328 q 114 350 99 350 l 356 350 q 382 339 371 350 q 393 313 393 328 l 393 -212 q 382 -239 393 -228 q 356 -250 371 -250 z "},"¢":{"ha":886,"x_min":49,"x_max":844,"o":"m 542 -139 l 335 -139 q 308 -128 319 -139 q 297 -101 297 -117 l 297 4 q 115 120 182 36 q 49 329 49 204 l 49 393 q 115 602 49 518 q 297 718 182 686 l 297 810 q 308 836 297 825 q 335 847 319 847 l 542 847 q 568 836 557 847 q 579 810 579 825 l 579 718 q 699 667 646 701 q 783 596 753 633 q 844 467 844 521 q 833 440 844 451 q 807 429 822 429 l 536 429 q 496 457 510 429 q 444 499 476 499 q 389 410 389 499 l 389 313 q 401 244 389 265 q 440 224 414 224 q 476 233 467 224 q 497 267 486 242 q 536 293 507 293 l 807 293 q 833 282 822 293 q 844 253 844 271 q 830 202 844 235 q 786 131 815 169 q 702 56 757 92 q 579 3 647 21 l 579 -101 q 568 -128 579 -117 q 542 -139 557 -139 z "},"£":{"ha":1093,"x_min":69,"x_max":1024,"o":"m 743 -14 q 558 17 667 -14 q 401 49 449 49 q 331 13 353 49 q 310 0 324 0 l 96 0 q 77 8 85 0 q 69 25 69 15 q 109 175 69 107 q 218 281 149 243 q 213 347 218 306 l 108 347 q 82 358 93 347 q 71 385 71 369 l 71 540 q 82 567 71 556 q 108 578 93 578 l 157 578 q 156 619 156 590 q 579 988 156 988 q 897 899 774 988 q 1019 646 1019 810 q 1010 624 1019 633 q 989 615 1001 615 l 706 615 q 649 656 665 615 q 583 717 624 717 q 530 693 543 717 q 517 630 517 669 q 518 578 517 590 l 675 578 q 701 567 690 578 q 713 540 713 556 l 713 385 q 701 358 713 369 q 675 347 690 347 l 525 347 q 522 276 525 301 q 692 253 633 253 q 790 304 750 253 q 815 317 800 317 l 997 317 q 1024 290 1024 317 q 938 69 1024 153 q 743 -14 851 -14 z "},"¤":{"ha":931,"x_min":69,"x_max":863,"o":"m 849 733 q 860 709 860 724 q 849 683 860 694 l 778 613 q 813 462 813 540 q 778 311 813 383 l 850 240 q 863 215 863 228 q 850 190 863 203 l 735 76 q 711 67 725 67 q 688 76 697 67 l 615 149 q 465 115 547 115 q 315 149 382 115 l 244 78 q 219 65 232 65 l 194 78 l 81 193 q 69 217 69 203 q 81 240 69 231 l 151 311 q 118 465 118 385 q 151 613 118 544 l 81 683 q 71 708 71 694 q 81 732 71 722 l 194 844 q 219 856 206 856 q 244 844 233 856 l 313 776 q 465 811 385 811 q 617 776 544 811 l 688 847 q 712 857 697 857 q 736 847 726 857 l 849 733 m 369 559 q 350 539 369 559 q 331 463 331 519 q 369 367 331 406 q 465 328 408 328 q 560 367 521 328 q 600 463 600 407 q 560 558 600 518 q 465 599 521 599 q 369 559 408 599 z "},"¥":{"ha":1111,"x_min":67,"x_max":1044,"o":"m 219 421 l 324 421 l 69 929 q 67 944 67 935 q 76 963 67 954 q 97 972 85 972 l 358 972 q 417 938 400 972 l 556 658 l 694 938 q 753 972 711 972 l 1014 972 q 1035 963 1026 972 q 1044 944 1044 954 q 1042 929 1044 935 l 786 421 l 893 421 q 919 410 908 421 q 931 383 931 399 l 931 222 q 919 196 931 207 q 893 185 908 185 l 729 185 l 729 38 q 718 11 729 22 q 692 0 707 0 l 419 0 q 393 11 404 0 q 382 38 382 22 l 382 185 l 219 185 q 193 196 204 185 q 182 222 182 207 l 182 383 q 193 410 182 399 q 219 421 204 421 z "},"¦":{"ha":428,"x_min":83,"x_max":344,"o":"m 121 492 l 307 492 q 333 481 322 492 q 344 454 344 469 l 344 38 q 333 11 344 22 q 307 0 322 0 l 121 0 q 94 11 106 0 q 83 38 83 22 l 83 454 q 94 481 83 469 q 121 492 106 492 m 121 1151 l 307 1151 q 333 1140 322 1151 q 344 1114 344 1129 l 344 697 q 333 671 344 682 q 307 660 322 660 l 121 660 q 94 671 106 660 q 83 697 83 682 l 83 1114 q 94 1140 83 1129 q 121 1151 106 1151 z "},"§":{"ha":894,"x_min":42,"x_max":853,"o":"m 585 660 q 792 558 732 624 q 853 379 853 493 q 758 192 853 265 q 781 92 781 144 q 688 -112 781 -32 q 435 -192 596 -192 q 174 -121 275 -192 q 72 24 72 -50 q 103 56 72 56 l 333 56 q 374 36 351 56 q 419 17 397 17 q 461 54 461 17 q 454 81 461 69 q 412 107 447 92 q 310 135 376 122 q 102 236 163 171 q 42 415 42 301 q 136 603 42 529 q 114 703 114 647 q 206 906 114 826 q 459 986 299 986 q 721 915 619 986 q 822 771 822 844 q 792 739 822 739 l 561 739 q 520 758 543 739 q 475 778 497 778 q 433 740 433 778 q 440 714 433 725 q 483 688 447 703 q 585 660 518 672 m 331 429 q 365 385 331 400 q 465 353 400 369 q 538 336 531 336 q 555 344 546 336 q 564 365 564 353 q 529 410 564 394 q 429 441 494 425 q 356 457 364 457 q 340 449 349 457 q 331 429 331 442 z "},"¨":{"ha":699,"x_min":69,"x_max":629,"o":"m 101 1022 l 269 1022 q 292 1013 283 1022 q 301 990 301 1004 l 301 822 q 292 799 301 808 q 269 790 283 790 l 101 790 q 78 799 88 790 q 69 822 69 808 l 69 990 q 78 1013 69 1004 q 101 1022 88 1022 m 429 1022 l 597 1022 q 620 1013 611 1022 q 629 990 629 1004 l 629 822 q 620 799 629 808 q 597 790 611 790 l 429 790 q 406 799 415 790 q 397 822 397 808 l 397 990 q 406 1013 397 1004 q 429 1022 415 1022 z "},"©":{"ha":1083,"x_min":42,"x_max":1042,"o":"m 188 133 q 115 206 188 133 q 42 486 42 279 q 188 840 42 693 q 542 986 335 986 q 895 840 749 986 q 1042 486 1042 693 q 895 133 1042 279 q 542 -14 749 -14 q 188 133 335 -14 m 265 769 q 209 711 265 769 q 153 486 153 653 q 265 203 153 319 q 542 88 376 88 q 819 203 707 88 q 931 486 931 319 q 819 769 931 653 q 542 885 707 885 q 265 769 376 885 m 488 424 q 542 365 488 365 q 596 404 582 365 q 624 426 601 426 l 776 426 q 792 410 792 426 q 719 266 792 314 q 538 218 647 218 q 363 269 429 218 q 296 424 296 319 l 296 551 q 365 706 296 653 q 540 758 433 758 q 719 710 647 758 q 792 567 792 663 q 787 555 792 561 q 776 549 782 549 l 624 549 q 596 571 601 549 q 542 613 581 613 q 488 551 488 613 l 488 424 z "},"ª":{"ha":486,"x_min":42,"x_max":444,"o":"m 42 715 q 199 839 42 811 l 274 850 q 270 879 274 872 q 253 886 267 886 q 226 875 239 886 q 203 864 214 864 l 82 864 q 68 881 68 864 q 117 951 68 915 q 254 986 165 986 q 444 832 444 986 l 444 629 q 439 616 444 622 q 425 610 433 610 l 301 610 q 287 616 293 610 q 281 629 281 622 l 281 649 q 185 603 250 603 q 81 635 119 603 q 42 715 42 667 m 229 708 q 276 764 276 708 l 235 753 q 201 727 201 746 q 229 708 201 708 z "},"«":{"ha":871,"x_min":28,"x_max":801,"o":"m 399 299 l 399 103 q 390 81 399 90 q 369 72 381 72 q 349 79 357 72 l 47 372 q 28 411 28 389 l 28 503 q 47 542 28 525 l 349 835 q 369 842 357 842 q 390 833 381 842 q 399 811 399 824 l 399 615 q 374 553 399 578 l 278 457 l 374 361 q 399 299 399 336 m 801 299 l 801 103 q 792 81 801 90 q 772 72 783 72 q 751 79 760 72 l 450 372 q 431 411 431 389 l 431 503 q 450 542 431 525 l 751 835 q 772 842 760 842 q 792 833 783 842 q 801 811 801 824 l 801 615 q 776 553 801 578 l 681 457 l 776 361 q 801 299 801 336 z "},"¬":{"ha":846,"x_min":69,"x_max":776,"o":"m 540 242 l 540 351 l 107 351 q 81 363 92 351 q 69 389 69 374 l 69 550 q 81 576 69 565 q 107 588 92 588 l 739 588 q 765 576 754 588 q 776 550 776 565 l 776 242 q 765 215 776 226 q 739 204 754 204 l 578 204 q 551 215 563 204 q 540 242 540 226 z "},"®":{"ha":1083,"x_min":42,"x_max":1042,"o":"m 781 278 q 785 260 785 269 q 776 242 785 251 q 756 233 767 233 l 636 233 q 597 260 607 233 l 536 392 l 507 392 l 507 267 q 498 243 507 253 q 475 233 489 233 l 357 233 q 334 243 343 233 q 325 267 325 253 l 325 694 q 338 728 325 714 q 369 742 351 742 l 558 742 q 722 694 663 742 q 781 563 781 647 q 704 425 781 478 l 781 278 m 507 607 l 507 529 l 558 529 q 593 567 593 529 q 584 594 593 582 q 558 607 575 607 l 507 607 m 188 133 q 115 206 188 133 q 42 486 42 279 q 188 840 42 693 q 542 986 335 986 q 895 840 749 986 q 1042 486 1042 693 q 895 133 1042 279 q 542 -14 749 -14 q 188 133 335 -14 m 265 769 q 209 711 265 769 q 153 486 153 653 q 265 203 153 319 q 542 88 376 88 q 819 203 707 88 q 931 486 931 319 q 819 769 931 653 q 542 885 707 885 q 265 769 376 885 z "},"¯":{"ha":657,"x_min":69,"x_max":588,"o":"m 101 1008 l 556 1008 q 578 999 569 1008 q 588 976 588 990 l 588 836 q 578 813 588 822 q 556 804 569 804 l 101 804 q 78 813 88 804 q 69 836 69 822 l 69 976 q 78 999 69 990 q 101 1008 88 1008 z "},"°":{"ha":653,"x_min":42,"x_max":611,"o":"m 611 728 q 611 673 611 728 q 534 545 611 618 q 327 472 457 472 q 119 545 197 472 q 42 728 42 618 q 119 913 42 839 q 327 986 197 986 q 534 912 457 986 q 611 728 611 838 m 328 621 q 403 728 403 621 q 328 836 403 836 q 270 807 290 836 q 250 728 250 778 q 328 621 250 621 z "},"±":{"ha":775,"x_min":42,"x_max":733,"o":"m 107 226 l 668 226 q 694 215 683 226 q 706 189 706 204 l 706 38 q 694 11 706 22 q 668 0 683 0 l 107 0 q 81 11 92 0 q 69 38 69 22 l 69 189 q 81 215 69 204 q 107 226 92 226 m 267 296 l 267 492 l 79 492 q 53 503 64 492 q 42 529 42 514 l 42 681 q 53 707 42 696 q 79 718 64 718 l 267 718 l 267 907 q 278 933 267 922 q 304 944 289 944 l 474 944 q 500 933 489 944 q 511 907 511 922 l 511 718 l 696 718 q 722 707 711 718 q 733 681 733 696 l 733 529 q 722 503 733 514 q 696 492 711 492 l 511 492 l 511 296 q 500 269 511 281 q 474 258 489 258 l 304 258 q 278 269 289 258 q 267 296 267 281 z "},"²":{"ha":585,"x_min":69,"x_max":515,"o":"m 496 629 q 515 610 515 629 l 515 504 q 496 486 515 486 l 88 486 q 69 504 69 486 l 69 576 q 86 614 69 601 q 265 750 217 708 q 314 820 314 792 q 289 849 314 849 q 251 814 264 849 q 224 797 244 797 l 93 797 q 78 813 78 797 q 138 938 78 890 q 291 986 197 986 q 440 945 385 986 q 496 840 496 904 q 457 728 496 775 q 342 629 418 681 l 496 629 z "},"³":{"ha":597,"x_min":69,"x_max":521,"o":"m 521 635 q 457 517 521 563 q 288 472 393 472 q 126 521 182 472 q 69 619 69 569 q 83 633 69 633 l 222 633 q 244 622 233 633 q 285 611 256 611 q 328 643 328 611 q 285 671 328 671 l 206 671 q 189 689 189 671 l 189 756 q 203 783 189 775 l 271 822 l 117 822 q 97 842 97 822 l 97 953 q 117 972 97 972 l 472 972 q 490 953 490 972 l 490 865 q 476 838 490 846 l 396 782 q 521 635 521 750 z "},"´":{"ha":625,"x_min":69,"x_max":556,"o":"m 269 1022 l 529 1022 q 556 994 556 1022 q 549 978 556 985 l 329 804 q 272 790 314 790 l 92 790 q 69 813 69 790 q 76 831 69 824 l 218 996 q 269 1022 242 1022 z "},"µ":{"ha":957,"x_min":69,"x_max":894,"o":"m 69 -239 l 69 685 q 81 711 69 700 q 107 722 92 722 l 379 722 q 406 711 394 722 q 417 685 417 700 l 417 311 q 486 235 417 235 q 556 311 556 235 l 556 685 q 567 711 556 700 q 593 722 578 722 l 857 722 q 883 711 872 722 q 894 685 894 700 l 894 38 q 883 11 894 22 q 857 0 872 0 l 614 0 q 588 11 599 0 q 576 38 576 22 l 576 83 q 417 0 529 14 l 417 -239 q 406 -265 417 -254 q 379 -276 394 -276 l 107 -276 q 81 -265 92 -276 q 69 -239 69 -254 z "},"¶":{"ha":781,"x_min":56,"x_max":711,"o":"m 324 972 l 674 972 q 700 961 689 972 q 711 935 711 950 l 711 -101 q 700 -128 711 -117 q 674 -139 689 -139 l 613 -139 q 586 -128 597 -139 q 575 -101 575 -117 l 575 836 l 465 836 l 465 -101 q 454 -128 465 -117 q 428 -139 443 -139 l 367 -139 q 340 -128 351 -139 q 329 -101 329 -117 l 329 425 q 135 505 215 425 q 56 698 56 585 q 134 892 56 811 q 324 972 213 972 z "},"·":{"ha":667,"x_min":139,"x_max":528,"o":"m 196 465 q 167 494 196 465 q 139 603 139 522 q 196 740 139 683 q 333 797 253 797 q 471 740 414 797 q 528 603 528 683 q 471 465 528 522 q 333 408 414 408 q 196 465 253 408 z "},"¸":{"ha":475,"x_min":69,"x_max":406,"o":"m 257 68 l 228 -54 q 290 -46 243 -46 q 371 -83 336 -46 q 406 -172 406 -119 q 322 -304 406 -272 q 239 -319 281 -319 l 153 -303 q 69 -212 69 -269 q 88 -194 69 -194 l 172 -194 q 208 -206 189 -194 q 244 -217 226 -217 q 285 -183 285 -217 q 272 -159 285 -169 q 240 -149 260 -149 q 206 -157 219 -149 q 179 -165 192 -165 l 118 -165 q 99 -146 99 -165 q 100 -129 99 -140 l 139 71 q 185 97 143 97 l 224 97 q 257 68 257 97 z "},"¹":{"ha":453,"x_min":14,"x_max":369,"o":"m 369 953 l 369 504 q 351 486 369 486 l 201 486 q 182 504 182 486 l 182 769 l 111 715 q 85 721 99 704 l 17 810 q 14 824 14 817 q 24 838 14 832 l 190 967 q 206 972 197 972 l 351 972 q 369 953 369 972 z "},"º":{"ha":497,"x_min":42,"x_max":456,"o":"m 42 769 l 42 819 q 100 943 42 900 q 249 986 158 986 q 397 943 339 986 q 456 819 456 900 l 456 769 q 400 645 456 688 q 249 603 344 603 q 97 645 153 603 q 42 769 42 688 m 281 764 l 281 825 q 249 872 281 872 q 217 825 217 872 l 217 764 q 224 726 217 736 q 249 717 231 717 q 281 764 281 717 z "},"»":{"ha":871,"x_min":69,"x_max":843,"o":"m 472 615 l 472 811 q 481 833 472 824 q 502 842 490 842 q 522 835 514 842 l 824 542 q 843 503 843 525 l 843 411 q 824 372 843 389 l 522 79 q 502 72 514 72 q 481 81 490 72 q 472 103 472 90 l 472 299 q 497 361 472 336 l 593 457 l 497 553 q 472 615 472 578 m 69 615 l 69 811 q 78 833 69 824 q 99 842 88 842 q 119 835 111 842 l 421 542 q 440 503 440 525 l 440 411 q 421 372 440 389 l 119 79 q 99 72 111 72 q 78 81 88 72 q 69 103 69 90 l 69 299 q 94 361 69 336 l 190 457 l 94 553 q 69 615 69 578 z "},"¼":{"ha":1131,"x_min":14,"x_max":1047,"o":"m 369 953 l 369 504 q 351 486 369 486 l 201 486 q 182 504 182 486 l 182 769 l 111 715 q 85 721 99 704 l 17 810 q 14 824 14 817 q 24 838 14 832 l 190 967 q 206 972 197 972 l 351 972 q 369 953 369 972 m 968 218 l 1028 218 q 1047 200 1047 218 l 1047 82 q 1029 64 1047 64 l 968 64 l 968 18 q 949 0 968 0 l 806 0 q 788 18 788 0 l 788 64 l 565 64 q 547 82 547 64 l 547 196 q 554 217 547 210 l 751 474 q 776 486 761 486 l 949 486 q 968 467 968 486 l 968 218 m 792 211 l 792 311 l 719 211 l 792 211 m 856 972 l 958 972 q 992 944 992 972 q 986 929 992 936 l 300 26 q 250 0 281 0 l 147 0 q 114 28 114 0 q 119 43 114 36 l 806 946 q 856 972 825 972 z "},"½":{"ha":1172,"x_min":14,"x_max":1089,"o":"m 1069 143 q 1089 124 1089 143 l 1089 18 q 1069 0 1089 0 l 661 0 q 643 18 643 0 l 643 90 q 660 128 643 115 q 839 264 790 222 q 888 334 888 306 q 863 363 888 363 q 825 328 838 363 q 797 311 818 311 l 667 311 q 651 326 651 311 q 711 452 651 404 q 865 500 771 500 q 1014 459 958 500 q 1069 353 1069 418 q 1031 242 1069 289 q 915 143 992 194 l 1069 143 m 369 953 l 369 504 q 351 486 369 486 l 201 486 q 182 504 182 486 l 182 769 l 111 715 q 85 721 99 704 l 17 810 q 14 824 14 817 q 24 838 14 832 l 190 967 q 206 972 197 972 l 351 972 q 369 953 369 972 m 856 972 l 958 972 q 992 944 992 972 q 986 929 992 936 l 300 26 q 250 0 281 0 l 147 0 q 114 28 114 0 q 119 43 114 36 l 806 946 q 856 972 825 972 z "},"¾":{"ha":1186,"x_min":14,"x_max":1075,"o":"m 996 218 l 1056 218 q 1075 200 1075 218 l 1075 82 q 1057 64 1075 64 l 996 64 l 996 18 q 976 0 996 0 l 833 0 q 815 18 815 0 l 815 64 l 593 64 q 575 82 575 64 l 575 196 q 582 217 575 210 l 779 474 q 804 486 789 486 l 976 486 q 996 467 996 486 l 996 218 m 819 211 l 819 311 l 747 211 l 819 211 m 465 635 q 401 517 465 563 q 232 472 338 472 q 70 521 126 472 q 14 619 14 569 q 28 633 14 633 l 167 633 q 189 622 178 633 q 229 611 200 611 q 272 643 272 611 q 229 671 272 671 l 150 671 q 133 689 133 671 l 133 756 q 147 783 133 775 l 215 822 l 61 822 q 42 842 42 822 l 42 953 q 61 972 42 972 l 417 972 q 435 953 435 972 l 435 865 q 421 838 435 846 l 340 782 q 465 635 465 750 m 881 972 l 983 972 q 1017 944 1017 972 q 1011 929 1017 936 l 325 26 q 275 0 306 0 l 172 0 q 139 28 139 0 q 144 43 139 36 l 831 946 q 881 972 850 972 z "},"¿":{"ha":922,"x_min":42,"x_max":881,"o":"m 432 -264 q 269 -245 340 -264 q 156 -199 197 -226 q 86 -133 114 -171 q 42 -10 42 -72 q 67 103 42 51 q 122 188 92 156 q 193 263 151 221 q 250 328 235 306 q 269 356 265 350 q 303 371 283 371 l 600 371 q 618 363 610 371 q 626 347 626 356 q 582 256 626 311 q 503 169 538 200 q 410 51 410 90 q 423 19 410 31 q 463 7 436 7 q 509 20 490 7 q 533 50 528 33 q 588 93 546 93 l 846 93 q 871 81 861 93 q 881 51 881 68 l 881 50 q 763 -167 881 -69 q 432 -264 646 -264 m 586 426 l 332 426 q 306 438 317 426 q 294 464 294 449 l 294 685 q 306 711 294 700 q 332 722 317 722 l 586 722 q 613 711 601 722 q 624 685 624 700 l 624 464 q 613 438 624 449 q 586 426 601 426 z "},"À":{"ha":1090,"x_min":21,"x_max":1069,"o":"m 394 972 l 696 972 q 758 926 746 972 l 1068 40 q 1069 27 1069 36 q 1060 9 1069 18 q 1039 0 1051 0 l 782 0 q 728 35 740 0 l 694 126 l 396 126 l 363 35 q 308 0 350 0 l 51 0 q 30 9 39 0 q 21 27 21 18 q 22 40 21 36 l 332 926 q 394 972 344 972 m 467 397 l 624 397 l 544 656 l 467 397 m 674 1064 q 651 1042 674 1042 l 457 1042 q 400 1056 415 1042 l 181 1236 q 174 1253 174 1243 q 200 1281 174 1281 l 474 1281 q 525 1254 501 1281 l 667 1082 q 674 1064 674 1075 z "},"Á":{"ha":1090,"x_min":21,"x_max":1069,"o":"m 394 972 l 696 972 q 758 926 746 972 l 1068 40 q 1069 27 1069 36 q 1060 9 1069 18 q 1039 0 1051 0 l 782 0 q 728 35 740 0 l 694 126 l 396 126 l 363 35 q 308 0 350 0 l 51 0 q 30 9 39 0 q 21 27 21 18 q 22 40 21 36 l 332 926 q 394 972 344 972 m 467 397 l 624 397 l 544 656 l 467 397 m 607 1281 l 881 1281 q 907 1253 907 1281 q 900 1236 907 1243 l 681 1056 q 624 1042 665 1042 l 429 1042 q 407 1064 407 1042 q 414 1082 407 1075 l 556 1254 q 607 1281 579 1281 z "},"Â":{"ha":1090,"x_min":21,"x_max":1069,"o":"m 394 972 l 696 972 q 758 926 746 972 l 1068 40 q 1069 27 1069 36 q 1060 9 1069 18 q 1039 0 1051 0 l 782 0 q 728 35 740 0 l 694 126 l 396 126 l 363 35 q 308 0 350 0 l 51 0 q 30 9 39 0 q 21 27 21 18 q 22 40 21 36 l 332 926 q 394 972 344 972 m 467 397 l 624 397 l 544 656 l 467 397 m 454 1281 l 635 1281 q 657 1276 650 1281 q 686 1254 664 1272 l 849 1082 q 856 1064 856 1075 q 833 1042 856 1042 l 735 1042 q 679 1051 708 1042 l 544 1110 l 410 1051 q 354 1042 381 1042 l 256 1042 q 233 1064 233 1042 q 240 1082 233 1075 l 403 1254 q 432 1276 425 1272 q 454 1281 439 1281 z "},"Ã":{"ha":1090,"x_min":21,"x_max":1069,"o":"m 394 972 l 696 972 q 758 926 746 972 l 1068 40 q 1069 27 1069 36 q 1060 9 1069 18 q 1039 0 1051 0 l 782 0 q 728 35 740 0 l 694 126 l 396 126 l 363 35 q 308 0 350 0 l 51 0 q 30 9 39 0 q 21 27 21 18 q 22 40 21 36 l 332 926 q 394 972 344 972 m 467 397 l 624 397 l 544 656 l 467 397 m 803 1116 q 793 1099 803 1116 q 744 1060 783 1082 q 655 1038 704 1038 q 544 1061 606 1038 q 456 1085 483 1085 q 411 1054 429 1085 q 390 1042 404 1042 l 274 1042 q 255 1049 263 1042 q 247 1073 247 1057 q 252 1113 247 1089 q 270 1166 257 1138 q 303 1217 283 1194 q 436 1271 350 1271 q 543 1247 482 1271 q 630 1224 604 1224 q 669 1245 656 1224 q 697 1267 683 1267 l 814 1267 q 840 1240 840 1267 q 831 1181 840 1213 q 803 1116 822 1150 z "},"Ä":{"ha":1090,"x_min":21,"x_max":1069,"o":"m 394 972 l 696 972 q 758 926 746 972 l 1068 40 q 1069 27 1069 36 q 1060 9 1069 18 q 1039 0 1051 0 l 782 0 q 728 35 740 0 l 694 126 l 396 126 l 363 35 q 308 0 350 0 l 51 0 q 30 9 39 0 q 21 27 21 18 q 22 40 21 36 l 332 926 q 394 972 344 972 m 467 397 l 624 397 l 544 656 l 467 397 m 646 1281 l 821 1281 q 844 1272 835 1281 q 853 1249 853 1263 l 853 1074 q 844 1051 853 1060 q 821 1042 835 1042 l 646 1042 q 623 1051 632 1042 q 614 1074 614 1060 l 614 1249 q 623 1272 614 1263 q 646 1281 632 1281 m 269 1281 l 444 1281 q 467 1272 458 1281 q 476 1249 476 1263 l 476 1074 q 467 1051 476 1060 q 444 1042 458 1042 l 269 1042 q 247 1051 256 1042 q 238 1074 238 1060 l 238 1249 q 247 1272 238 1263 q 269 1281 256 1281 z "},"Å":{"ha":1090,"x_min":21,"x_max":1069,"o":"m 394 972 l 696 972 q 758 926 746 972 l 1068 40 q 1069 27 1069 36 q 1060 9 1069 18 q 1039 0 1051 0 l 782 0 q 728 35 740 0 l 694 126 l 396 126 l 363 35 q 308 0 350 0 l 51 0 q 30 9 39 0 q 21 27 21 18 q 22 40 21 36 l 332 926 q 394 972 344 972 m 467 397 l 624 397 l 544 656 l 467 397 m 699 1162 q 699 1132 699 1162 q 657 1065 699 1103 q 545 1028 615 1028 q 433 1065 475 1028 q 392 1162 392 1103 q 433 1258 392 1221 q 545 1294 475 1294 q 657 1258 615 1294 q 699 1162 699 1221 m 504 1161 q 504 1140 504 1161 q 544 1118 504 1118 q 585 1161 585 1118 q 544 1204 585 1204 q 504 1161 504 1204 z "},"Æ":{"ha":1381,"x_min":21,"x_max":1360,"o":"m 394 972 l 1311 972 q 1338 961 1326 972 q 1349 935 1349 950 l 1349 739 q 1338 713 1349 724 q 1311 701 1326 701 l 936 701 l 936 614 l 1281 614 q 1307 603 1296 614 q 1318 576 1318 592 l 1318 396 q 1307 369 1318 381 q 1281 358 1296 358 l 936 358 l 936 271 l 1322 271 q 1349 260 1338 271 q 1360 233 1360 249 l 1360 38 q 1349 11 1360 22 q 1322 0 1338 0 l 640 0 q 614 11 625 0 q 603 38 603 22 l 603 126 l 396 126 l 363 35 q 308 0 350 0 l 51 0 q 30 9 39 0 q 21 27 21 18 q 22 40 21 36 l 332 926 q 394 972 344 972 m 603 397 l 603 701 l 558 701 l 467 397 l 603 397 z "},"Ç":{"ha":1038,"x_min":63,"x_max":996,"o":"m 424 603 l 424 369 q 526 257 424 257 q 631 332 606 257 q 648 364 638 356 q 682 372 658 372 l 965 372 q 987 363 978 372 q 996 342 996 354 q 958 184 996 253 q 857 74 921 115 q 549 -14 732 -8 l 539 -54 q 601 -46 554 -46 q 682 -83 647 -46 q 717 -172 717 -119 q 633 -304 717 -272 q 550 -319 592 -319 l 464 -303 q 381 -212 381 -269 q 399 -194 381 -194 l 483 -194 q 519 -206 500 -194 q 556 -217 538 -217 q 596 -183 596 -217 q 583 -159 596 -169 q 551 -149 571 -149 q 517 -157 531 -149 q 490 -165 503 -165 l 429 -165 q 410 -146 410 -165 q 411 -129 410 -140 l 435 -8 q 162 102 261 10 q 63 368 63 194 l 63 604 q 192 890 63 794 q 528 986 321 986 q 926 833 799 986 q 996 631 996 751 q 987 609 996 618 q 965 600 978 600 l 682 600 q 649 608 660 600 q 631 640 639 617 q 526 715 604 715 q 424 603 424 715 z "},"È":{"ha":965,"x_min":90,"x_max":889,"o":"m 424 271 l 851 271 q 878 260 867 271 q 889 233 889 249 l 889 38 q 878 11 889 22 q 851 0 867 0 l 128 0 q 101 11 113 0 q 90 38 90 22 l 90 935 q 101 961 90 950 q 128 972 113 972 l 840 972 q 867 961 856 972 q 878 935 878 950 l 878 739 q 867 713 878 724 q 840 701 856 701 l 424 701 l 424 614 l 810 614 q 836 603 825 614 q 847 576 847 592 l 847 396 q 836 369 847 381 q 810 358 825 358 l 424 358 l 424 271 m 650 1064 q 628 1042 650 1042 l 433 1042 q 376 1056 392 1042 l 157 1236 q 150 1253 150 1243 q 176 1281 150 1281 l 450 1281 q 501 1254 478 1281 l 643 1082 q 650 1064 650 1075 z "},"É":{"ha":965,"x_min":90,"x_max":889,"o":"m 851 271 q 878 260 867 271 q 889 233 889 249 l 889 38 q 878 11 889 22 q 851 0 867 0 l 128 0 q 101 11 113 0 q 90 38 90 22 l 90 935 q 101 961 90 950 q 128 972 113 972 l 840 972 q 867 961 856 972 q 878 935 878 950 l 878 739 q 867 713 878 724 q 840 701 856 701 l 424 701 l 424 614 l 810 614 q 836 603 825 614 q 847 576 847 592 l 847 396 q 836 369 847 381 q 810 358 825 358 l 424 358 l 424 271 l 851 271 m 506 1281 l 779 1281 q 806 1253 806 1281 q 799 1236 806 1243 l 579 1056 q 522 1042 564 1042 l 328 1042 q 306 1064 306 1042 q 313 1082 306 1075 l 454 1254 q 506 1281 478 1281 z "},"Ê":{"ha":958,"x_min":90,"x_max":889,"o":"m 424 271 l 851 271 q 878 260 867 271 q 889 233 889 249 l 889 38 q 878 11 889 22 q 851 0 867 0 l 128 0 q 101 11 113 0 q 90 38 90 22 l 90 935 q 101 961 90 950 q 128 972 113 972 l 840 972 q 867 961 856 972 q 878 935 878 950 l 878 739 q 867 713 878 724 q 840 701 856 701 l 424 701 l 424 614 l 810 614 q 836 603 825 614 q 847 576 847 592 l 847 396 q 836 369 847 381 q 810 358 825 358 l 424 358 l 424 271 m 403 1281 l 583 1281 q 606 1276 599 1281 q 635 1254 613 1272 l 797 1082 q 804 1064 804 1075 q 782 1042 804 1042 l 683 1042 q 628 1051 657 1042 l 493 1110 l 358 1051 q 303 1042 329 1042 l 204 1042 q 182 1064 182 1042 q 189 1082 182 1075 l 351 1254 q 381 1276 374 1272 q 403 1281 388 1281 z "},"Ë":{"ha":965,"x_min":90,"x_max":889,"o":"m 851 271 q 878 260 867 271 q 889 233 889 249 l 889 38 q 878 11 889 22 q 851 0 867 0 l 128 0 q 101 11 113 0 q 90 38 90 22 l 90 935 q 101 961 90 950 q 128 972 113 972 l 840 972 q 867 961 856 972 q 878 935 878 950 l 878 739 q 867 713 878 724 q 840 701 856 701 l 424 701 l 424 614 l 810 614 q 836 603 825 614 q 847 576 847 592 l 847 396 q 836 369 847 381 q 810 358 825 358 l 424 358 l 424 271 l 851 271 m 572 1281 l 747 1281 q 770 1272 761 1281 q 779 1249 779 1263 l 779 1074 q 770 1051 779 1060 q 747 1042 761 1042 l 572 1042 q 549 1051 558 1042 q 540 1074 540 1060 l 540 1249 q 549 1272 540 1263 q 572 1281 558 1281 m 196 1281 l 371 1281 q 394 1272 385 1281 q 403 1249 403 1263 l 403 1074 q 394 1051 403 1060 q 371 1042 385 1042 l 196 1042 q 173 1051 182 1042 q 164 1074 164 1060 l 164 1249 q 173 1272 164 1263 q 196 1281 182 1281 z "},"Ì":{"ha":542,"x_min":-85,"x_max":451,"o":"m 414 0 l 131 0 q 104 11 115 0 q 93 38 93 22 l 93 935 q 104 961 93 950 q 131 972 115 972 l 414 972 q 440 961 429 972 q 451 935 451 950 l 451 38 q 440 11 451 22 q 414 0 429 0 m 415 1064 q 393 1042 415 1042 l 199 1042 q 142 1056 157 1042 l -78 1236 q -85 1253 -85 1243 q -58 1281 -85 1281 l 215 1281 q 267 1254 243 1281 l 408 1082 q 415 1064 415 1075 z "},"Í":{"ha":540,"x_min":90,"x_max":636,"o":"m 411 0 l 128 0 q 101 11 113 0 q 90 38 90 22 l 90 935 q 101 961 90 950 q 128 972 113 972 l 411 972 q 438 961 426 972 q 449 935 449 950 l 449 38 q 438 11 449 22 q 411 0 426 0 m 336 1281 l 610 1281 q 636 1253 636 1281 q 629 1236 636 1243 l 410 1056 q 353 1042 394 1042 l 158 1042 q 136 1064 136 1042 q 143 1082 136 1075 l 285 1254 q 336 1281 308 1281 z "},"Î":{"ha":547,"x_min":-37,"x_max":585,"o":"m 417 0 l 133 0 q 107 11 118 0 q 96 38 96 22 l 96 935 q 107 961 96 950 q 133 972 118 972 l 417 972 q 443 961 432 972 q 454 935 454 950 l 454 38 q 443 11 454 22 q 417 0 432 0 m 183 1281 l 364 1281 q 386 1276 379 1281 q 415 1254 393 1272 l 578 1082 q 585 1064 585 1075 q 563 1042 585 1042 l 464 1042 q 408 1051 438 1042 l 274 1110 l 139 1051 q 83 1042 110 1042 l -15 1042 q -37 1064 -37 1042 q -31 1082 -37 1075 l 132 1254 q 161 1276 154 1272 q 183 1281 168 1281 z "},"Ï":{"ha":543,"x_min":-28,"x_max":588,"o":"m 415 0 l 132 0 q 106 11 117 0 q 94 38 94 22 l 94 935 q 106 961 94 950 q 132 972 117 972 l 415 972 q 442 961 431 972 q 453 935 453 950 l 453 38 q 442 11 453 22 q 415 0 431 0 m 381 1281 l 556 1281 q 578 1272 569 1281 q 588 1249 588 1263 l 588 1074 q 578 1051 588 1060 q 556 1042 569 1042 l 381 1042 q 358 1051 367 1042 q 349 1074 349 1060 l 349 1249 q 358 1272 349 1263 q 381 1281 367 1281 m 4 1281 l 179 1281 q 202 1272 193 1281 q 211 1249 211 1263 l 211 1074 q 202 1051 211 1060 q 179 1042 193 1042 l 4 1042 q -19 1051 -10 1042 q -28 1074 -28 1060 l -28 1249 q -19 1272 -28 1263 q 4 1281 -10 1281 z "},"Ð":{"ha":1056,"x_min":0,"x_max":993,"o":"m 38 596 l 90 596 l 90 935 q 101 961 90 950 q 128 972 113 972 l 528 972 q 862 872 731 972 q 993 590 993 771 l 993 383 q 865 97 993 194 q 529 0 738 0 l 128 0 q 101 11 113 0 q 90 38 90 22 l 90 381 l 38 381 q 11 392 22 381 q 0 418 0 403 l 0 558 q 11 585 0 574 q 38 596 22 596 m 438 701 l 438 596 l 515 596 q 542 585 531 596 q 553 558 553 574 l 553 418 q 542 392 553 403 q 515 381 531 381 l 438 381 l 438 271 l 528 271 q 603 299 575 271 q 632 383 632 328 l 632 590 q 528 701 632 701 l 438 701 z "},"Ñ":{"ha":1056,"x_min":90,"x_max":965,"o":"m 676 972 l 928 972 q 954 961 943 972 q 965 935 965 950 l 965 38 q 954 11 965 22 q 928 0 943 0 l 708 0 q 651 32 672 0 l 417 386 l 417 38 q 406 11 417 22 q 379 0 394 0 l 128 0 q 101 11 113 0 q 90 38 90 22 l 90 935 q 101 961 90 950 q 128 972 113 972 l 347 972 q 404 940 386 972 l 639 556 l 639 935 q 650 961 639 950 q 676 972 661 972 m 788 1116 q 778 1099 788 1116 q 728 1060 768 1082 q 640 1038 689 1038 q 529 1061 590 1038 q 441 1085 468 1085 q 396 1054 414 1085 q 375 1042 389 1042 l 258 1042 q 240 1049 247 1042 q 232 1073 232 1057 q 237 1113 232 1089 q 255 1166 242 1138 q 289 1217 268 1194 q 421 1271 335 1271 q 528 1247 467 1271 q 615 1224 589 1224 q 654 1245 640 1224 q 682 1267 668 1267 l 799 1267 q 825 1240 825 1267 q 816 1181 825 1213 q 788 1116 807 1150 z "},"Ò":{"ha":1053,"x_min":63,"x_max":990,"o":"m 190 883 q 253 935 190 883 q 526 986 317 986 q 863 883 736 986 q 990 592 990 779 l 990 375 q 865 85 990 185 q 526 -14 739 -14 q 188 85 314 -14 q 63 375 63 185 l 63 592 q 190 883 63 781 m 451 285 q 465 271 451 285 q 526 257 479 257 q 601 285 574 257 q 629 369 629 313 l 629 603 q 601 687 629 658 q 526 715 574 715 q 451 687 479 715 q 424 603 424 658 l 424 369 q 451 285 424 313 m 674 1064 q 651 1042 674 1042 l 457 1042 q 400 1056 415 1042 l 181 1236 q 174 1253 174 1243 q 200 1281 174 1281 l 474 1281 q 525 1254 501 1281 l 667 1082 q 674 1064 674 1075 z "},"Ó":{"ha":1053,"x_min":63,"x_max":990,"o":"m 190 883 q 253 935 190 883 q 526 986 317 986 q 863 883 736 986 q 990 592 990 779 l 990 375 q 865 85 990 185 q 526 -14 739 -14 q 188 85 314 -14 q 63 375 63 185 l 63 592 q 190 883 63 781 m 451 285 q 465 271 451 285 q 526 257 479 257 q 601 285 574 257 q 629 369 629 313 l 629 603 q 601 687 629 658 q 526 715 574 715 q 451 687 479 715 q 424 603 424 658 l 424 369 q 451 285 424 313 m 596 1281 l 869 1281 q 896 1253 896 1281 q 889 1236 896 1243 l 669 1056 q 613 1042 654 1042 l 418 1042 q 396 1064 396 1042 q 403 1082 396 1075 l 544 1254 q 596 1281 568 1281 z "},"Ô":{"ha":1053,"x_min":63,"x_max":990,"o":"m 190 883 q 253 935 190 883 q 526 986 317 986 q 863 883 736 986 q 990 592 990 779 l 990 375 q 865 85 990 185 q 526 -14 739 -14 q 188 85 314 -14 q 63 375 63 185 l 63 592 q 190 883 63 781 m 451 285 q 465 271 451 285 q 526 257 479 257 q 601 285 574 257 q 629 369 629 313 l 629 603 q 601 687 629 658 q 526 715 574 715 q 451 687 479 715 q 424 603 424 658 l 424 369 q 451 285 424 313 m 436 1281 l 617 1281 q 639 1276 632 1281 q 668 1254 646 1272 l 831 1082 q 838 1064 838 1075 q 815 1042 838 1042 l 717 1042 q 661 1051 690 1042 l 526 1110 l 392 1051 q 336 1042 363 1042 l 238 1042 q 215 1064 215 1042 q 222 1082 215 1075 l 385 1254 q 414 1276 407 1272 q 436 1281 421 1281 z "},"Õ":{"ha":1053,"x_min":63,"x_max":990,"o":"m 190 883 q 253 935 190 883 q 526 986 317 986 q 863 883 736 986 q 990 592 990 779 l 990 375 q 865 85 990 185 q 526 -14 739 -14 q 188 85 314 -14 q 63 375 63 185 l 63 592 q 190 883 63 781 m 451 285 q 465 271 451 285 q 526 257 479 257 q 601 285 574 257 q 629 369 629 313 l 629 603 q 601 687 629 658 q 526 715 574 715 q 451 687 479 715 q 424 603 424 658 l 424 369 q 451 285 424 313 m 782 1116 q 772 1099 782 1116 q 723 1060 763 1082 q 634 1038 683 1038 q 524 1061 585 1038 q 435 1085 463 1085 q 390 1054 408 1085 q 369 1042 383 1042 l 253 1042 q 234 1049 242 1042 q 226 1073 226 1057 q 231 1113 226 1089 q 249 1166 236 1138 q 283 1217 263 1194 q 415 1271 329 1271 q 522 1247 461 1271 q 609 1224 583 1224 q 649 1245 635 1224 q 676 1267 663 1267 l 793 1267 q 819 1240 819 1267 q 810 1181 819 1213 q 782 1116 801 1150 z "},"Ö":{"ha":1053,"x_min":63,"x_max":990,"o":"m 190 883 q 253 935 190 883 q 526 986 317 986 q 863 883 736 986 q 990 592 990 779 l 990 375 q 865 85 990 185 q 526 -14 739 -14 q 188 85 314 -14 q 63 375 63 185 l 63 592 q 190 883 63 781 m 451 285 q 465 271 451 285 q 526 257 479 257 q 601 285 574 257 q 629 369 629 313 l 629 603 q 601 687 629 658 q 526 715 574 715 q 451 687 479 715 q 424 603 424 658 l 424 369 q 451 285 424 313 m 626 1281 l 801 1281 q 824 1272 815 1281 q 833 1249 833 1263 l 833 1074 q 824 1051 833 1060 q 801 1042 815 1042 l 626 1042 q 603 1051 613 1042 q 594 1074 594 1060 l 594 1249 q 603 1272 594 1263 q 626 1281 613 1281 m 250 1281 l 425 1281 q 448 1272 439 1281 q 457 1249 457 1263 l 457 1074 q 448 1051 457 1060 q 425 1042 439 1042 l 250 1042 q 227 1051 236 1042 q 218 1074 218 1060 l 218 1249 q 227 1272 218 1263 q 250 1281 236 1281 z "},"×":{"ha":875,"x_min":56,"x_max":819,"o":"m 68 631 q 56 656 56 642 q 64 682 56 671 l 203 828 q 229 840 214 840 q 254 832 244 840 l 438 657 l 621 832 q 646 840 631 840 q 672 828 661 840 l 811 682 q 819 656 819 671 q 807 631 819 642 l 636 467 l 808 303 q 819 277 819 292 q 811 253 819 263 l 671 104 q 647 93 663 93 q 621 101 631 93 l 438 276 l 254 101 q 228 93 244 93 q 204 104 213 93 l 64 253 q 56 277 56 263 q 67 303 56 292 l 239 467 l 68 631 z "},"Ø":{"ha":1053,"x_min":0,"x_max":1053,"o":"m 526 986 q 785 932 675 986 q 949 776 896 878 l 1008 800 q 1028 804 1019 804 q 1044 796 1036 804 q 1053 775 1053 788 l 1053 625 q 1022 579 1053 590 l 990 567 l 990 375 q 865 85 990 185 q 526 -14 739 -14 q 251 44 365 -14 q 92 214 138 101 l 44 196 q 26 192 35 192 q 8 200 17 192 q 0 221 0 208 l 0 371 q 31 417 0 406 l 63 429 l 63 592 q 190 883 63 781 q 526 986 317 986 m 526 257 q 601 285 574 257 q 629 369 629 313 l 629 425 l 425 344 q 526 257 435 257 m 526 715 q 451 687 479 715 q 424 603 424 658 l 424 571 l 622 649 q 526 715 601 715 z "},"Ù":{"ha":1053,"x_min":76,"x_max":976,"o":"m 667 972 l 939 972 q 965 961 954 972 q 976 935 976 950 l 976 376 q 856 84 976 182 q 527 -14 735 -14 q 198 83 319 -14 q 76 376 76 181 l 76 935 q 88 961 76 950 q 114 972 99 972 l 386 972 q 413 961 401 972 q 424 935 424 950 l 424 372 q 526 265 424 265 q 629 372 629 265 l 629 935 q 640 961 629 950 q 667 972 651 972 m 665 1064 q 643 1042 665 1042 l 449 1042 q 392 1056 407 1042 l 172 1236 q 165 1253 165 1243 q 192 1281 165 1281 l 465 1281 q 517 1254 493 1281 l 658 1082 q 665 1064 665 1075 z "},"Ú":{"ha":1053,"x_min":76,"x_max":976,"o":"m 667 972 l 939 972 q 965 961 954 972 q 976 935 976 950 l 976 376 q 856 84 976 182 q 527 -14 735 -14 q 198 83 319 -14 q 76 376 76 181 l 76 935 q 88 961 76 950 q 114 972 99 972 l 386 972 q 413 961 401 972 q 424 935 424 950 l 424 372 q 526 265 424 265 q 629 372 629 265 l 629 935 q 640 961 629 950 q 667 972 651 972 m 603 1281 l 876 1281 q 903 1253 903 1281 q 896 1236 903 1243 l 676 1056 q 619 1042 661 1042 l 425 1042 q 403 1064 403 1042 q 410 1082 403 1075 l 551 1254 q 603 1281 575 1281 z "},"Û":{"ha":1053,"x_min":76,"x_max":976,"o":"m 667 972 l 939 972 q 965 961 954 972 q 976 935 976 950 l 976 376 q 856 84 976 182 q 527 -14 735 -14 q 198 83 319 -14 q 76 376 76 181 l 76 935 q 88 961 76 950 q 114 972 99 972 l 386 972 q 413 961 401 972 q 424 935 424 950 l 424 372 q 526 265 424 265 q 629 372 629 265 l 629 935 q 640 961 629 950 q 667 972 651 972 m 436 1281 l 617 1281 q 639 1276 632 1281 q 668 1254 646 1272 l 831 1082 q 838 1064 838 1075 q 815 1042 838 1042 l 717 1042 q 661 1051 690 1042 l 526 1110 l 392 1051 q 336 1042 363 1042 l 238 1042 q 215 1064 215 1042 q 222 1082 215 1075 l 385 1254 q 414 1276 407 1272 q 436 1281 421 1281 z "},"Ü":{"ha":1053,"x_min":76,"x_max":976,"o":"m 667 972 l 939 972 q 965 961 954 972 q 976 935 976 950 l 976 376 q 856 84 976 182 q 527 -14 735 -14 q 198 83 319 -14 q 76 376 76 181 l 76 935 q 88 961 76 950 q 114 972 99 972 l 386 972 q 413 961 401 972 q 424 935 424 950 l 424 372 q 526 265 424 265 q 629 372 629 265 l 629 935 q 640 961 629 950 q 667 972 651 972 m 625 1281 l 800 1281 q 823 1272 814 1281 q 832 1249 832 1263 l 832 1074 q 823 1051 832 1060 q 800 1042 814 1042 l 625 1042 q 602 1051 611 1042 q 593 1074 593 1060 l 593 1249 q 602 1272 593 1263 q 625 1281 611 1281 m 249 1281 l 424 1281 q 447 1272 438 1281 q 456 1249 456 1263 l 456 1074 q 447 1051 456 1060 q 424 1042 438 1042 l 249 1042 q 226 1051 235 1042 q 217 1074 217 1060 l 217 1249 q 226 1272 217 1263 q 249 1281 235 1281 z "},"Ý":{"ha":1006,"x_min":14,"x_max":992,"o":"m 639 0 l 367 0 q 340 11 351 0 q 329 38 329 22 l 329 311 l 17 929 q 14 944 14 935 q 23 963 14 954 q 44 972 32 972 l 306 972 q 364 938 347 972 l 503 658 l 642 938 q 700 972 658 972 l 961 972 q 983 963 974 972 q 992 944 992 954 q 989 929 992 935 l 676 311 l 676 38 q 665 11 676 22 q 639 0 654 0 m 557 1272 l 817 1272 q 843 1244 843 1272 q 836 1228 843 1235 l 617 1054 q 560 1040 601 1040 l 379 1040 q 357 1063 357 1040 q 364 1081 357 1074 l 506 1246 q 557 1272 529 1272 z "},"Þ":{"ha":1008,"x_min":90,"x_max":967,"o":"m 128 972 l 414 972 q 440 961 429 972 q 451 935 451 950 l 451 835 l 542 835 q 854 749 742 835 q 967 494 967 663 q 855 246 967 326 q 542 165 743 165 l 451 165 l 451 38 q 440 11 451 22 q 414 0 429 0 l 128 0 q 101 11 113 0 q 90 38 90 22 l 90 935 q 101 961 90 950 q 128 972 113 972 m 444 576 l 444 422 l 542 422 q 586 441 567 422 q 606 494 606 460 q 590 553 606 529 q 542 576 575 576 l 444 576 z "},"ß":{"ha":958,"x_min":63,"x_max":910,"o":"m 385 38 q 374 11 385 22 q 347 0 363 0 l 100 0 q 74 11 85 0 q 63 38 63 22 l 63 628 q 165 887 63 789 q 472 986 267 985 q 770 902 672 985 q 868 702 868 819 q 786 521 868 585 q 910 300 910 458 q 801 92 910 185 q 521 0 693 0 l 472 0 q 439 10 451 0 q 426 38 426 21 l 426 196 q 439 224 426 213 q 463 234 451 235 q 476 233 475 233 q 542 256 515 233 q 568 315 568 278 q 475 397 568 397 q 463 397 474 397 q 439 408 451 397 q 426 435 426 418 l 426 571 q 469 608 426 607 q 536 628 513 610 q 560 678 560 647 q 536 730 560 710 q 472 751 513 750 q 385 638 385 749 l 385 38 z "},"à":{"ha":896,"x_min":49,"x_max":833,"o":"m 49 207 q 353 447 49 394 l 500 471 q 493 527 500 513 q 460 542 486 542 q 410 519 435 542 q 363 497 385 497 l 126 497 q 96 527 96 497 q 117 591 96 557 q 180 658 139 625 q 295 714 221 692 q 461 736 369 736 q 740 658 647 736 q 833 436 833 581 l 833 38 q 822 11 833 22 q 796 0 811 0 l 553 0 q 526 11 538 0 q 515 38 515 22 l 515 76 q 325 -14 450 -14 q 124 49 200 -14 q 49 207 49 113 m 414 192 q 504 300 504 192 l 422 282 q 361 231 361 268 q 375 203 361 214 q 414 192 389 192 m 606 813 q 583 790 606 790 l 403 790 q 346 804 361 790 l 126 978 q 119 994 119 985 q 146 1022 119 1022 l 406 1022 q 457 996 433 1022 l 599 831 q 606 813 606 824 z "},"á":{"ha":896,"x_min":49,"x_max":833,"o":"m 49 207 q 353 447 49 394 l 500 471 q 493 527 500 513 q 460 542 486 542 q 410 519 435 542 q 363 497 385 497 l 126 497 q 96 527 96 497 q 117 591 96 557 q 180 658 139 625 q 295 714 221 692 q 461 736 369 736 q 740 658 647 736 q 833 436 833 581 l 833 38 q 822 11 833 22 q 796 0 811 0 l 553 0 q 526 11 538 0 q 515 38 515 22 l 515 76 q 325 -14 450 -14 q 124 49 200 -14 q 49 207 49 113 m 414 192 q 504 300 504 192 l 422 282 q 361 231 361 268 q 375 203 361 214 q 414 192 389 192 m 486 1022 l 746 1022 q 772 994 772 1022 q 765 978 772 985 l 546 804 q 489 790 531 790 l 308 790 q 286 813 286 790 q 293 831 286 824 l 435 996 q 486 1022 458 1022 z "},"â":{"ha":896,"x_min":49,"x_max":833,"o":"m 49 207 q 353 447 49 394 l 500 471 q 493 527 500 513 q 460 542 486 542 q 410 519 435 542 q 363 497 385 497 l 126 497 q 96 527 96 497 q 117 591 96 557 q 180 658 139 625 q 295 714 221 692 q 461 736 369 736 q 740 658 647 736 q 833 436 833 581 l 833 38 q 822 11 833 22 q 796 0 811 0 l 553 0 q 526 11 538 0 q 515 38 515 22 l 515 76 q 325 -14 450 -14 q 124 49 200 -14 q 49 207 49 113 m 414 192 q 504 300 504 192 l 422 282 q 361 231 361 268 q 375 203 361 214 q 414 192 389 192 m 369 1022 l 550 1022 q 575 1018 567 1022 q 601 996 583 1014 l 757 831 q 764 813 764 824 q 742 790 764 790 l 643 790 q 588 800 607 790 l 460 858 l 332 800 q 276 790 313 790 l 178 790 q 156 813 156 790 q 163 831 156 824 l 318 996 q 344 1018 336 1014 q 369 1022 353 1022 z "},"ã":{"ha":896,"x_min":49,"x_max":833,"o":"m 49 207 q 353 447 49 394 l 500 471 q 493 527 500 513 q 460 542 486 542 q 410 519 435 542 q 363 497 385 497 l 126 497 q 96 527 96 497 q 117 591 96 557 q 180 658 139 625 q 295 714 221 692 q 461 736 369 736 q 740 658 647 736 q 833 436 833 581 l 833 38 q 822 11 833 22 q 796 0 811 0 l 553 0 q 526 11 538 0 q 515 38 515 22 l 515 76 q 325 -14 450 -14 q 124 49 200 -14 q 49 207 49 113 m 414 192 q 504 300 504 192 l 422 282 q 361 231 361 268 q 375 203 361 214 q 414 192 389 192 m 669 825 q 573 789 625 789 q 469 815 521 789 q 402 840 417 840 q 379 838 388 840 q 366 835 371 836 q 357 828 361 833 q 350 822 353 824 q 342 806 342 813 q 321 793 335 793 l 204 793 q 185 801 193 793 q 178 827 178 808 q 188 878 178 846 q 217 944 197 910 q 274 1000 236 978 q 359 1022 311 1022 q 457 997 407 1022 q 521 971 507 971 q 544 973 535 971 q 558 981 553 975 q 576 1002 567 986 q 600 1018 586 1018 l 717 1018 q 743 992 743 1018 q 669 825 743 886 z "},"ä":{"ha":896,"x_min":49,"x_max":833,"o":"m 49 207 q 353 447 49 394 l 500 471 q 493 527 500 513 q 460 542 486 542 q 410 519 435 542 q 363 497 385 497 l 126 497 q 96 527 96 497 q 117 591 96 557 q 180 658 139 625 q 295 714 221 692 q 461 736 369 736 q 740 658 647 736 q 833 436 833 581 l 833 38 q 822 11 833 22 q 796 0 811 0 l 553 0 q 526 11 538 0 q 515 38 515 22 l 515 76 q 325 -14 450 -14 q 124 49 200 -14 q 49 207 49 113 m 414 192 q 504 300 504 192 l 422 282 q 361 231 361 268 q 375 203 361 214 q 414 192 389 192 m 215 1022 l 383 1022 q 406 1013 397 1022 q 415 990 415 1004 l 415 822 q 406 799 415 808 q 383 790 397 790 l 215 790 q 192 799 201 790 q 183 822 183 808 l 183 990 q 192 1013 183 1004 q 215 1022 201 1022 m 543 1022 l 711 1022 q 734 1013 725 1022 q 743 990 743 1004 l 743 822 q 734 799 743 808 q 711 790 725 790 l 543 790 q 520 799 529 790 q 511 822 511 808 l 511 990 q 520 1013 511 1004 q 543 1022 529 1022 z "},"å":{"ha":896,"x_min":49,"x_max":833,"o":"m 49 207 q 353 447 49 394 l 500 471 q 493 527 500 513 q 460 542 486 542 q 410 519 435 542 q 363 497 385 497 l 126 497 q 96 527 96 497 q 117 591 96 557 q 180 658 139 625 q 295 714 221 692 q 461 736 369 736 q 740 658 647 736 q 833 436 833 581 l 833 38 q 822 11 833 22 q 796 0 811 0 l 553 0 q 526 11 538 0 q 515 38 515 22 l 515 76 q 325 -14 450 -14 q 124 49 200 -14 q 49 207 49 113 m 414 192 q 504 300 504 192 l 422 282 q 361 231 361 268 q 375 203 361 214 q 414 192 389 192 m 553 814 q 533 796 553 814 q 440 778 513 778 q 328 814 368 778 q 288 908 288 850 q 328 1001 288 965 q 441 1038 369 1038 q 553 1001 513 1038 q 594 908 594 965 q 553 814 594 850 m 401 908 q 440 865 401 865 q 479 908 479 865 q 440 950 479 950 q 413 939 424 950 q 401 908 401 928 z "},"æ":{"ha":1336,"x_min":49,"x_max":1288,"o":"m 49 207 q 353 447 49 394 l 500 471 q 493 527 500 513 q 460 542 486 542 q 410 519 435 542 q 363 497 385 497 l 126 497 q 96 527 96 497 q 117 591 96 557 q 180 658 139 625 q 295 714 221 692 q 461 736 369 736 q 679 685 608 736 q 892 736 775 736 q 1187 629 1086 736 q 1288 358 1288 522 l 1288 317 q 1276 290 1288 301 q 1250 279 1265 279 l 836 279 l 836 272 q 890 188 836 188 q 928 210 906 188 q 976 232 950 232 l 1239 232 q 1269 201 1269 232 q 1167 60 1269 133 q 893 -14 1065 -14 q 619 71 721 -14 q 346 -14 519 -14 q 128 48 208 -14 q 49 207 49 110 m 414 192 q 504 300 504 192 l 422 282 q 361 231 361 268 q 375 203 361 214 q 414 192 389 192 m 947 458 q 892 542 947 542 q 836 458 836 542 l 836 453 l 947 453 l 947 458 z "},"ç":{"ha":886,"x_min":49,"x_max":844,"o":"m 49 329 l 49 393 q 156 645 49 554 q 438 736 264 736 q 624 705 540 736 q 752 628 707 674 q 821 540 797 583 q 844 474 844 497 q 833 440 844 451 q 807 429 822 429 l 536 429 q 496 457 510 429 q 444 499 476 499 q 389 410 389 499 l 389 313 q 401 244 389 265 q 440 224 414 224 q 476 233 467 224 q 497 267 486 242 q 536 293 507 293 l 807 293 q 833 282 822 293 q 844 250 844 271 q 824 189 844 229 q 760 102 803 149 q 636 22 718 56 q 451 -12 554 -11 l 442 -54 q 503 -46 457 -46 q 585 -83 550 -46 q 619 -172 619 -119 q 536 -304 619 -272 q 453 -319 494 -319 l 367 -303 q 283 -212 283 -269 q 301 -194 283 -194 l 386 -194 q 422 -206 403 -194 q 458 -217 440 -217 q 499 -183 499 -217 q 486 -159 499 -169 q 453 -149 474 -149 q 419 -157 433 -149 q 393 -165 406 -165 l 332 -165 q 313 -146 313 -165 q 314 -129 313 -140 l 338 -4 q 127 106 206 19 q 49 329 49 193 z "},"è":{"ha":889,"x_min":49,"x_max":840,"o":"m 803 279 l 389 279 l 389 272 q 443 188 389 188 q 481 210 458 188 q 529 232 503 232 l 792 232 q 822 201 822 232 q 720 60 822 133 q 444 -14 618 -14 q 159 77 269 -14 q 49 328 49 168 l 49 394 q 161 641 49 546 q 456 736 274 736 q 740 629 639 736 q 840 358 840 522 l 840 317 q 829 290 840 301 q 803 279 818 279 m 500 458 q 444 542 500 542 q 389 458 389 542 l 389 453 l 500 453 l 500 458 m 589 813 q 567 790 589 790 l 386 790 q 329 804 344 790 l 110 978 q 103 994 103 985 q 129 1022 103 1022 l 389 1022 q 440 996 417 1022 l 582 831 q 589 813 589 824 z "},"é":{"ha":889,"x_min":49,"x_max":840,"o":"m 803 279 l 389 279 l 389 272 q 443 188 389 188 q 481 210 458 188 q 529 232 503 232 l 792 232 q 822 201 822 232 q 720 60 822 133 q 444 -14 618 -14 q 159 77 269 -14 q 49 328 49 168 l 49 394 q 161 641 49 546 q 456 736 274 736 q 740 629 639 736 q 840 358 840 522 l 840 317 q 829 290 840 301 q 803 279 818 279 m 500 458 q 444 542 500 542 q 389 458 389 542 l 389 453 l 500 453 l 500 458 m 515 1022 l 775 1022 q 801 994 801 1022 q 794 978 801 985 l 575 804 q 518 790 560 790 l 338 790 q 315 813 315 790 q 322 831 315 824 l 464 996 q 515 1022 488 1022 z "},"ê":{"ha":889,"x_min":49,"x_max":840,"o":"m 803 279 l 389 279 l 389 272 q 443 188 389 188 q 481 210 458 188 q 529 232 503 232 l 792 232 q 822 201 822 232 q 720 60 822 133 q 444 -14 618 -14 q 159 77 269 -14 q 49 328 49 168 l 49 394 q 161 641 49 546 q 456 736 274 736 q 740 629 639 736 q 840 358 840 522 l 840 317 q 829 290 840 301 q 803 279 818 279 m 500 458 q 444 542 500 542 q 389 458 389 542 l 389 453 l 500 453 l 500 458 m 356 1022 l 536 1022 q 561 1018 553 1022 q 588 996 569 1014 l 743 831 q 750 813 750 824 q 728 790 750 790 l 629 790 q 574 800 593 790 l 446 858 l 318 800 q 263 790 299 790 l 164 790 q 142 813 142 790 q 149 831 142 824 l 304 996 q 331 1018 322 1014 q 356 1022 339 1022 z "},"ë":{"ha":889,"x_min":49,"x_max":840,"o":"m 803 279 l 389 279 l 389 272 q 443 188 389 188 q 481 210 458 188 q 529 232 503 232 l 792 232 q 822 201 822 232 q 720 60 822 133 q 444 -14 618 -14 q 159 77 269 -14 q 49 328 49 168 l 49 394 q 161 641 49 546 q 456 736 274 736 q 740 629 639 736 q 840 358 840 522 l 840 317 q 829 290 840 301 q 803 279 818 279 m 500 458 q 444 542 500 542 q 389 458 389 542 l 389 453 l 500 453 l 500 458 m 196 1022 l 364 1022 q 387 1013 378 1022 q 396 990 396 1004 l 396 822 q 387 799 396 808 q 364 790 378 790 l 196 790 q 173 799 182 790 q 164 822 164 808 l 164 990 q 173 1013 164 1004 q 196 1022 182 1022 m 524 1022 l 692 1022 q 715 1013 706 1022 q 724 990 724 1004 l 724 822 q 715 799 724 808 q 692 790 706 790 l 524 790 q 501 799 510 790 q 492 822 492 808 l 492 990 q 501 1013 492 1004 q 524 1022 510 1022 z "},"ì":{"ha":463,"x_min":-139,"x_max":393,"o":"m 356 0 l 107 0 q 81 11 92 0 q 69 38 69 22 l 69 685 q 81 711 69 700 q 107 722 92 722 l 356 722 q 382 711 371 722 q 393 685 393 700 l 393 38 q 382 11 393 22 q 356 0 371 0 m 347 813 q 325 790 347 790 l 144 790 q 88 804 103 790 l -132 978 q -139 994 -139 985 q -112 1022 -139 1022 l 147 1022 q 199 996 175 1022 l 340 831 q 347 813 347 824 z "},"í":{"ha":463,"x_min":69,"x_max":586,"o":"m 356 0 l 107 0 q 81 11 92 0 q 69 38 69 22 l 69 685 q 81 711 69 700 q 107 722 92 722 l 356 722 q 382 711 371 722 q 393 685 393 700 l 393 38 q 382 11 393 22 q 356 0 371 0 m 300 1022 l 560 1022 q 586 994 586 1022 q 579 978 586 985 l 360 804 q 303 790 344 790 l 122 790 q 100 813 100 790 q 107 831 100 824 l 249 996 q 300 1022 272 1022 z "},"î":{"ha":463,"x_min":-74,"x_max":535,"o":"m 356 0 l 107 0 q 81 11 92 0 q 69 38 69 22 l 69 685 q 81 711 69 700 q 107 722 92 722 l 356 722 q 382 711 371 722 q 393 685 393 700 l 393 38 q 382 11 393 22 q 356 0 371 0 m 140 1022 l 321 1022 q 346 1018 338 1022 q 372 996 354 1014 l 528 831 q 535 813 535 824 q 513 790 535 790 l 414 790 q 358 800 378 790 l 231 858 l 103 800 q 47 790 83 790 l -51 790 q -74 813 -74 790 q -67 831 -74 824 l 89 996 q 115 1018 107 1014 q 140 1022 124 1022 z "},"ï":{"ha":463,"x_min":-49,"x_max":511,"o":"m 356 0 l 107 0 q 81 11 92 0 q 69 38 69 22 l 69 685 q 81 711 69 700 q 107 722 92 722 l 356 722 q 382 711 371 722 q 393 685 393 700 l 393 38 q 382 11 393 22 q 356 0 371 0 m -17 1022 l 151 1022 q 174 1013 165 1022 q 183 990 183 1004 l 183 822 q 174 799 183 808 q 151 790 165 790 l -17 790 q -40 799 -31 790 q -49 822 -49 808 l -49 990 q -40 1013 -49 1004 q -17 1022 -31 1022 m 311 1022 l 479 1022 q 502 1013 493 1022 q 511 990 511 1004 l 511 822 q 502 799 511 808 q 479 790 493 790 l 311 790 q 288 799 297 790 q 279 822 279 808 l 279 990 q 288 1013 279 1004 q 311 1022 297 1022 z "},"ð":{"ha":910,"x_min":49,"x_max":854,"o":"m 229 915 q 211 941 211 928 q 220 963 211 954 q 242 972 229 972 l 503 972 q 571 958 550 972 q 622 918 592 943 l 624 918 l 747 967 q 767 971 758 971 q 783 963 775 971 q 792 942 792 954 l 792 903 q 761 857 792 868 l 707 836 q 854 400 854 661 l 854 314 q 746 70 854 154 q 451 -14 638 -14 q 157 70 265 -14 q 49 314 49 154 l 49 325 q 161 568 49 483 q 451 653 274 653 l 471 653 q 429 728 454 690 l 265 664 q 246 660 254 660 q 229 668 238 660 q 221 689 221 676 l 221 728 q 251 774 221 763 l 354 814 q 229 915 304 864 m 514 303 l 514 351 q 498 413 513 394 q 450 431 483 431 q 403 410 417 431 q 389 336 389 389 l 389 303 q 403 228 389 247 q 451 208 417 208 q 500 229 486 208 q 514 303 514 250 z "},"ñ":{"ha":950,"x_min":69,"x_max":888,"o":"m 888 421 l 888 38 q 876 11 888 22 q 850 0 865 0 l 585 0 q 558 11 569 0 q 547 38 547 22 l 547 411 q 478 488 547 488 q 408 411 408 488 l 408 38 q 397 11 408 22 q 371 0 386 0 l 107 0 q 81 11 92 0 q 69 38 69 22 l 69 685 q 81 711 69 700 q 107 722 92 722 l 350 722 q 376 711 365 722 q 388 685 388 700 l 388 639 q 485 709 424 682 q 618 736 547 736 q 810 656 732 736 q 888 421 888 576 m 683 825 q 588 789 639 789 q 483 815 536 789 q 416 840 431 840 q 393 838 401 840 q 380 835 385 836 q 371 828 375 833 q 364 822 367 824 q 356 806 356 813 q 335 793 349 793 l 218 793 q 199 801 207 793 q 192 827 192 808 q 201 878 192 846 q 231 944 211 910 q 288 1000 250 978 q 373 1022 325 1022 q 471 997 421 1022 q 535 971 521 971 q 558 973 549 971 q 572 981 567 975 q 590 1002 581 986 q 614 1018 600 1018 l 731 1018 q 757 992 757 1018 q 683 825 757 886 z "},"ò":{"ha":903,"x_min":49,"x_max":854,"o":"m 49 314 l 49 408 q 161 651 49 567 q 451 736 274 736 q 742 651 629 736 q 854 408 854 567 l 854 314 q 746 70 854 154 q 451 -14 638 -14 q 157 70 265 -14 q 49 314 49 154 m 514 303 l 514 419 q 500 493 514 472 q 451 514 486 514 q 403 493 417 514 q 389 419 389 472 l 389 303 q 403 228 389 247 q 451 208 417 208 q 500 229 486 208 q 514 303 514 250 m 590 813 q 568 790 590 790 l 388 790 q 331 804 346 790 l 111 978 q 104 994 104 985 q 131 1022 104 1022 l 390 1022 q 442 996 418 1022 l 583 831 q 590 813 590 824 z "},"ó":{"ha":903,"x_min":49,"x_max":854,"o":"m 49 408 q 161 651 49 567 q 451 736 274 736 q 742 651 629 736 q 854 408 854 567 l 854 314 q 746 70 854 154 q 451 -14 638 -14 q 157 70 265 -14 q 49 314 49 154 l 49 408 m 514 419 q 500 493 514 472 q 451 514 486 514 q 403 493 417 514 q 389 419 389 472 l 389 303 q 403 228 389 247 q 451 208 417 208 q 500 229 486 208 q 514 303 514 250 l 514 419 m 526 1022 l 786 1022 q 813 994 813 1022 q 806 978 813 985 l 586 804 q 529 790 571 790 l 349 790 q 326 813 326 790 q 333 831 326 824 l 475 996 q 526 1022 499 1022 z "},"ô":{"ha":903,"x_min":49,"x_max":854,"o":"m 49 314 l 49 408 q 161 651 49 567 q 451 736 274 736 q 742 651 629 736 q 854 408 854 567 l 854 314 q 746 70 854 154 q 451 -14 638 -14 q 157 70 265 -14 q 49 314 49 154 m 514 303 l 514 419 q 500 493 514 472 q 451 514 486 514 q 403 493 417 514 q 389 419 389 472 l 389 303 q 403 228 389 247 q 451 208 417 208 q 500 229 486 208 q 514 303 514 250 m 361 1022 l 542 1022 q 567 1018 558 1022 q 593 996 575 1014 l 749 831 q 756 813 756 824 q 733 790 756 790 l 635 790 q 579 800 599 790 l 451 858 l 324 800 q 268 790 304 790 l 169 790 q 147 813 147 790 q 154 831 147 824 l 310 996 q 336 1018 328 1014 q 361 1022 344 1022 z "},"õ":{"ha":903,"x_min":49,"x_max":854,"o":"m 49 408 q 161 651 49 567 q 451 736 274 736 q 742 651 629 736 q 854 408 854 567 l 854 314 q 746 70 854 154 q 451 -14 638 -14 q 157 70 265 -14 q 49 314 49 154 l 49 408 m 514 419 q 500 493 514 472 q 451 514 486 514 q 403 493 417 514 q 389 419 389 472 l 389 303 q 403 228 389 247 q 451 208 417 208 q 500 229 486 208 q 514 303 514 250 l 514 419 m 658 825 q 563 789 615 789 q 458 815 511 789 q 392 840 406 840 q 369 838 378 840 q 356 835 361 836 q 347 828 351 833 q 342 822 343 824 q 332 806 332 813 q 311 793 325 793 l 194 793 q 176 801 183 793 q 168 827 168 808 q 178 878 168 846 q 207 944 188 910 q 264 1000 226 978 q 349 1022 301 1022 q 447 997 397 1022 q 511 971 497 971 q 534 973 525 971 q 550 981 543 975 q 567 1002 557 986 q 590 1018 576 1018 l 707 1018 q 733 992 733 1018 q 658 825 733 886 z "},"ö":{"ha":903,"x_min":49,"x_max":854,"o":"m 49 408 q 161 651 49 567 q 451 736 274 736 q 742 651 629 736 q 854 408 854 567 l 854 314 q 746 70 854 154 q 451 -14 638 -14 q 157 70 265 -14 q 49 314 49 154 l 49 408 m 514 419 q 500 493 514 472 q 451 514 486 514 q 403 493 417 514 q 389 419 389 472 l 389 303 q 403 228 389 247 q 451 208 417 208 q 500 229 486 208 q 514 303 514 250 l 514 419 m 204 1022 l 372 1022 q 395 1013 386 1022 q 404 990 404 1004 l 404 822 q 395 799 404 808 q 372 790 386 790 l 204 790 q 181 799 190 790 q 172 822 172 808 l 172 990 q 181 1013 172 1004 q 204 1022 190 1022 m 532 1022 l 700 1022 q 723 1013 714 1022 q 732 990 732 1004 l 732 822 q 723 799 732 808 q 700 790 714 790 l 532 790 q 509 799 518 790 q 500 822 500 808 l 500 990 q 509 1013 500 1004 q 532 1022 518 1022 z "},"÷":{"ha":843,"x_min":56,"x_max":788,"o":"m 93 590 l 750 590 q 776 579 765 590 q 788 553 788 568 l 788 383 q 776 357 788 368 q 750 346 765 346 l 93 346 q 67 357 78 346 q 56 383 56 368 l 56 553 q 67 579 56 568 q 93 590 78 590 m 333 883 l 506 883 q 532 872 521 883 q 543 846 543 861 l 543 688 q 532 661 543 672 q 506 650 521 650 l 333 650 q 307 661 318 650 q 296 688 296 672 l 296 846 q 307 872 296 861 q 333 883 318 883 m 333 286 l 506 286 q 532 275 521 286 q 543 249 543 264 l 543 90 q 532 64 543 75 q 506 53 521 53 l 333 53 q 307 64 318 53 q 296 90 296 75 l 296 249 q 307 275 296 264 q 333 286 318 286 z "},"ø":{"ha":903,"x_min":0,"x_max":903,"o":"m 853 438 l 854 408 l 854 314 q 746 70 854 154 q 451 -14 638 -14 q 92 143 188 -14 l 44 125 q 25 121 33 121 q 8 129 17 121 q 0 150 0 138 l 0 244 q 31 290 0 279 l 49 297 l 49 408 q 161 651 49 567 q 451 736 274 736 q 801 589 696 736 l 858 611 q 878 615 869 615 q 894 607 886 615 q 903 586 903 599 l 903 492 q 872 446 903 457 l 853 438 m 392 260 q 410 219 396 231 q 455 208 424 208 q 500 229 486 208 q 514 303 514 250 l 514 307 l 392 260 m 508 475 q 458 514 497 514 q 404 495 418 514 q 389 429 390 476 l 508 475 z "},"ù":{"ha":950,"x_min":63,"x_max":881,"o":"m 63 301 l 63 685 q 74 711 63 700 q 100 722 85 722 l 365 722 q 392 711 381 722 q 403 685 403 700 l 403 311 q 472 235 403 235 q 542 311 542 235 l 542 685 q 553 711 542 700 q 579 722 564 722 l 843 722 q 869 711 858 722 q 881 685 881 700 l 881 38 q 869 11 881 22 q 843 0 858 0 l 600 0 q 574 11 585 0 q 563 38 563 22 l 563 83 q 332 -14 497 -14 q 140 66 218 -14 q 63 301 63 146 m 606 813 q 583 790 606 790 l 403 790 q 346 804 361 790 l 126 978 q 119 994 119 985 q 146 1022 119 1022 l 406 1022 q 457 996 433 1022 l 599 831 q 606 813 606 824 z "},"ú":{"ha":950,"x_min":63,"x_max":881,"o":"m 63 301 l 63 685 q 74 711 63 700 q 100 722 85 722 l 365 722 q 392 711 381 722 q 403 685 403 700 l 403 311 q 472 235 403 235 q 542 311 542 235 l 542 685 q 553 711 542 700 q 579 722 564 722 l 843 722 q 869 711 858 722 q 881 685 881 700 l 881 38 q 869 11 881 22 q 843 0 858 0 l 600 0 q 574 11 585 0 q 563 38 563 22 l 563 83 q 332 -14 497 -14 q 140 66 218 -14 q 63 301 63 146 m 556 1022 l 815 1022 q 842 994 842 1022 q 835 978 842 985 l 615 804 q 558 790 600 790 l 378 790 q 356 813 356 790 q 363 831 356 824 l 504 996 q 556 1022 528 1022 z "},"û":{"ha":950,"x_min":63,"x_max":881,"o":"m 63 301 l 63 685 q 74 711 63 700 q 100 722 85 722 l 365 722 q 392 711 381 722 q 403 685 403 700 l 403 311 q 472 235 403 235 q 542 311 542 235 l 542 685 q 553 711 542 700 q 579 722 564 722 l 843 722 q 869 711 858 722 q 881 685 881 700 l 881 38 q 869 11 881 22 q 843 0 858 0 l 600 0 q 574 11 585 0 q 563 38 563 22 l 563 83 q 332 -14 497 -14 q 140 66 218 -14 q 63 301 63 146 m 382 1022 l 563 1022 q 588 1018 579 1022 q 614 996 596 1014 l 769 831 q 776 813 776 824 q 754 790 776 790 l 656 790 q 600 800 619 790 l 472 858 l 344 800 q 289 790 325 790 l 190 790 q 168 813 168 790 q 175 831 168 824 l 331 996 q 357 1018 349 1014 q 382 1022 365 1022 z "},"ü":{"ha":950,"x_min":63,"x_max":881,"o":"m 63 301 l 63 685 q 74 711 63 700 q 100 722 85 722 l 365 722 q 392 711 381 722 q 403 685 403 700 l 403 311 q 472 235 403 235 q 542 311 542 235 l 542 685 q 553 711 542 700 q 579 722 564 722 l 843 722 q 869 711 858 722 q 881 685 881 700 l 881 38 q 869 11 881 22 q 843 0 858 0 l 600 0 q 574 11 585 0 q 563 38 563 22 l 563 83 q 332 -14 497 -14 q 140 66 218 -14 q 63 301 63 146 m 224 1022 l 392 1022 q 415 1013 406 1022 q 424 990 424 1004 l 424 822 q 415 799 424 808 q 392 790 406 790 l 224 790 q 201 799 210 790 q 192 822 192 808 l 192 990 q 201 1013 192 1004 q 224 1022 210 1022 m 551 1022 l 719 1022 q 742 1013 733 1022 q 751 990 751 1004 l 751 822 q 742 799 751 808 q 719 790 733 790 l 551 790 q 528 799 538 790 q 519 822 519 808 l 519 990 q 528 1013 519 1004 q 551 1022 538 1022 z "},"ý":{"ha":892,"x_min":21,"x_max":878,"o":"m 179 -221 l 290 46 l 22 679 q 21 689 21 683 q 56 722 26 722 l 290 722 q 335 689 322 722 l 449 372 l 567 689 q 614 722 581 722 l 846 722 q 868 713 858 722 q 878 694 878 704 q 876 679 878 685 l 485 -231 q 436 -264 471 -264 l 208 -264 q 187 -256 196 -264 q 178 -235 178 -247 q 179 -221 178 -224 m 514 1022 l 774 1022 q 800 994 800 1022 q 793 978 800 985 l 574 804 q 517 790 558 790 l 336 790 q 314 813 314 790 q 321 831 314 824 l 463 996 q 514 1022 486 1022 z "},"þ":{"ha":929,"x_min":69,"x_max":881,"o":"m 881 415 l 881 306 q 797 68 881 150 q 594 -14 714 -14 q 401 51 474 -14 l 401 -226 q 390 -253 401 -242 q 364 -264 379 -264 l 107 -264 q 81 -253 92 -264 q 69 -226 69 -242 l 69 947 q 81 974 69 963 q 107 985 92 985 l 364 985 q 390 974 379 985 q 401 947 401 963 l 401 667 q 598 736 479 736 q 799 658 717 736 q 881 415 881 579 m 401 407 l 401 304 q 471 235 406 235 q 540 315 540 235 l 540 407 q 471 488 540 488 q 401 407 401 488 z "},"ÿ":{"ha":892,"x_min":21,"x_max":878,"o":"m 179 -221 l 290 46 l 22 679 q 21 689 21 683 q 56 722 26 722 l 290 722 q 335 689 322 722 l 449 372 l 567 689 q 614 722 581 722 l 846 722 q 868 713 858 722 q 878 694 878 704 q 876 679 878 685 l 485 -231 q 436 -264 471 -264 l 208 -264 q 187 -256 196 -264 q 178 -235 178 -247 q 179 -221 178 -224 m 200 1022 l 368 1022 q 391 1013 382 1022 q 400 990 400 1004 l 400 822 q 391 799 400 808 q 368 790 382 790 l 200 790 q 177 799 186 790 q 168 822 168 808 l 168 990 q 177 1013 168 1004 q 200 1022 186 1022 m 528 1022 l 696 1022 q 719 1013 710 1022 q 728 990 728 1004 l 728 822 q 719 799 728 808 q 696 790 710 790 l 528 790 q 505 799 514 790 q 496 822 496 808 l 496 990 q 505 1013 496 1004 q 528 1022 514 1022 z "},"Ā":{"ha":1090,"x_min":21,"x_max":1069,"o":"m 394 972 l 696 972 q 758 926 746 972 l 1068 40 q 1069 27 1069 36 q 1060 9 1069 18 q 1039 0 1051 0 l 782 0 q 728 35 740 0 l 694 126 l 396 126 l 363 35 q 308 0 350 0 l 51 0 q 30 9 39 0 q 21 27 21 18 q 22 40 21 36 l 332 926 q 394 972 344 972 m 467 397 l 624 397 l 544 656 l 467 397 m 283 1274 l 807 1274 q 830 1265 821 1274 q 839 1242 839 1256 l 839 1081 q 830 1058 839 1067 q 807 1049 821 1049 l 283 1049 q 260 1058 269 1049 q 251 1081 251 1067 l 251 1242 q 260 1265 251 1256 q 283 1274 269 1274 z "},"ā":{"ha":896,"x_min":49,"x_max":833,"o":"m 49 207 q 353 447 49 394 l 500 471 q 493 527 500 513 q 460 542 486 542 q 410 519 435 542 q 363 497 385 497 l 126 497 q 96 527 96 497 q 117 591 96 557 q 180 658 139 625 q 295 714 221 692 q 461 736 369 736 q 740 658 647 736 q 833 436 833 581 l 833 38 q 822 11 833 22 q 796 0 811 0 l 553 0 q 526 11 538 0 q 515 38 515 22 l 515 76 q 325 -14 450 -14 q 124 49 200 -14 q 49 207 49 113 m 414 192 q 504 300 504 192 l 422 282 q 361 231 361 268 q 375 203 361 214 q 414 192 389 192 m 231 1008 l 685 1008 q 708 999 699 1008 q 717 976 717 990 l 717 836 q 708 813 717 822 q 685 804 699 804 l 231 804 q 208 813 217 804 q 199 836 199 822 l 199 976 q 208 999 199 990 q 231 1008 217 1008 z "},"Ă":{"ha":1090,"x_min":21,"x_max":1069,"o":"m 394 972 l 696 972 q 758 926 746 972 l 1068 40 q 1069 27 1069 36 q 1060 9 1069 18 q 1039 0 1051 0 l 782 0 q 728 35 740 0 l 694 126 l 396 126 l 363 35 q 308 0 350 0 l 51 0 q 30 9 39 0 q 21 27 21 18 q 22 40 21 36 l 332 926 q 394 972 344 972 m 467 397 l 624 397 l 544 656 l 467 397 m 601 1258 q 628 1285 601 1285 l 765 1285 q 792 1258 792 1285 q 729 1101 792 1160 q 545 1042 667 1042 q 361 1101 424 1042 q 299 1258 299 1161 q 325 1285 299 1285 l 463 1285 q 489 1258 489 1285 q 545 1182 489 1182 q 601 1258 601 1182 z "},"ă":{"ha":896,"x_min":49,"x_max":833,"o":"m 49 207 q 353 447 49 394 l 500 471 q 493 527 500 513 q 460 542 486 542 q 410 519 435 542 q 363 497 385 497 l 126 497 q 96 527 96 497 q 117 591 96 557 q 180 658 139 625 q 295 714 221 692 q 461 736 369 736 q 740 658 647 736 q 833 436 833 581 l 833 38 q 822 11 833 22 q 796 0 811 0 l 553 0 q 526 11 538 0 q 515 38 515 22 l 515 76 q 325 -14 450 -14 q 124 49 200 -14 q 49 207 49 113 m 414 192 q 504 300 504 192 l 422 282 q 361 231 361 268 q 375 203 361 214 q 414 192 389 192 m 518 992 q 544 1018 518 1018 l 675 1018 q 701 992 701 1018 q 638 843 701 897 q 461 789 575 789 q 285 843 347 789 q 222 992 222 897 q 249 1018 222 1018 l 379 1018 q 406 992 406 1018 q 462 922 406 922 q 518 992 518 922 z "},"Ą":{"ha":1090,"x_min":21,"x_max":1069,"o":"m 394 972 l 696 972 q 758 926 746 972 l 1068 40 q 1069 27 1069 36 q 1060 9 1069 18 q 1039 0 1051 0 l 996 0 q 949 -23 964 -1 q 935 -70 935 -44 q 951 -117 935 -96 q 1004 -139 968 -139 l 1018 -139 q 1044 -150 1033 -139 q 1056 -176 1056 -161 l 1056 -271 q 1044 -297 1056 -286 q 1018 -308 1033 -308 l 999 -308 q 819 -242 879 -308 q 760 -69 760 -175 q 767 0 760 -35 q 728 35 736 6 l 694 126 l 396 126 l 363 35 q 308 0 350 0 l 51 0 q 30 9 39 0 q 21 27 21 18 q 22 40 21 36 l 332 926 q 394 972 344 972 m 467 397 l 624 397 l 544 656 l 467 397 z "},"ą":{"ha":896,"x_min":49,"x_max":833,"o":"m 796 -111 q 822 -122 811 -111 q 833 -149 833 -133 l 833 -229 q 822 -256 833 -244 q 796 -267 811 -267 l 776 -267 q 608 -208 665 -267 q 551 -56 551 -149 q 557 0 551 -22 l 553 0 q 526 11 538 0 q 515 38 515 22 l 515 76 q 325 -14 450 -14 q 124 49 200 -14 q 49 207 49 113 q 353 447 49 394 l 500 471 q 493 527 500 513 q 460 542 486 542 q 410 519 435 542 q 363 497 385 497 l 126 497 q 96 527 96 497 q 117 591 96 557 q 180 658 139 625 q 295 714 221 692 q 461 736 369 736 q 740 658 647 736 q 833 436 833 581 l 833 38 q 822 11 833 22 q 796 0 811 0 l 782 0 q 713 -56 713 0 q 782 -111 713 -111 l 796 -111 m 414 192 q 504 300 504 192 l 422 282 q 361 231 361 268 q 375 203 361 214 q 414 192 389 192 z "},"Ć":{"ha":1038,"x_min":63,"x_max":996,"o":"m 424 369 q 526 257 424 257 q 631 332 606 257 q 648 364 638 356 q 682 372 658 372 l 965 372 q 987 363 978 372 q 996 342 996 354 q 926 139 996 221 q 528 -14 799 -14 q 189 80 315 -14 q 63 368 63 174 l 63 604 q 192 890 63 794 q 528 986 321 986 q 926 833 799 986 q 996 631 996 751 q 987 609 996 618 q 965 600 978 600 l 682 600 q 649 608 660 600 q 631 640 639 617 q 526 715 604 715 q 424 603 424 715 l 424 369 m 560 1281 l 833 1281 q 860 1253 860 1281 q 853 1236 860 1243 l 633 1056 q 576 1042 618 1042 l 382 1042 q 360 1064 360 1042 q 367 1082 360 1075 l 508 1254 q 560 1281 532 1281 z "},"ć":{"ha":886,"x_min":49,"x_max":844,"o":"m 389 410 l 389 313 q 401 244 389 265 q 440 224 414 224 q 476 233 467 224 q 497 267 486 242 q 536 293 507 293 l 807 293 q 833 282 822 293 q 844 253 844 271 q 832 204 844 235 q 789 135 819 174 q 714 63 758 96 q 597 8 669 31 q 438 -14 525 -14 q 156 77 264 -14 q 49 329 49 168 l 49 393 q 156 645 49 554 q 438 736 264 736 q 624 705 540 736 q 752 628 707 674 q 821 540 797 583 q 844 474 844 497 q 833 440 844 451 q 807 429 822 429 l 536 429 q 496 457 510 429 q 444 499 476 499 q 389 410 389 499 m 493 1022 l 753 1022 q 779 994 779 1022 q 772 978 779 985 l 553 804 q 496 790 538 790 l 315 790 q 293 813 293 790 q 300 831 293 824 l 442 996 q 493 1022 465 1022 z "},"Ĉ":{"ha":1038,"x_min":63,"x_max":996,"o":"m 424 603 l 424 369 q 526 257 424 257 q 631 332 606 257 q 648 364 638 356 q 682 372 658 372 l 965 372 q 987 363 978 372 q 996 342 996 354 q 926 139 996 221 q 528 -14 799 -14 q 189 80 315 -14 q 63 368 63 174 l 63 604 q 192 890 63 794 q 528 986 321 986 q 926 833 799 986 q 996 631 996 751 q 987 609 996 618 q 965 600 978 600 l 682 600 q 649 608 660 600 q 631 640 639 617 q 526 715 604 715 q 424 603 424 715 m 438 1281 l 618 1281 q 640 1276 633 1281 q 669 1254 647 1272 l 832 1082 q 839 1064 839 1075 q 817 1042 839 1042 l 718 1042 q 663 1051 692 1042 l 528 1110 l 393 1051 q 338 1042 364 1042 l 239 1042 q 217 1064 217 1042 q 224 1082 217 1075 l 386 1254 q 415 1276 408 1272 q 438 1281 422 1281 z "},"ĉ":{"ha":886,"x_min":49,"x_max":844,"o":"m 389 410 l 389 313 q 401 244 389 265 q 440 224 414 224 q 476 233 467 224 q 497 267 486 242 q 536 293 507 293 l 807 293 q 833 282 822 293 q 844 253 844 271 q 832 204 844 235 q 789 135 819 174 q 714 63 758 96 q 597 8 669 31 q 438 -14 525 -14 q 156 77 264 -14 q 49 329 49 168 l 49 393 q 156 645 49 554 q 438 736 264 736 q 624 705 540 736 q 752 628 707 674 q 821 540 797 583 q 844 474 844 497 q 833 440 844 451 q 807 429 822 429 l 536 429 q 496 457 510 429 q 444 499 476 499 q 389 410 389 499 m 354 1022 l 535 1022 q 560 1018 551 1022 q 586 996 568 1014 l 742 831 q 749 813 749 824 q 726 790 749 790 l 628 790 q 572 800 592 790 l 444 858 l 317 800 q 261 790 297 790 l 163 790 q 140 813 140 790 q 147 831 140 824 l 303 996 q 329 1018 321 1014 q 354 1022 338 1022 z "},"Ċ":{"ha":1038,"x_min":63,"x_max":996,"o":"m 424 369 q 526 257 424 257 q 631 332 606 257 q 648 364 638 356 q 682 372 658 372 l 965 372 q 987 363 978 372 q 996 342 996 354 q 926 139 996 221 q 528 -14 799 -14 q 189 80 315 -14 q 63 368 63 174 l 63 604 q 192 890 63 794 q 528 986 321 986 q 926 833 799 986 q 996 631 996 751 q 987 609 996 618 q 965 600 978 600 l 682 600 q 649 608 660 600 q 631 640 639 617 q 526 715 604 715 q 424 603 424 715 l 424 369 m 429 1281 l 618 1281 q 641 1272 632 1281 q 650 1249 650 1263 l 650 1060 q 641 1037 650 1046 q 618 1028 632 1028 l 429 1028 q 406 1037 415 1028 q 397 1060 397 1046 l 397 1249 q 406 1272 397 1263 q 429 1281 415 1281 z "},"ċ":{"ha":886,"x_min":49,"x_max":844,"o":"m 389 410 l 389 313 q 401 244 389 265 q 440 224 414 224 q 476 233 467 224 q 497 267 486 242 q 536 293 507 293 l 807 293 q 833 282 822 293 q 844 253 844 271 q 832 204 844 235 q 789 135 819 174 q 714 63 758 96 q 597 8 669 31 q 438 -14 525 -14 q 156 77 264 -14 q 49 329 49 168 l 49 393 q 156 645 49 554 q 438 736 264 736 q 624 705 540 736 q 752 628 707 674 q 821 540 797 583 q 844 474 844 497 q 833 440 844 451 q 807 429 822 429 l 536 429 q 496 457 510 429 q 444 499 476 499 q 389 410 389 499 m 351 1022 l 533 1022 q 556 1013 547 1022 q 565 990 565 1004 l 565 808 q 556 785 565 794 q 533 776 547 776 l 351 776 q 328 785 338 776 q 319 808 319 794 l 319 990 q 328 1013 319 1004 q 351 1022 338 1022 z "},"Č":{"ha":1038,"x_min":63,"x_max":996,"o":"m 424 369 q 526 257 424 257 q 631 332 606 257 q 648 364 638 356 q 682 372 658 372 l 965 372 q 987 363 978 372 q 996 342 996 354 q 926 139 996 221 q 528 -14 799 -14 q 189 80 315 -14 q 63 368 63 174 l 63 604 q 192 890 63 794 q 528 986 321 986 q 926 833 799 986 q 996 631 996 751 q 987 609 996 618 q 965 600 978 600 l 682 600 q 649 608 660 600 q 631 640 639 617 q 526 715 604 715 q 424 603 424 715 l 424 369 m 615 1042 l 435 1042 q 413 1046 419 1042 q 383 1068 406 1050 l 221 1240 q 214 1258 214 1247 q 236 1281 214 1281 l 335 1281 q 390 1271 361 1281 l 525 1213 l 660 1271 q 715 1281 689 1281 l 814 1281 q 836 1258 836 1281 q 829 1240 836 1247 l 667 1068 q 638 1046 644 1050 q 615 1042 631 1042 z "},"č":{"ha":886,"x_min":49,"x_max":844,"o":"m 389 410 l 389 313 q 401 244 389 265 q 440 224 414 224 q 476 233 467 224 q 497 267 486 242 q 536 293 507 293 l 807 293 q 833 282 822 293 q 844 253 844 271 q 832 204 844 235 q 789 135 819 174 q 714 63 758 96 q 597 8 669 31 q 438 -14 525 -14 q 156 77 264 -14 q 49 329 49 168 l 49 393 q 156 645 49 554 q 438 736 264 736 q 624 705 540 736 q 752 628 707 674 q 821 540 797 583 q 844 474 844 497 q 833 440 844 451 q 807 429 822 429 l 536 429 q 496 457 510 429 q 444 499 476 499 q 389 410 389 499 m 535 792 l 354 792 q 332 796 339 792 q 303 818 325 800 l 140 990 q 133 1008 133 997 q 156 1031 133 1031 l 254 1031 q 310 1021 281 1031 l 444 963 l 579 1021 q 635 1031 608 1031 l 733 1031 q 756 1008 756 1031 q 749 990 756 997 l 586 818 q 557 796 564 800 q 535 792 550 792 z "},"Ď":{"ha":1056,"x_min":90,"x_max":993,"o":"m 128 972 l 528 972 q 862 872 731 972 q 993 590 993 771 l 993 383 q 865 97 993 194 q 529 0 738 0 l 128 0 q 101 11 113 0 q 90 38 90 22 l 90 935 q 101 961 90 950 q 128 972 113 972 m 438 701 l 438 271 l 528 271 q 603 299 575 271 q 632 383 632 328 l 632 590 q 528 701 632 701 l 438 701 m 604 1042 l 424 1042 q 401 1046 408 1042 q 372 1068 394 1050 l 210 1240 q 203 1258 203 1247 q 225 1281 203 1281 l 324 1281 q 379 1271 350 1281 l 514 1213 l 649 1271 q 704 1281 678 1281 l 803 1281 q 825 1258 825 1281 q 818 1240 825 1247 l 656 1068 q 626 1046 633 1050 q 604 1042 619 1042 z "},"ď":{"ha":1290,"x_min":49,"x_max":1290,"o":"m 49 307 l 49 417 q 132 654 49 572 q 335 736 215 736 q 528 671 456 736 l 528 949 q 539 975 528 964 q 565 986 550 986 l 822 986 q 849 975 838 986 q 860 949 860 964 l 860 38 q 849 11 860 22 q 822 0 838 0 l 586 0 q 560 11 571 0 q 549 38 549 22 l 549 79 q 344 -14 476 -14 q 131 65 213 -14 q 49 307 49 143 m 528 315 l 528 418 q 458 488 524 488 q 389 407 389 488 l 389 315 q 458 235 389 235 q 528 315 528 235 m 1107 722 l 958 722 q 932 749 932 722 q 939 769 932 756 l 1029 958 q 1088 986 1042 986 l 1268 986 q 1290 964 1290 986 q 1283 943 1290 953 l 1158 749 q 1107 722 1142 722 z "},"Đ":{"ha":1056,"x_min":0,"x_max":993,"o":"m 128 972 l 528 972 q 862 872 731 972 q 993 590 993 771 l 993 383 q 865 97 993 194 q 529 0 738 0 l 128 0 q 101 11 113 0 q 90 38 90 22 l 90 381 l 38 381 q 11 392 22 381 q 0 418 0 403 l 0 558 q 11 585 0 574 q 38 596 22 596 l 90 596 l 90 935 q 101 961 90 950 q 128 972 113 972 m 438 701 l 438 596 l 515 596 q 542 585 531 596 q 553 558 553 574 l 553 418 q 542 392 553 403 q 515 381 531 381 l 438 381 l 438 271 l 528 271 q 603 299 575 271 q 632 383 632 328 l 632 590 q 528 701 632 701 l 438 701 z "},"đ":{"ha":929,"x_min":49,"x_max":939,"o":"m 49 307 l 49 417 q 132 654 49 572 q 335 736 215 736 q 528 671 456 736 l 528 747 l 486 747 q 460 758 471 747 q 449 785 449 769 l 449 856 q 460 882 449 871 q 486 893 471 893 l 528 893 l 528 949 q 539 975 528 964 q 565 986 550 986 l 822 986 q 849 975 838 986 q 860 949 860 964 l 860 893 l 901 893 q 928 882 917 893 q 939 856 939 871 l 939 785 q 928 758 939 769 q 901 747 917 747 l 860 747 l 860 38 q 849 11 860 22 q 822 0 838 0 l 586 0 q 560 11 571 0 q 549 38 549 22 l 549 79 q 344 -14 476 -14 q 131 65 213 -14 q 49 307 49 143 m 528 315 l 528 418 q 458 488 524 488 q 389 407 389 488 l 389 315 q 458 235 389 235 q 528 315 528 235 z "},"Ē":{"ha":965,"x_min":90,"x_max":889,"o":"m 851 271 q 878 260 867 271 q 889 233 889 249 l 889 38 q 878 11 889 22 q 851 0 867 0 l 128 0 q 101 11 113 0 q 90 38 90 22 l 90 935 q 101 961 90 950 q 128 972 113 972 l 840 972 q 867 961 856 972 q 878 935 878 950 l 878 739 q 867 713 878 724 q 840 701 856 701 l 424 701 l 424 614 l 810 614 q 836 603 825 614 q 847 576 847 592 l 847 396 q 836 369 847 381 q 810 358 825 358 l 424 358 l 424 271 l 851 271 m 213 1274 l 736 1274 q 759 1265 750 1274 q 768 1242 768 1256 l 768 1081 q 759 1058 768 1067 q 736 1049 750 1049 l 213 1049 q 190 1058 199 1049 q 181 1081 181 1067 l 181 1242 q 190 1265 181 1256 q 213 1274 199 1274 z "},"ē":{"ha":889,"x_min":49,"x_max":840,"o":"m 803 279 l 389 279 l 389 272 q 443 188 389 188 q 481 210 458 188 q 529 232 503 232 l 792 232 q 822 201 822 232 q 720 60 822 133 q 444 -14 618 -14 q 159 77 269 -14 q 49 328 49 168 l 49 394 q 161 641 49 546 q 456 736 274 736 q 740 629 639 736 q 840 358 840 522 l 840 317 q 829 290 840 301 q 803 279 818 279 m 500 458 q 444 542 500 542 q 389 458 389 542 l 389 453 l 500 453 l 500 458 m 217 1008 l 671 1008 q 694 999 685 1008 q 703 976 703 990 l 703 836 q 694 813 703 822 q 671 804 685 804 l 217 804 q 194 813 203 804 q 185 836 185 822 l 185 976 q 194 999 185 990 q 217 1008 203 1008 z "},"Ĕ":{"ha":965,"x_min":90,"x_max":889,"o":"m 424 271 l 851 271 q 878 260 867 271 q 889 233 889 249 l 889 38 q 878 11 889 22 q 851 0 867 0 l 128 0 q 101 11 113 0 q 90 38 90 22 l 90 935 q 101 961 90 950 q 128 972 113 972 l 840 972 q 867 961 856 972 q 878 935 878 950 l 878 739 q 867 713 878 724 q 840 701 856 701 l 424 701 l 424 614 l 810 614 q 836 603 825 614 q 847 576 847 592 l 847 396 q 836 369 847 381 q 810 358 825 358 l 424 358 l 424 271 m 546 1258 q 572 1285 546 1285 l 710 1285 q 736 1258 736 1285 q 674 1101 736 1160 q 490 1042 611 1042 q 306 1101 368 1042 q 243 1258 243 1161 q 269 1285 243 1285 l 407 1285 q 433 1258 433 1285 q 490 1182 433 1182 q 546 1258 546 1182 z "},"ĕ":{"ha":889,"x_min":49,"x_max":840,"o":"m 803 279 l 389 279 l 389 272 q 443 188 389 188 q 481 210 458 188 q 529 232 503 232 l 792 232 q 822 201 822 232 q 720 60 822 133 q 444 -14 618 -14 q 159 77 269 -14 q 49 328 49 168 l 49 394 q 161 641 49 546 q 456 736 274 736 q 740 629 639 736 q 840 358 840 522 l 840 317 q 829 290 840 301 q 803 279 818 279 m 500 458 q 444 542 500 542 q 389 458 389 542 l 389 453 l 500 453 l 500 458 m 500 992 q 526 1018 500 1018 l 657 1018 q 683 992 683 1018 q 620 843 683 897 q 443 789 557 789 q 267 843 329 789 q 204 992 204 897 q 231 1018 204 1018 l 361 1018 q 388 992 388 1018 q 444 922 388 922 q 500 992 500 922 z "},"Ė":{"ha":965,"x_min":90,"x_max":889,"o":"m 851 271 q 878 260 867 271 q 889 233 889 249 l 889 38 q 878 11 889 22 q 851 0 867 0 l 128 0 q 101 11 113 0 q 90 38 90 22 l 90 935 q 101 961 90 950 q 128 972 113 972 l 840 972 q 867 961 856 972 q 878 935 878 950 l 878 739 q 867 713 878 724 q 840 701 856 701 l 424 701 l 424 614 l 810 614 q 836 603 825 614 q 847 576 847 592 l 847 396 q 836 369 847 381 q 810 358 825 358 l 424 358 l 424 271 l 851 271 m 390 1281 l 579 1281 q 602 1272 593 1281 q 611 1249 611 1263 l 611 1060 q 602 1037 611 1046 q 579 1028 593 1028 l 390 1028 q 367 1037 376 1028 q 358 1060 358 1046 l 358 1249 q 367 1272 358 1263 q 390 1281 376 1281 z "},"ė":{"ha":889,"x_min":49,"x_max":840,"o":"m 803 279 l 389 279 l 389 272 q 443 188 389 188 q 481 210 458 188 q 529 232 503 232 l 792 232 q 822 201 822 232 q 720 60 822 133 q 444 -14 618 -14 q 159 77 269 -14 q 49 328 49 168 l 49 394 q 161 641 49 546 q 456 736 274 736 q 740 629 639 736 q 840 358 840 522 l 840 317 q 829 290 840 301 q 803 279 818 279 m 500 458 q 444 542 500 542 q 389 458 389 542 l 389 453 l 500 453 l 500 458 m 354 1022 l 536 1022 q 559 1013 550 1022 q 568 990 568 1004 l 568 808 q 559 785 568 794 q 536 776 550 776 l 354 776 q 331 785 340 776 q 322 808 322 794 l 322 990 q 331 1013 322 1004 q 354 1022 340 1022 z "},"Ę":{"ha":965,"x_min":90,"x_max":889,"o":"m 838 -139 l 851 -139 q 878 -150 867 -139 q 889 -176 889 -161 l 889 -271 q 878 -297 889 -286 q 851 -308 867 -308 l 832 -308 q 653 -242 713 -308 q 593 -69 593 -175 q 600 0 593 -37 l 128 0 q 101 11 113 0 q 90 38 90 22 l 90 935 q 101 961 90 950 q 128 972 113 972 l 840 972 q 867 961 856 972 q 878 935 878 950 l 878 739 q 867 713 878 724 q 840 701 856 701 l 424 701 l 424 614 l 810 614 q 836 603 825 614 q 847 576 847 592 l 847 396 q 836 369 847 381 q 810 358 825 358 l 424 358 l 424 271 l 851 271 q 878 260 867 271 q 889 233 889 249 l 889 38 q 878 11 889 22 q 851 0 867 0 l 838 0 q 785 -22 801 0 q 768 -69 768 -43 q 785 -117 768 -96 q 838 -139 801 -139 z "},"ę":{"ha":889,"x_min":49,"x_max":840,"o":"m 446 -125 q 472 -136 461 -125 q 483 -162 483 -147 l 483 -243 q 472 -269 483 -258 q 446 -281 461 -281 l 426 -281 q 258 -222 315 -281 q 201 -69 201 -162 q 224 35 201 -10 q 49 328 49 122 l 49 394 q 161 641 49 546 q 456 736 274 736 q 740 629 639 736 q 840 358 840 522 l 840 317 q 829 290 840 301 q 803 279 818 279 l 389 279 l 389 272 q 443 188 389 188 q 481 210 458 188 q 529 232 503 232 l 792 232 q 822 201 822 232 q 722 61 822 135 q 450 -14 621 -12 l 432 -14 q 363 -69 363 -14 q 432 -125 363 -125 l 446 -125 m 500 458 q 444 542 500 542 q 389 458 389 542 l 389 453 l 500 453 l 500 458 z "},"Ě":{"ha":965,"x_min":90,"x_max":889,"o":"m 851 271 q 878 260 867 271 q 889 233 889 249 l 889 38 q 878 11 889 22 q 851 0 867 0 l 128 0 q 101 11 113 0 q 90 38 90 22 l 90 935 q 101 961 90 950 q 128 972 113 972 l 840 972 q 867 961 856 972 q 878 935 878 950 l 878 739 q 867 713 878 724 q 840 701 856 701 l 424 701 l 424 614 l 810 614 q 836 603 825 614 q 847 576 847 592 l 847 396 q 836 369 847 381 q 810 358 825 358 l 424 358 l 424 271 l 851 271 m 597 1042 l 417 1042 q 394 1046 401 1042 q 365 1068 388 1050 l 203 1240 q 196 1258 196 1247 q 218 1281 196 1281 l 317 1281 q 372 1271 343 1281 l 507 1213 l 642 1271 q 697 1281 671 1281 l 796 1281 q 818 1258 818 1281 q 811 1240 818 1247 l 649 1068 q 619 1046 626 1050 q 597 1042 613 1042 z "},"ě":{"ha":889,"x_min":49,"x_max":840,"o":"m 803 279 l 389 279 l 389 272 q 443 188 389 188 q 481 210 458 188 q 529 232 503 232 l 792 232 q 822 201 822 232 q 720 60 822 133 q 444 -14 618 -14 q 159 77 269 -14 q 49 328 49 168 l 49 394 q 161 641 49 546 q 456 736 274 736 q 740 629 639 736 q 840 358 840 522 l 840 317 q 829 290 840 301 q 803 279 818 279 m 500 458 q 444 542 500 542 q 389 458 389 542 l 389 453 l 500 453 l 500 458 m 535 792 l 354 792 q 332 796 339 792 q 303 818 325 800 l 140 990 q 133 1008 133 997 q 156 1031 133 1031 l 254 1031 q 310 1021 281 1031 l 444 963 l 579 1021 q 635 1031 608 1031 l 733 1031 q 756 1008 756 1031 q 749 990 756 997 l 586 818 q 557 796 564 800 q 535 792 550 792 z "},"Ĝ":{"ha":1071,"x_min":63,"x_max":1008,"o":"m 589 586 l 971 586 q 997 575 986 586 q 1008 549 1008 564 l 1008 368 q 878 85 1008 185 q 530 -14 747 -14 q 188 83 313 -14 q 63 372 63 179 l 63 606 q 190 888 63 790 q 531 986 318 986 q 876 897 744 986 q 1008 676 1008 807 q 999 655 1008 664 q 978 646 990 646 l 671 646 q 631 661 643 646 q 589 703 603 697 q 531 715 557 715 q 424 611 424 715 l 424 375 q 538 257 424 257 q 654 357 654 257 l 589 357 q 563 368 574 357 q 551 394 551 379 l 551 549 q 563 575 551 564 q 589 586 574 586 m 456 1281 l 636 1281 q 658 1276 651 1281 q 688 1254 665 1272 l 850 1082 q 857 1064 857 1075 q 835 1042 857 1042 l 736 1042 q 681 1051 710 1042 l 546 1110 l 411 1051 q 356 1042 382 1042 l 257 1042 q 235 1064 235 1042 q 242 1082 235 1075 l 404 1254 q 433 1276 426 1272 q 456 1281 440 1281 z "},"ĝ":{"ha":938,"x_min":49,"x_max":868,"o":"m 49 346 l 49 417 q 132 654 49 572 q 344 736 215 736 q 549 642 474 736 l 549 685 q 560 711 549 700 q 586 722 571 722 l 829 722 q 856 711 844 722 q 867 685 867 700 l 868 24 q 760 -224 868 -143 q 475 -306 651 -306 q 279 -276 365 -306 q 150 -203 193 -246 q 63 -57 63 -117 q 74 -31 63 -42 q 100 -19 85 -19 l 371 -19 q 412 -51 396 -19 q 468 -82 428 -82 q 528 -7 528 -82 l 528 92 q 335 32 460 32 q 130 107 211 32 q 49 346 49 182 m 458 274 q 528 343 524 274 l 528 418 q 458 488 524 488 q 389 407 389 488 l 389 354 q 458 274 389 274 m 406 1022 l 586 1022 q 611 1018 603 1022 q 638 996 619 1014 l 793 831 q 800 813 800 824 q 778 790 800 790 l 679 790 q 624 800 643 790 l 496 858 l 368 800 q 313 790 349 790 l 214 790 q 192 813 192 790 q 199 831 192 824 l 354 996 q 381 1018 372 1014 q 406 1022 389 1022 z "},"Ğ":{"ha":1071,"x_min":63,"x_max":1008,"o":"m 589 586 l 971 586 q 997 575 986 586 q 1008 549 1008 564 l 1008 368 q 878 85 1008 185 q 530 -14 747 -14 q 188 83 313 -14 q 63 372 63 179 l 63 606 q 190 888 63 790 q 531 986 318 986 q 876 897 744 986 q 1008 676 1008 807 q 999 655 1008 664 q 978 646 990 646 l 671 646 q 631 661 643 646 q 589 703 603 697 q 531 715 557 715 q 424 611 424 715 l 424 375 q 538 257 424 257 q 654 357 654 257 l 589 357 q 563 368 574 357 q 551 394 551 379 l 551 549 q 563 575 551 564 q 589 586 574 586 m 583 1258 q 610 1285 583 1285 l 747 1285 q 774 1258 774 1285 q 711 1101 774 1160 q 527 1042 649 1042 q 343 1101 406 1042 q 281 1258 281 1161 q 307 1285 281 1285 l 444 1285 q 471 1258 471 1285 q 527 1182 471 1182 q 583 1258 583 1182 z "},"ğ":{"ha":938,"x_min":49,"x_max":868,"o":"m 49 346 l 49 417 q 132 654 49 572 q 344 736 215 736 q 549 642 474 736 l 549 685 q 560 711 549 700 q 586 722 571 722 l 829 722 q 856 711 844 722 q 867 685 867 700 l 868 24 q 760 -224 868 -143 q 475 -306 651 -306 q 279 -276 365 -306 q 150 -203 193 -246 q 63 -57 63 -117 q 74 -31 63 -42 q 100 -19 85 -19 l 371 -19 q 412 -51 396 -19 q 468 -82 428 -82 q 528 -7 528 -82 l 528 92 q 335 32 460 32 q 130 107 211 32 q 49 346 49 182 m 458 274 q 528 343 524 274 l 528 418 q 458 488 524 488 q 389 407 389 488 l 389 354 q 458 274 389 274 m 553 992 q 579 1018 553 1018 l 710 1018 q 736 992 736 1018 q 673 843 736 897 q 496 789 610 789 q 319 843 382 789 q 257 992 257 897 q 283 1018 257 1018 l 414 1018 q 440 992 440 1018 q 497 922 440 922 q 553 992 553 922 z "},"Ġ":{"ha":1071,"x_min":63,"x_max":1008,"o":"m 589 586 l 971 586 q 997 575 986 586 q 1008 549 1008 564 l 1008 368 q 878 85 1008 185 q 530 -14 747 -14 q 188 83 313 -14 q 63 372 63 179 l 63 606 q 190 888 63 790 q 531 986 318 986 q 876 897 744 986 q 1008 676 1008 807 q 999 655 1008 664 q 978 646 990 646 l 671 646 q 631 661 643 646 q 589 703 603 697 q 531 715 557 715 q 424 611 424 715 l 424 375 q 538 257 424 257 q 654 357 654 257 l 589 357 q 563 368 574 357 q 551 394 551 379 l 551 549 q 563 575 551 564 q 589 586 574 586 m 432 1281 l 621 1281 q 644 1272 635 1281 q 653 1249 653 1263 l 653 1060 q 644 1037 653 1046 q 621 1028 635 1028 l 432 1028 q 409 1037 418 1028 q 400 1060 400 1046 l 400 1249 q 409 1272 400 1263 q 432 1281 418 1281 z "},"ġ":{"ha":938,"x_min":49,"x_max":868,"o":"m 49 346 l 49 417 q 132 654 49 572 q 344 736 215 736 q 549 642 474 736 l 549 685 q 560 711 549 700 q 586 722 571 722 l 829 722 q 856 711 844 722 q 867 685 867 700 l 868 24 q 760 -224 868 -143 q 475 -306 651 -306 q 279 -276 365 -306 q 150 -203 193 -246 q 63 -57 63 -117 q 74 -31 63 -42 q 100 -19 85 -19 l 371 -19 q 412 -51 396 -19 q 468 -82 428 -82 q 528 -7 528 -82 l 528 92 q 335 32 460 32 q 130 107 211 32 q 49 346 49 182 m 458 274 q 528 343 524 274 l 528 418 q 458 488 524 488 q 389 407 389 488 l 389 354 q 458 274 389 274 m 392 1022 l 574 1022 q 597 1013 588 1022 q 606 990 606 1004 l 606 808 q 597 785 606 794 q 574 776 588 776 l 392 776 q 369 785 378 776 q 360 808 360 794 l 360 990 q 369 1013 360 1004 q 392 1022 378 1022 z "},"Ģ":{"ha":1071,"x_min":63,"x_max":1008,"o":"m 589 586 l 971 586 q 997 575 986 586 q 1008 549 1008 564 l 1008 368 q 878 85 1008 185 q 530 -14 747 -14 q 188 83 313 -14 q 63 372 63 179 l 63 606 q 190 888 63 790 q 531 986 318 986 q 876 897 744 986 q 1008 676 1008 807 q 999 655 1008 664 q 978 646 990 646 l 671 646 q 631 661 643 646 q 589 703 603 697 q 531 715 557 715 q 424 611 424 715 l 424 375 q 538 257 424 257 q 654 357 654 257 l 589 357 q 563 368 574 357 q 551 394 551 379 l 551 549 q 563 575 551 564 q 589 586 574 586 m 453 -347 l 290 -347 q 264 -321 264 -347 q 271 -300 264 -314 l 375 -97 q 433 -69 388 -69 l 628 -69 q 650 -92 650 -69 q 643 -112 650 -103 l 504 -321 q 453 -347 488 -347 z "},"ģ":{"ha":938,"x_min":49,"x_max":868,"o":"m 496 1003 l 644 1003 q 671 976 671 1003 q 664 956 671 969 l 601 822 q 543 794 589 794 l 363 794 q 340 817 340 794 q 347 838 340 828 l 444 976 q 496 1003 465 1003 m 49 346 l 49 417 q 132 654 49 572 q 344 736 215 736 q 549 642 474 736 l 549 685 q 560 711 549 700 q 586 722 571 722 l 829 722 q 856 711 844 722 q 867 685 867 700 l 868 24 q 760 -224 868 -143 q 475 -306 651 -306 q 279 -276 365 -306 q 150 -203 193 -246 q 63 -57 63 -117 q 74 -31 63 -42 q 100 -19 85 -19 l 371 -19 q 412 -51 396 -19 q 468 -82 428 -82 q 528 -7 528 -82 l 528 92 q 335 32 460 32 q 130 107 211 32 q 49 346 49 182 m 458 274 q 528 343 524 274 l 528 418 q 458 488 524 488 q 389 407 389 488 l 389 354 q 458 274 389 274 z "},"Ĥ":{"ha":1100,"x_min":90,"x_max":1010,"o":"m 700 972 l 972 972 q 999 961 988 972 q 1010 935 1010 950 l 1010 38 q 999 11 1010 22 q 972 0 988 0 l 700 0 q 674 11 685 0 q 663 38 663 22 l 663 338 l 438 338 l 438 38 q 426 11 438 22 q 400 0 415 0 l 128 0 q 101 10 113 0 q 90 38 90 21 l 90 935 q 101 961 90 950 q 128 972 113 972 l 400 972 q 426 961 415 972 q 438 935 438 950 l 438 643 l 663 643 l 663 935 q 674 961 663 950 q 700 972 685 972 m 453 1281 l 633 1281 q 656 1276 649 1281 q 685 1254 663 1272 l 847 1082 q 854 1064 854 1075 q 832 1042 854 1042 l 733 1042 q 678 1051 707 1042 l 543 1110 l 408 1051 q 353 1042 379 1042 l 254 1042 q 232 1064 232 1042 q 239 1082 232 1075 l 401 1254 q 431 1276 424 1272 q 453 1281 438 1281 z "},"ĥ":{"ha":972,"x_min":-60,"x_max":910,"o":"m 422 411 l 422 38 q 411 11 422 22 q 385 0 400 0 l 114 0 q 88 11 99 0 q 76 38 76 22 l 76 949 q 88 975 76 964 q 114 986 99 986 l 385 986 q 411 975 400 986 q 422 949 422 964 l 422 650 q 625 736 501 736 q 829 656 749 736 q 910 421 910 575 l 910 39 q 899 13 910 24 q 872 1 888 1 l 600 1 q 574 13 585 1 q 563 39 563 24 l 563 411 q 492 488 563 488 q 422 411 422 488 m 154 1258 l 335 1258 q 360 1254 351 1258 q 386 1232 368 1250 l 542 1067 q 549 1049 549 1060 q 526 1026 549 1026 l 428 1026 q 372 1036 392 1026 l 244 1094 l 117 1036 q 61 1026 97 1026 l -37 1026 q -60 1049 -60 1026 q -53 1067 -60 1060 l 103 1232 q 129 1254 121 1250 q 154 1258 138 1258 z "},"Ħ":{"ha":1100,"x_min":90,"x_max":1010,"o":"m 700 972 l 972 972 q 999 961 988 972 q 1010 935 1010 950 l 1010 38 q 999 11 1010 22 q 972 0 988 0 l 700 0 q 674 11 685 0 q 663 38 663 22 l 663 338 l 438 338 l 438 38 q 426 11 438 22 q 400 0 415 0 l 128 0 q 101 10 113 0 q 90 38 90 21 l 90 935 q 101 961 90 950 q 128 972 113 972 l 400 972 q 426 961 415 972 q 438 935 438 950 l 438 883 l 663 883 l 663 935 q 674 961 663 950 q 700 972 685 972 m 438 643 l 663 643 l 663 710 l 438 710 l 438 643 z "},"ħ":{"ha":965,"x_min":-4,"x_max":903,"o":"m 415 411 l 415 38 q 404 11 415 22 q 378 0 393 0 l 107 0 q 81 11 92 0 q 69 38 69 22 l 69 747 l 33 747 q 7 758 18 747 q -4 785 -4 769 l -4 856 q 7 882 -4 871 q 33 893 18 893 l 69 893 l 69 949 q 81 975 69 964 q 107 986 92 986 l 378 986 q 404 975 393 986 q 415 949 415 964 l 415 893 l 449 893 q 475 882 464 893 q 486 856 486 871 l 486 785 q 475 758 486 769 q 449 747 464 747 l 415 747 l 415 650 q 618 736 494 736 q 822 656 742 736 q 903 421 903 575 l 903 39 q 892 13 903 24 q 865 1 881 1 l 593 1 q 567 13 578 1 q 556 39 556 24 l 556 411 q 485 488 556 488 q 415 411 415 488 z "},"Ĩ":{"ha":539,"x_min":-28,"x_max":565,"o":"m 411 0 l 128 0 q 101 11 113 0 q 90 38 90 22 l 90 935 q 101 961 90 950 q 128 972 113 972 l 411 972 q 438 961 426 972 q 449 935 449 950 l 449 38 q 438 11 449 22 q 411 0 426 0 m 528 1116 q 518 1099 528 1116 q 469 1060 508 1082 q 380 1038 429 1038 q 269 1061 331 1038 q 181 1085 208 1085 q 136 1054 154 1085 q 115 1042 129 1042 l -1 1042 q -20 1049 -12 1042 q -28 1073 -28 1057 q -23 1113 -28 1089 q -5 1166 -18 1138 q 28 1217 8 1194 q 161 1271 75 1271 q 268 1247 207 1271 q 355 1224 329 1224 q 394 1245 381 1224 q 422 1267 408 1267 l 539 1267 q 565 1240 565 1267 q 556 1181 565 1213 q 528 1116 547 1150 z "},"ĩ":{"ha":463,"x_min":-51,"x_max":514,"o":"m 356 0 l 107 0 q 81 11 92 0 q 69 38 69 22 l 69 685 q 81 711 69 700 q 107 722 92 722 l 356 722 q 382 711 371 722 q 393 685 393 700 l 393 38 q 382 11 393 22 q 356 0 371 0 m 439 825 q 344 789 396 789 q 239 815 292 789 q 172 840 186 840 q 150 838 158 840 q 137 835 142 836 q 128 828 132 833 q 122 822 124 824 q 113 806 113 813 q 92 793 106 793 l -25 793 q -44 801 -36 793 q -51 827 -51 808 q -42 878 -51 846 q -12 944 -32 910 q 44 1000 7 978 q 130 1022 82 1022 q 228 997 178 1022 q 292 971 278 971 q 315 973 306 971 q 331 981 324 975 q 347 1002 338 986 q 371 1018 357 1018 l 488 1018 q 514 992 514 1018 q 439 825 514 886 z "},"Ī":{"ha":539,"x_min":-25,"x_max":563,"o":"m 411 0 l 128 0 q 101 11 113 0 q 90 38 90 22 l 90 935 q 101 961 90 950 q 128 972 113 972 l 411 972 q 438 961 426 972 q 449 935 449 950 l 449 38 q 438 11 449 22 q 411 0 426 0 m 7 1274 l 531 1274 q 553 1265 544 1274 q 563 1242 563 1256 l 563 1081 q 553 1058 563 1067 q 531 1049 544 1049 l 7 1049 q -16 1058 -7 1049 q -25 1081 -25 1067 l -25 1242 q -16 1265 -25 1256 q 7 1274 -7 1274 z "},"ī":{"ha":463,"x_min":-28,"x_max":490,"o":"m 356 0 l 107 0 q 81 11 92 0 q 69 38 69 22 l 69 685 q 81 711 69 700 q 107 722 92 722 l 356 722 q 382 711 371 722 q 393 685 393 700 l 393 38 q 382 11 393 22 q 356 0 371 0 m 4 1008 l 458 1008 q 481 999 472 1008 q 490 976 490 990 l 490 836 q 481 813 490 822 q 458 804 472 804 l 4 804 q -19 813 -10 804 q -28 836 -28 822 l -28 976 q -19 999 -28 990 q 4 1008 -10 1008 z "},"Ĭ":{"ha":539,"x_min":22,"x_max":515,"o":"m 411 0 l 128 0 q 101 11 113 0 q 90 38 90 22 l 90 935 q 101 961 90 950 q 128 972 113 972 l 411 972 q 438 961 426 972 q 449 935 449 950 l 449 38 q 438 11 449 22 q 411 0 426 0 m 325 1258 q 351 1285 325 1285 l 489 1285 q 515 1258 515 1285 q 453 1101 515 1160 q 269 1042 390 1042 q 85 1101 147 1042 q 22 1258 22 1161 q 49 1285 22 1285 l 186 1285 q 213 1258 213 1285 q 269 1182 213 1182 q 325 1258 325 1182 z "},"ĭ":{"ha":463,"x_min":-8,"x_max":471,"o":"m 356 0 l 107 0 q 81 11 92 0 q 69 38 69 22 l 69 685 q 81 711 69 700 q 107 722 92 722 l 356 722 q 382 711 371 722 q 393 685 393 700 l 393 38 q 382 11 393 22 q 356 0 371 0 m 288 992 q 314 1018 288 1018 l 444 1018 q 471 992 471 1018 q 408 843 471 897 q 231 789 344 789 q 54 843 117 789 q -8 992 -8 897 q 18 1018 -8 1018 l 149 1018 q 175 992 175 1018 q 231 922 175 922 q 288 992 288 922 z "},"Į":{"ha":539,"x_min":90,"x_max":449,"o":"m 397 -139 l 411 -139 q 438 -150 426 -139 q 449 -176 449 -161 l 449 -271 q 438 -297 449 -286 q 411 -308 426 -308 l 392 -308 q 213 -242 272 -308 q 153 -69 153 -175 q 160 0 153 -37 l 128 0 q 101 11 113 0 q 90 38 90 22 l 90 935 q 101 961 90 950 q 128 972 113 972 l 411 972 q 438 961 426 972 q 449 935 449 950 l 449 38 q 438 11 449 22 q 411 0 426 0 l 397 0 q 344 -22 361 0 q 328 -69 328 -43 q 344 -117 328 -96 q 397 -139 361 -139 z "},"į":{"ha":463,"x_min":69,"x_max":393,"o":"m 356 -111 q 382 -122 371 -111 q 393 -149 393 -133 l 393 -229 q 382 -256 393 -244 q 356 -267 371 -267 l 336 -267 q 168 -208 225 -267 q 111 -56 111 -149 q 117 0 111 -22 l 107 0 q 81 11 92 0 q 69 38 69 22 l 69 685 q 81 711 69 700 q 107 722 92 722 l 356 722 q 382 711 371 722 q 393 685 393 700 l 393 38 q 382 11 393 22 q 356 0 371 0 l 342 0 q 272 -56 272 0 q 342 -111 272 -111 l 356 -111 m 386 990 l 386 822 q 375 796 386 807 q 349 785 364 785 l 114 785 q 88 796 99 785 q 76 822 76 807 l 76 990 q 88 1017 76 1006 q 114 1028 99 1028 l 349 1028 q 375 1017 364 1028 q 386 990 386 1006 z "},"İ":{"ha":539,"x_min":90,"x_max":449,"o":"m 411 0 l 128 0 q 101 11 113 0 q 90 38 90 22 l 90 935 q 101 961 90 950 q 128 972 113 972 l 411 972 q 438 961 426 972 q 449 935 449 950 l 449 38 q 438 11 449 22 q 411 0 426 0 m 175 1281 l 364 1281 q 387 1272 378 1281 q 396 1249 396 1263 l 396 1060 q 387 1037 396 1046 q 364 1028 378 1028 l 175 1028 q 152 1037 161 1028 q 143 1060 143 1046 l 143 1249 q 152 1272 143 1263 q 175 1281 161 1281 z "},"ı":{"ha":463,"x_min":69,"x_max":393,"o":"m 356 0 l 107 0 q 81 11 92 0 q 69 38 69 22 l 69 685 q 81 711 69 700 q 107 722 92 722 l 356 722 q 382 711 371 722 q 393 685 393 700 l 393 38 q 382 11 393 22 q 356 0 371 0 z "},"Ĳ":{"ha":1488,"x_min":90,"x_max":1404,"o":"m 411 0 l 128 0 q 101 11 113 0 q 90 38 90 22 l 90 935 q 101 961 90 950 q 128 972 113 972 l 411 972 q 438 961 426 972 q 449 935 449 950 l 449 38 q 438 11 449 22 q 411 0 426 0 m 1404 935 l 1404 365 q 1278 81 1404 176 q 961 -14 1153 -14 q 640 78 769 -14 q 511 326 511 169 q 520 348 511 339 q 542 357 529 357 l 825 357 q 859 347 847 357 q 883 309 871 336 q 913 269 896 282 q 963 257 931 257 q 1044 369 1044 257 l 1044 690 l 632 690 q 606 701 617 690 q 594 728 594 713 l 594 935 q 606 961 594 950 q 632 972 617 972 l 1367 972 q 1393 961 1382 972 q 1404 935 1404 950 z "},"Ĵ":{"ha":1032,"x_min":56,"x_max":949,"o":"m 949 935 l 949 365 q 823 81 949 176 q 506 -14 697 -14 q 185 78 314 -14 q 56 326 56 169 q 65 348 56 339 q 86 357 74 357 l 369 357 q 403 347 392 357 q 428 309 415 336 q 458 269 440 282 q 507 257 475 257 q 589 369 589 257 l 589 690 l 176 690 q 150 701 161 690 q 139 728 139 713 l 139 935 q 150 961 139 950 q 176 972 161 972 l 911 972 q 938 961 926 972 q 949 935 949 950 m 450 1281 l 631 1281 q 653 1276 646 1281 q 682 1254 660 1272 l 844 1082 q 851 1064 851 1075 q 829 1042 851 1042 l 731 1042 q 675 1051 704 1042 l 540 1110 l 406 1051 q 350 1042 376 1042 l 251 1042 q 229 1064 229 1042 q 236 1082 229 1075 l 399 1254 q 428 1276 421 1272 q 450 1281 435 1281 z "},"ĵ":{"ha":719,"x_min":49,"x_max":657,"o":"m 274 -264 l 89 -264 q 63 -253 74 -264 q 51 -226 51 -242 l 51 -10 q 63 17 51 6 q 89 28 74 28 l 229 28 q 289 97 289 28 l 289 468 l 93 468 q 67 479 78 468 q 56 506 56 490 l 56 685 q 67 711 56 700 q 93 722 78 722 l 590 722 q 617 711 606 722 q 628 685 628 700 l 628 97 q 528 -167 628 -69 q 274 -264 429 -264 m 263 1022 l 443 1022 q 468 1018 460 1022 q 494 996 476 1014 l 650 831 q 657 813 657 824 q 635 790 657 790 l 536 790 q 481 800 500 790 l 353 858 l 225 800 q 169 790 206 790 l 71 790 q 49 813 49 790 q 56 831 49 824 l 211 996 q 238 1018 229 1014 q 263 1022 246 1022 z "},"Ķ":{"ha":1018,"x_min":90,"x_max":1004,"o":"m 1000 46 q 1004 28 1004 39 q 995 9 1004 18 q 974 0 986 0 l 657 0 q 600 32 617 0 l 431 335 l 431 38 q 419 11 431 22 q 393 0 408 0 l 128 0 q 101 11 113 0 q 90 38 90 22 l 90 935 q 101 961 90 950 q 128 972 113 972 l 393 972 q 419 961 408 972 q 431 935 431 950 l 431 660 l 588 942 q 643 972 603 972 l 950 972 q 972 963 963 972 q 981 944 981 954 q 976 926 981 933 l 726 507 l 1000 46 m 467 -347 l 304 -347 q 278 -321 278 -347 q 285 -300 278 -314 l 389 -97 q 447 -69 401 -69 l 642 -69 q 664 -92 664 -69 q 657 -112 664 -103 l 518 -321 q 467 -347 501 -347 z "},"ķ":{"ha":911,"x_min":69,"x_max":897,"o":"m 388 949 l 388 499 l 510 699 q 550 722 524 722 l 831 722 q 854 713 844 722 q 864 690 864 703 q 857 668 864 678 l 667 397 l 892 51 q 897 31 897 43 q 888 10 897 19 q 864 0 878 0 l 572 0 q 529 24 544 0 l 388 260 l 388 38 q 376 11 388 22 q 350 0 365 0 l 107 0 q 81 11 92 0 q 69 38 69 22 l 69 949 q 81 975 69 964 q 107 986 92 986 l 350 986 q 376 975 365 986 q 388 949 388 964 m 396 -333 l 247 -333 q 221 -307 221 -333 q 228 -286 221 -300 l 318 -97 q 376 -69 331 -69 l 557 -69 q 579 -92 579 -69 q 572 -112 579 -103 l 447 -307 q 396 -333 431 -333 z "},"ĸ":{"ha":911,"x_min":69,"x_max":897,"o":"m 388 685 l 388 485 l 510 699 q 550 722 524 722 l 831 722 q 854 713 844 722 q 864 690 864 703 q 857 668 864 678 l 667 383 l 892 51 q 897 31 897 43 q 888 10 897 19 q 864 0 878 0 l 572 0 q 529 24 544 0 l 388 246 l 388 38 q 376 11 388 22 q 350 0 365 0 l 107 0 q 81 11 92 0 q 69 38 69 22 l 69 685 q 81 711 69 700 q 107 722 92 722 l 350 722 q 376 711 365 722 q 388 685 388 700 z "},"Ĺ":{"ha":900,"x_min":90,"x_max":865,"o":"m 443 285 l 828 285 q 854 274 843 285 q 865 247 865 263 l 865 38 q 854 11 865 22 q 828 0 843 0 l 128 0 q 101 11 113 0 q 90 38 90 22 l 90 935 q 101 961 90 950 q 128 972 113 972 l 406 972 q 432 961 421 972 q 443 935 443 950 l 443 285 m 324 1281 l 597 1281 q 624 1253 624 1281 q 617 1236 624 1243 l 397 1056 q 340 1042 382 1042 l 146 1042 q 124 1064 124 1042 q 131 1082 124 1075 l 272 1254 q 324 1281 296 1281 z "},"ĺ":{"ha":463,"x_min":69,"x_max":600,"o":"m 356 0 l 107 0 q 81 11 92 0 q 69 38 69 22 l 69 949 q 81 975 69 964 q 107 986 92 986 l 356 986 q 382 975 371 986 q 393 949 393 964 l 393 38 q 382 11 393 22 q 356 0 371 0 m 314 1260 l 574 1260 q 600 1232 600 1260 q 593 1215 600 1222 l 374 1042 q 317 1028 358 1028 l 136 1028 q 114 1050 114 1028 q 121 1068 114 1061 l 263 1233 q 314 1260 286 1260 z "},"Ļ":{"ha":900,"x_min":90,"x_max":865,"o":"m 443 285 l 828 285 q 854 274 843 285 q 865 247 865 263 l 865 38 q 854 11 865 22 q 828 0 843 0 l 128 0 q 101 11 113 0 q 90 38 90 22 l 90 935 q 101 961 90 950 q 128 972 113 972 l 406 972 q 432 961 421 972 q 443 935 443 950 l 443 285 m 397 -347 l 235 -347 q 208 -321 208 -347 q 215 -300 208 -314 l 319 -97 q 378 -69 332 -69 l 572 -69 q 594 -92 594 -69 q 588 -112 594 -103 l 449 -321 q 397 -347 432 -347 z "},"ļ":{"ha":463,"x_min":8,"x_max":393,"o":"m 356 0 l 107 0 q 81 11 92 0 q 69 38 69 22 l 69 949 q 81 975 69 964 q 107 986 92 986 l 356 986 q 382 975 371 986 q 393 949 393 964 l 393 38 q 382 11 393 22 q 356 0 371 0 m 183 -333 l 35 -333 q 8 -307 8 -333 q 15 -286 8 -300 l 106 -97 q 164 -69 118 -69 l 344 -69 q 367 -92 367 -69 q 360 -112 367 -103 l 235 -307 q 183 -333 218 -333 z "},"Ľ":{"ha":924,"x_min":90,"x_max":889,"o":"m 443 285 l 828 285 q 854 274 843 285 q 865 247 865 263 l 865 38 q 854 11 865 22 q 828 0 843 0 l 128 0 q 101 11 113 0 q 90 38 90 22 l 90 935 q 101 961 90 950 q 128 972 113 972 l 406 972 q 432 961 421 972 q 443 935 443 950 l 443 285 m 629 988 l 858 988 q 880 978 871 988 q 889 960 889 969 q 888 947 889 951 l 756 613 q 692 568 739 568 l 542 568 q 520 577 529 568 q 511 599 511 586 l 511 601 l 563 933 q 584 971 565 954 q 629 988 603 988 z "},"ľ":{"ha":875,"x_min":69,"x_max":813,"o":"m 356 0 l 107 0 q 81 11 92 0 q 69 38 69 22 l 69 949 q 81 975 69 964 q 107 986 92 986 l 356 986 q 382 975 371 986 q 393 949 393 964 l 393 38 q 382 11 393 22 q 356 0 371 0 m 629 724 l 481 724 q 454 750 454 724 q 461 771 454 757 l 551 960 q 610 988 564 988 l 790 988 q 813 965 813 988 q 806 944 813 956 l 681 750 q 629 724 664 724 z "},"Ŀ":{"ha":900,"x_min":90,"x_max":865,"o":"m 553 689 l 742 689 q 765 680 756 689 q 774 657 774 671 l 774 468 q 765 445 774 454 q 742 436 756 436 l 553 436 q 530 445 539 436 q 521 468 521 454 l 521 657 q 530 680 521 671 q 553 689 539 689 m 443 285 l 828 285 q 854 274 843 285 q 865 247 865 263 l 865 38 q 854 11 865 22 q 828 0 843 0 l 128 0 q 101 11 113 0 q 90 38 90 22 l 90 935 q 101 961 90 950 q 128 972 113 972 l 406 972 q 432 961 421 972 q 443 935 443 950 l 443 285 z "},"ŀ":{"ha":694,"x_min":69,"x_max":681,"o":"m 467 643 l 649 643 q 672 634 663 643 q 681 611 681 625 l 681 429 q 672 406 681 415 q 649 397 663 397 l 467 397 q 444 406 453 397 q 435 429 435 415 l 435 611 q 444 634 435 625 q 467 643 453 643 m 356 0 l 107 0 q 81 11 92 0 q 69 38 69 22 l 69 949 q 81 975 69 964 q 107 986 92 986 l 356 986 q 382 975 371 986 q 393 949 393 964 l 393 38 q 382 11 393 22 q 356 0 371 0 z "},"Ł":{"ha":900,"x_min":21,"x_max":865,"o":"m 90 935 q 101 961 90 950 q 128 972 113 972 l 406 972 q 432 961 421 972 q 443 935 443 950 l 443 678 l 644 757 q 664 761 656 761 q 681 753 672 761 q 689 732 689 744 l 689 582 q 658 536 689 547 l 443 451 l 443 285 l 828 285 q 854 274 843 285 q 865 247 865 263 l 865 38 q 854 11 865 22 q 828 0 843 0 l 128 0 q 101 11 113 0 q 90 38 90 22 l 90 313 l 65 303 q 47 299 56 299 q 29 307 38 299 q 21 328 21 315 l 21 478 q 51 524 21 513 l 90 539 l 90 935 z "},"ł":{"ha":518,"x_min":14,"x_max":504,"o":"m 97 949 q 108 975 97 964 q 135 986 119 986 l 383 986 q 410 975 399 986 q 421 949 421 964 l 421 669 l 460 685 q 478 689 469 689 q 496 681 488 689 q 504 660 504 672 l 504 510 q 474 464 504 475 l 421 443 l 421 38 q 410 11 421 22 q 383 0 399 0 l 135 0 q 108 11 119 0 q 97 38 97 22 l 97 318 l 58 303 q 40 299 49 299 q 22 307 31 299 q 14 328 14 315 l 14 478 q 44 524 14 513 l 97 543 l 97 949 z "},"Ń":{"ha":1056,"x_min":90,"x_max":965,"o":"m 676 972 l 928 972 q 954 961 943 972 q 965 935 965 950 l 965 38 q 954 11 965 22 q 928 0 943 0 l 708 0 q 651 32 672 0 l 417 386 l 417 38 q 406 11 417 22 q 379 0 394 0 l 128 0 q 101 11 113 0 q 90 38 90 22 l 90 935 q 101 961 90 950 q 128 972 113 972 l 347 972 q 404 940 386 972 l 639 556 l 639 935 q 650 961 639 950 q 676 972 661 972 m 547 1281 l 821 1281 q 847 1253 847 1281 q 840 1236 847 1243 l 621 1056 q 564 1042 606 1042 l 369 1042 q 347 1064 347 1042 q 354 1082 347 1075 l 496 1254 q 547 1281 519 1281 z "},"ń":{"ha":957,"x_min":69,"x_max":888,"o":"m 888 421 l 888 38 q 876 11 888 22 q 850 0 865 0 l 585 0 q 558 11 569 0 q 547 38 547 22 l 547 411 q 478 488 547 488 q 408 411 408 488 l 408 38 q 397 11 408 22 q 371 0 386 0 l 107 0 q 81 11 92 0 q 69 38 69 22 l 69 685 q 81 711 69 700 q 107 722 92 722 l 350 722 q 376 711 365 722 q 388 685 388 700 l 388 639 q 485 709 424 682 q 618 736 547 736 q 810 656 732 736 q 888 421 888 576 m 506 1022 l 765 1022 q 792 994 792 1022 q 785 978 792 985 l 565 804 q 508 790 550 790 l 328 790 q 306 813 306 790 q 313 831 306 824 l 454 996 q 506 1022 478 1022 z "},"Ņ":{"ha":1056,"x_min":90,"x_max":965,"o":"m 676 972 l 928 972 q 954 961 943 972 q 965 935 965 950 l 965 38 q 954 11 965 22 q 928 0 943 0 l 708 0 q 651 32 672 0 l 417 386 l 417 38 q 406 11 417 22 q 379 0 394 0 l 128 0 q 101 11 113 0 q 90 38 90 22 l 90 935 q 101 961 90 950 q 128 972 113 972 l 347 972 q 404 940 386 972 l 639 556 l 639 935 q 650 961 639 950 q 676 972 661 972 m 481 -347 l 318 -347 q 292 -321 292 -347 q 299 -300 292 -314 l 403 -97 q 461 -69 415 -69 l 656 -69 q 678 -92 678 -69 q 671 -112 678 -103 l 532 -321 q 481 -347 515 -347 z "},"ņ":{"ha":950,"x_min":69,"x_max":888,"o":"m 888 421 l 888 38 q 876 11 888 22 q 850 0 865 0 l 585 0 q 558 11 569 0 q 547 38 547 22 l 547 411 q 478 488 547 488 q 408 411 408 488 l 408 38 q 397 11 408 22 q 371 0 386 0 l 107 0 q 81 11 92 0 q 69 38 69 22 l 69 685 q 81 711 69 700 q 107 722 92 722 l 350 722 q 376 711 365 722 q 388 685 388 700 l 388 639 q 485 709 424 682 q 618 736 547 736 q 810 656 732 736 q 888 421 888 576 m 418 -333 l 269 -333 q 243 -307 243 -333 q 250 -286 243 -300 l 340 -97 q 399 -69 353 -69 l 579 -69 q 601 -92 601 -69 q 594 -112 601 -103 l 469 -307 q 418 -333 453 -333 z "},"Ň":{"ha":1056,"x_min":90,"x_max":965,"o":"m 676 972 l 928 972 q 954 961 943 972 q 965 935 965 950 l 965 38 q 954 11 965 22 q 928 0 943 0 l 708 0 q 651 32 672 0 l 417 386 l 417 38 q 406 11 417 22 q 379 0 394 0 l 128 0 q 101 11 113 0 q 90 38 90 22 l 90 935 q 101 961 90 950 q 128 972 113 972 l 347 972 q 404 940 386 972 l 639 556 l 639 935 q 650 961 639 950 q 676 972 661 972 m 618 1042 l 438 1042 q 415 1046 422 1042 q 386 1068 408 1050 l 224 1240 q 217 1258 217 1247 q 239 1281 217 1281 l 338 1281 q 393 1271 364 1281 l 528 1213 l 663 1271 q 718 1281 692 1281 l 817 1281 q 839 1258 839 1281 q 832 1240 839 1247 l 669 1068 q 640 1046 647 1050 q 618 1042 633 1042 z "},"ň":{"ha":950,"x_min":69,"x_max":888,"o":"m 888 421 l 888 38 q 876 11 888 22 q 850 0 865 0 l 585 0 q 558 11 569 0 q 547 38 547 22 l 547 411 q 478 488 547 488 q 408 411 408 488 l 408 38 q 397 11 408 22 q 371 0 386 0 l 107 0 q 81 11 92 0 q 69 38 69 22 l 69 685 q 81 711 69 700 q 107 722 92 722 l 350 722 q 376 711 365 722 q 388 685 388 700 l 388 639 q 485 709 424 682 q 618 736 547 736 q 810 656 732 736 q 888 421 888 576 m 578 792 l 397 792 q 375 796 382 792 q 346 818 368 800 l 183 990 q 176 1008 176 997 q 199 1031 176 1031 l 297 1031 q 353 1021 324 1031 l 488 963 l 622 1021 q 678 1031 651 1031 l 776 1031 q 799 1008 799 1031 q 792 990 799 997 l 629 818 q 600 796 607 800 q 578 792 593 792 z "},"ŉ":{"ha":950,"x_min":-47,"x_max":888,"o":"m 888 421 l 888 38 q 876 11 888 22 q 850 0 865 0 l 585 0 q 558 11 569 0 q 547 38 547 22 l 547 411 q 478 488 547 488 q 408 411 408 488 l 408 38 q 397 11 408 22 q 371 0 386 0 l 107 0 q 81 11 92 0 q 69 38 69 22 l 69 685 q 81 711 69 700 q 107 722 92 722 l 350 722 q 376 711 365 722 q 388 685 388 700 l 388 639 q 485 709 424 682 q 618 736 547 736 q 810 656 732 736 q 888 421 888 576 m 128 772 l -21 772 q -47 799 -47 772 q -40 819 -47 806 l 50 1008 q 108 1036 63 1036 l 289 1036 q 311 1014 311 1036 q 304 993 311 1003 l 179 799 q 128 772 163 772 z "},"Ŋ":{"ha":1056,"x_min":90,"x_max":965,"o":"m 453 -181 q 464 -154 453 -165 q 490 -143 475 -143 l 546 -143 q 616 -117 593 -143 q 639 -31 639 -92 l 639 50 l 417 386 l 417 38 q 406 11 417 22 q 379 0 394 0 l 128 0 q 101 11 113 0 q 90 38 90 22 l 90 935 q 101 961 90 950 q 128 972 113 972 l 347 972 q 404 940 386 972 l 639 556 l 639 935 q 650 961 639 950 q 676 972 661 972 l 928 972 q 954 961 943 972 q 965 935 965 950 l 965 -46 q 840 -330 965 -235 q 513 -425 714 -425 l 490 -425 q 464 -414 475 -425 q 453 -387 453 -403 l 453 -181 z "},"ŋ":{"ha":957,"x_min":69,"x_max":888,"o":"m 363 -181 q 374 -154 363 -165 q 400 -143 385 -143 l 454 -143 q 524 -117 501 -143 q 547 -31 547 -92 l 547 411 q 478 488 547 488 q 408 411 408 488 l 408 38 q 397 11 408 22 q 371 0 386 0 l 107 0 q 81 11 92 0 q 69 38 69 22 l 69 685 q 81 711 69 700 q 107 722 92 722 l 350 722 q 376 711 365 722 q 388 685 388 700 l 388 639 q 485 709 424 682 q 618 736 547 736 q 810 656 732 736 q 888 421 888 576 l 888 -46 q 765 -330 888 -235 q 440 -425 642 -425 l 400 -425 q 374 -414 385 -425 q 363 -387 363 -403 l 363 -181 z "},"Ō":{"ha":1053,"x_min":63,"x_max":990,"o":"m 190 883 q 253 935 190 883 q 526 986 317 986 q 863 883 736 986 q 990 592 990 779 l 990 375 q 865 85 990 185 q 526 -14 739 -14 q 188 85 314 -14 q 63 375 63 185 l 63 592 q 190 883 63 781 m 451 285 q 465 271 451 285 q 526 257 479 257 q 601 285 574 257 q 629 369 629 313 l 629 603 q 601 687 629 658 q 526 715 574 715 q 451 687 479 715 q 424 603 424 658 l 424 369 q 451 285 424 313 m 268 1274 l 792 1274 q 815 1265 806 1274 q 824 1242 824 1256 l 824 1081 q 815 1058 824 1067 q 792 1049 806 1049 l 268 1049 q 245 1058 254 1049 q 236 1081 236 1067 l 236 1242 q 245 1265 236 1256 q 268 1274 254 1274 z "},"ō":{"ha":903,"x_min":49,"x_max":854,"o":"m 49 408 q 161 651 49 567 q 451 736 274 736 q 742 651 629 736 q 854 408 854 567 l 854 314 q 746 70 854 154 q 451 -14 638 -14 q 157 70 265 -14 q 49 314 49 154 l 49 408 m 514 419 q 500 493 514 472 q 451 514 486 514 q 403 493 417 514 q 389 419 389 472 l 389 303 q 403 228 389 247 q 451 208 417 208 q 500 229 486 208 q 514 303 514 250 l 514 419 m 224 1008 l 678 1008 q 701 999 692 1008 q 710 976 710 990 l 710 836 q 701 813 710 822 q 678 804 692 804 l 224 804 q 201 813 210 804 q 192 836 192 822 l 192 976 q 201 999 192 990 q 224 1008 210 1008 z "},"Ŏ":{"ha":1053,"x_min":63,"x_max":990,"o":"m 190 883 q 253 935 190 883 q 526 986 317 986 q 863 883 736 986 q 990 592 990 779 l 990 375 q 865 85 990 185 q 526 -14 739 -14 q 188 85 314 -14 q 63 375 63 185 l 63 592 q 190 883 63 781 m 451 285 q 465 271 451 285 q 526 257 479 257 q 601 285 574 257 q 629 369 629 313 l 629 603 q 601 687 629 658 q 526 715 574 715 q 451 687 479 715 q 424 603 424 658 l 424 369 q 451 285 424 313 m 588 1258 q 614 1285 588 1285 l 751 1285 q 778 1258 778 1285 q 715 1101 778 1160 q 531 1042 653 1042 q 347 1101 410 1042 q 285 1258 285 1161 q 311 1285 285 1285 l 449 1285 q 475 1258 475 1285 q 531 1182 475 1182 q 588 1258 588 1182 z "},"ŏ":{"ha":903,"x_min":49,"x_max":854,"o":"m 49 314 l 49 408 q 161 651 49 567 q 451 736 274 736 q 742 651 629 736 q 854 408 854 567 l 854 314 q 746 70 854 154 q 451 -14 638 -14 q 157 70 265 -14 q 49 314 49 154 m 514 303 l 514 419 q 500 493 514 472 q 451 514 486 514 q 403 493 417 514 q 389 419 389 472 l 389 303 q 403 228 389 247 q 451 208 417 208 q 500 229 486 208 q 514 303 514 250 m 508 992 q 535 1018 508 1018 l 665 1018 q 692 992 692 1018 q 628 843 692 897 q 451 789 565 789 q 275 843 338 789 q 213 992 213 897 q 239 1018 213 1018 l 369 1018 q 396 992 396 1018 q 452 922 396 922 q 508 992 508 922 z "},"Ő":{"ha":1054,"x_min":63,"x_max":990,"o":"m 190 883 q 253 935 190 883 q 526 986 317 986 q 863 883 736 986 q 990 592 990 779 l 990 375 q 865 85 990 185 q 526 -14 739 -14 q 188 85 314 -14 q 63 375 63 185 l 63 592 q 190 883 63 781 m 451 285 q 465 271 451 285 q 526 257 479 257 q 601 285 574 257 q 629 369 629 313 l 629 603 q 601 687 629 658 q 526 715 574 715 q 451 687 479 715 q 424 603 424 658 l 424 369 q 451 285 424 313 m 356 1281 l 575 1281 q 603 1254 603 1281 q 594 1236 603 1244 l 425 1051 q 369 1042 417 1042 l 243 1042 q 221 1064 221 1042 q 228 1085 221 1071 l 304 1254 q 335 1281 314 1278 q 356 1281 340 1281 m 732 1281 l 951 1281 q 979 1254 979 1281 q 971 1236 979 1244 l 801 1051 q 746 1042 793 1042 l 619 1042 q 597 1064 597 1042 q 604 1085 597 1071 l 681 1254 q 711 1281 690 1278 q 732 1281 717 1281 z "},"ő":{"ha":897,"x_min":49,"x_max":892,"o":"m 49 408 q 161 651 49 567 q 451 736 274 736 q 742 651 629 736 q 854 408 854 567 l 854 314 q 746 70 854 154 q 451 -14 638 -14 q 157 70 265 -14 q 49 314 49 154 l 49 408 m 514 419 q 500 493 514 472 q 451 514 486 514 q 403 493 417 514 q 389 419 389 472 l 389 303 q 403 228 389 247 q 451 208 417 208 q 500 229 486 208 q 514 303 514 250 l 514 419 m 301 1024 l 507 1024 q 535 997 535 1024 q 526 979 535 988 l 357 801 q 315 792 349 792 l 189 792 q 167 814 167 792 q 174 835 167 821 l 250 997 q 281 1022 260 1021 q 301 1024 286 1024 m 658 1024 l 864 1024 q 892 997 892 1024 q 883 979 892 988 l 714 801 q 658 792 706 792 l 546 792 q 524 814 524 792 q 531 835 524 821 l 607 997 q 638 1022 617 1021 q 658 1024 643 1024 z "},"Œ":{"ha":1428,"x_min":63,"x_max":1351,"o":"m 63 389 l 63 578 q 190 868 63 765 q 525 972 317 971 l 1303 972 q 1329 961 1318 972 q 1340 935 1340 950 l 1340 739 q 1329 713 1340 724 q 1303 701 1318 701 l 914 701 l 914 614 l 1272 614 q 1299 603 1288 614 q 1310 576 1310 592 l 1310 396 q 1299 369 1310 381 q 1272 358 1288 358 l 914 358 l 914 271 l 1314 271 q 1340 260 1329 271 q 1351 233 1351 249 l 1351 38 q 1340 11 1351 22 q 1314 0 1329 0 l 525 0 q 188 100 314 1 q 63 389 63 199 m 424 383 q 525 271 424 271 l 581 271 l 581 701 l 525 701 q 424 589 424 699 l 424 383 z "},"œ":{"ha":1354,"x_min":49,"x_max":1306,"o":"m 1268 279 l 854 279 l 854 272 q 908 188 854 188 q 946 210 924 188 q 994 232 968 232 l 1257 232 q 1288 201 1288 232 q 1185 60 1288 133 q 911 -14 1083 -14 q 689 35 783 -14 q 451 -14 589 -14 q 157 70 265 -14 q 49 314 49 154 l 49 408 q 161 651 49 567 q 451 736 274 736 q 689 683 590 736 q 910 736 788 736 q 1205 629 1104 736 q 1306 358 1306 522 l 1306 317 q 1294 290 1306 301 q 1268 279 1283 279 m 514 303 l 514 419 q 500 493 514 472 q 451 514 486 514 q 403 493 417 514 q 389 419 389 472 l 389 303 q 403 228 389 247 q 451 208 417 208 q 500 229 486 208 q 514 303 514 250 m 965 458 q 910 542 965 542 q 854 458 854 542 l 854 453 l 965 453 l 965 458 z "},"Ŕ":{"ha":1031,"x_min":90,"x_max":989,"o":"m 985 46 q 989 28 989 38 q 980 9 989 18 q 958 0 971 0 l 674 0 q 614 38 631 0 l 494 303 l 438 303 l 438 38 q 426 11 438 22 q 400 0 415 0 l 128 0 q 101 11 113 0 q 90 38 90 22 l 90 935 q 101 961 90 950 q 128 972 113 972 l 539 972 q 851 883 739 972 q 964 626 964 793 q 814 363 964 458 l 985 46 m 438 714 l 438 567 l 539 567 q 586 587 569 567 q 603 638 603 607 q 587 691 603 668 q 539 714 571 714 l 438 714 m 504 1281 l 778 1281 q 804 1253 804 1281 q 797 1236 804 1243 l 578 1056 q 521 1042 563 1042 l 326 1042 q 304 1064 304 1042 q 311 1082 304 1075 l 453 1254 q 504 1281 476 1281 z "},"ŕ":{"ha":764,"x_min":56,"x_max":722,"o":"m 374 685 l 374 636 q 590 722 471 722 l 657 722 q 683 711 672 722 q 694 685 694 700 l 694 468 q 683 442 694 453 q 657 431 672 431 l 478 431 q 419 413 440 431 q 394 367 397 396 l 394 38 q 383 11 394 22 q 357 0 372 0 l 93 0 q 67 11 78 0 q 56 38 56 22 l 56 685 q 67 711 56 700 q 93 722 78 722 l 336 722 q 363 711 351 722 q 374 685 374 700 m 436 1022 l 696 1022 q 722 994 722 1022 q 715 978 722 985 l 496 804 q 439 790 481 790 l 258 790 q 236 813 236 790 q 243 831 236 824 l 385 996 q 436 1022 408 1022 z "},"Ŗ":{"ha":1031,"x_min":90,"x_max":989,"o":"m 985 46 q 989 28 989 38 q 980 9 989 18 q 958 0 971 0 l 674 0 q 614 38 631 0 l 494 303 l 438 303 l 438 38 q 426 11 438 22 q 400 0 415 0 l 128 0 q 101 11 113 0 q 90 38 90 22 l 90 935 q 101 961 90 950 q 128 972 113 972 l 539 972 q 851 883 739 972 q 964 626 964 793 q 814 363 964 458 l 985 46 m 438 714 l 438 567 l 539 567 q 586 587 569 567 q 603 638 603 607 q 587 691 603 668 q 539 714 571 714 l 438 714 m 453 -347 l 290 -347 q 264 -321 264 -347 q 271 -300 264 -314 l 375 -97 q 433 -69 388 -69 l 628 -69 q 650 -92 650 -69 q 643 -112 650 -103 l 504 -321 q 453 -347 488 -347 z "},"ŗ":{"ha":736,"x_min":-6,"x_max":694,"o":"m 374 685 l 374 636 q 590 722 471 722 l 657 722 q 683 711 672 722 q 694 685 694 700 l 694 468 q 683 442 694 453 q 657 431 672 431 l 478 431 q 419 413 440 431 q 394 367 397 396 l 394 38 q 383 11 394 22 q 357 0 372 0 l 93 0 q 67 11 78 0 q 56 38 56 22 l 56 685 q 67 711 56 700 q 93 722 78 722 l 336 722 q 363 711 351 722 q 374 685 374 700 m 169 -333 l 21 -333 q -6 -307 -6 -333 q 1 -286 -6 -300 l 92 -97 q 150 -69 104 -69 l 331 -69 q 353 -92 353 -69 q 346 -112 353 -103 l 221 -307 q 169 -333 204 -333 z "},"Ř":{"ha":1031,"x_min":90,"x_max":989,"o":"m 985 46 q 989 28 989 38 q 980 9 989 18 q 958 0 971 0 l 674 0 q 614 38 631 0 l 494 303 l 438 303 l 438 38 q 426 11 438 22 q 400 0 415 0 l 128 0 q 101 11 113 0 q 90 38 90 22 l 90 935 q 101 961 90 950 q 128 972 113 972 l 539 972 q 851 883 739 972 q 964 626 964 793 q 814 363 964 458 l 985 46 m 438 714 l 438 567 l 539 567 q 586 587 569 567 q 603 638 603 607 q 587 691 603 668 q 539 714 571 714 l 438 714 m 596 1042 l 415 1042 q 393 1046 400 1042 q 364 1068 386 1050 l 201 1240 q 194 1258 194 1247 q 217 1281 194 1281 l 315 1281 q 371 1271 342 1281 l 506 1213 l 640 1271 q 696 1281 669 1281 l 794 1281 q 817 1258 817 1281 q 810 1240 817 1247 l 647 1068 q 618 1046 625 1050 q 596 1042 611 1042 z "},"ř":{"ha":750,"x_min":69,"x_max":708,"o":"m 388 685 l 388 636 q 604 722 485 722 l 671 722 q 697 711 686 722 q 708 685 708 700 l 708 468 q 697 442 708 453 q 671 431 686 431 l 492 431 q 433 413 454 431 q 408 367 411 396 l 408 38 q 397 11 408 22 q 371 0 386 0 l 107 0 q 81 11 92 0 q 69 38 69 22 l 69 685 q 81 711 69 700 q 107 722 92 722 l 350 722 q 376 711 365 722 q 388 685 388 700 m 481 792 l 300 792 q 278 796 285 792 q 249 818 271 800 l 86 990 q 79 1008 79 997 q 101 1031 79 1031 l 200 1031 q 256 1021 226 1031 l 390 963 l 525 1021 q 581 1031 554 1031 l 679 1031 q 701 1008 701 1031 q 694 990 701 997 l 532 818 q 503 796 510 800 q 481 792 496 792 z "},"Ś":{"ha":1001,"x_min":42,"x_max":960,"o":"m 65 667 q 183 897 65 808 q 491 986 300 986 q 803 893 682 986 q 925 699 925 800 q 916 677 925 686 q 896 668 907 668 l 618 668 q 560 692 586 668 q 489 715 533 715 q 422 676 422 715 q 455 642 422 656 q 576 617 488 628 q 872 520 783 590 q 960 308 960 450 q 830 76 960 165 q 490 -14 700 -14 q 161 72 281 -14 q 42 282 42 158 q 51 303 42 294 q 72 313 60 313 l 336 313 q 401 285 365 313 q 499 257 436 257 q 603 296 603 257 q 565 334 603 321 q 424 361 528 347 q 65 667 65 408 m 518 1281 l 792 1281 q 818 1253 818 1281 q 811 1236 818 1243 l 592 1056 q 535 1042 576 1042 l 340 1042 q 318 1064 318 1042 q 325 1082 318 1075 l 467 1254 q 518 1281 490 1281 z "},"ś":{"ha":839,"x_min":42,"x_max":801,"o":"m 454 200 q 447 222 454 214 q 314 266 429 244 q 127 342 199 288 q 56 496 56 397 q 150 665 56 594 q 405 736 244 736 q 668 669 565 736 q 771 535 771 603 q 762 508 771 519 q 740 497 753 497 l 507 497 q 456 519 486 497 q 410 542 425 542 q 378 519 378 542 q 385 497 378 506 q 536 457 403 476 q 735 372 669 438 q 801 225 801 306 q 700 49 801 113 q 413 -15 599 -15 q 238 7 314 -15 q 121 63 161 29 q 42 185 42 128 q 51 211 42 200 q 75 222 61 222 l 317 222 q 367 201 336 222 q 426 179 399 179 q 454 200 454 179 m 474 1022 l 733 1022 q 760 994 760 1022 q 753 978 760 985 l 533 804 q 476 790 518 790 l 296 790 q 274 813 274 790 q 281 831 274 824 l 422 996 q 474 1022 446 1022 z "},"Ŝ":{"ha":1001,"x_min":42,"x_max":960,"o":"m 65 667 q 183 897 65 808 q 491 986 300 986 q 803 893 682 986 q 925 699 925 800 q 916 677 925 686 q 896 668 907 668 l 618 668 q 560 692 586 668 q 489 715 533 715 q 422 676 422 715 q 455 642 422 656 q 576 617 488 628 q 872 520 783 590 q 960 308 960 450 q 830 76 960 165 q 490 -14 700 -14 q 161 72 281 -14 q 42 282 42 158 q 51 303 42 294 q 72 313 60 313 l 336 313 q 401 285 365 313 q 499 257 436 257 q 603 296 603 257 q 565 334 603 321 q 424 361 528 347 q 65 667 65 408 m 401 1281 l 582 1281 q 604 1276 597 1281 q 633 1254 611 1272 l 796 1082 q 803 1064 803 1075 q 781 1042 803 1042 l 682 1042 q 626 1051 656 1042 l 492 1110 l 357 1051 q 301 1042 328 1042 l 203 1042 q 181 1064 181 1042 q 188 1082 181 1075 l 350 1254 q 379 1276 372 1272 q 401 1281 386 1281 z "},"ŝ":{"ha":839,"x_min":42,"x_max":801,"o":"m 454 200 q 447 222 454 214 q 314 266 429 244 q 127 342 199 288 q 56 496 56 397 q 150 665 56 594 q 405 736 244 736 q 668 669 565 736 q 771 535 771 603 q 762 508 771 519 q 740 497 753 497 l 507 497 q 456 519 486 497 q 410 542 425 542 q 378 519 378 542 q 385 497 378 506 q 536 457 403 476 q 735 372 669 438 q 801 225 801 306 q 700 49 801 113 q 413 -15 599 -15 q 238 7 314 -15 q 121 63 161 29 q 42 185 42 128 q 51 211 42 200 q 75 222 61 222 l 317 222 q 367 201 336 222 q 426 179 399 179 q 454 200 454 179 m 329 1022 l 510 1022 q 535 1018 526 1022 q 561 996 543 1014 l 717 831 q 724 813 724 824 q 701 790 724 790 l 603 790 q 547 800 567 790 l 419 858 l 292 800 q 236 790 272 790 l 138 790 q 115 813 115 790 q 122 831 115 824 l 278 996 q 304 1018 296 1014 q 329 1022 313 1022 z "},"Ş":{"ha":1001,"x_min":42,"x_max":960,"o":"m 42 282 q 51 303 42 294 q 72 313 60 313 l 336 313 q 401 285 365 313 q 499 257 436 257 q 603 296 603 257 q 565 334 603 321 q 424 361 528 347 q 65 667 65 408 q 183 897 65 808 q 491 986 300 986 q 803 893 682 986 q 925 699 925 800 q 916 677 925 686 q 896 668 907 668 l 618 668 q 560 692 586 668 q 489 715 533 715 q 422 676 422 715 q 455 642 422 656 q 576 617 488 628 q 872 520 783 590 q 960 310 960 450 q 839 82 960 171 q 528 -14 718 -7 l 518 -54 q 580 -46 533 -46 q 661 -83 626 -46 q 696 -172 696 -119 q 611 -304 696 -272 q 529 -319 571 -319 l 444 -303 q 360 -212 360 -269 q 378 -194 360 -194 l 463 -194 q 498 -206 479 -194 q 535 -217 517 -217 q 575 -183 575 -217 q 563 -159 575 -169 q 531 -149 550 -149 q 496 -157 511 -149 q 469 -165 481 -165 l 408 -165 q 389 -146 389 -165 q 390 -129 389 -140 l 413 -10 q 138 90 235 7 q 42 282 42 172 z "},"ş":{"ha":839,"x_min":42,"x_max":801,"o":"m 42 185 q 51 211 42 200 q 75 222 61 222 l 317 222 q 367 201 336 222 q 426 179 399 179 q 454 200 454 179 q 447 222 454 214 q 314 266 429 244 q 127 342 199 288 q 56 496 56 397 q 150 665 56 594 q 405 736 244 736 q 668 669 565 736 q 771 535 771 603 q 762 508 771 519 q 740 497 753 497 l 507 497 q 456 519 486 497 q 410 542 425 542 q 378 519 378 542 q 385 497 378 506 q 536 457 403 476 q 735 372 669 438 q 801 225 801 306 q 708 54 801 117 q 443 -14 615 -8 l 435 -54 q 497 -46 450 -46 q 578 -83 543 -46 q 613 -172 613 -119 q 528 -304 613 -272 q 446 -319 488 -319 l 361 -303 q 276 -212 276 -269 q 294 -194 276 -194 l 379 -194 q 415 -206 396 -194 q 451 -217 433 -217 q 492 -183 492 -217 q 479 -159 492 -169 q 447 -149 467 -149 q 413 -157 428 -149 q 386 -165 397 -165 l 325 -165 q 306 -146 306 -165 q 307 -129 306 -140 l 329 -10 q 114 68 186 6 q 42 185 42 131 z "},"Š":{"ha":1001,"x_min":42,"x_max":960,"o":"m 65 667 q 183 897 65 808 q 491 986 300 986 q 803 893 682 986 q 925 699 925 800 q 916 677 925 686 q 896 668 907 668 l 618 668 q 560 692 586 668 q 489 715 533 715 q 422 676 422 715 q 455 642 422 656 q 576 617 488 628 q 872 520 783 590 q 960 308 960 450 q 830 76 960 165 q 490 -14 700 -14 q 161 72 281 -14 q 42 282 42 158 q 51 303 42 294 q 72 313 60 313 l 336 313 q 401 285 365 313 q 499 257 436 257 q 603 296 603 257 q 565 334 603 321 q 424 361 528 347 q 65 667 65 408 m 579 1042 l 399 1042 q 376 1046 383 1042 q 347 1068 369 1050 l 185 1240 q 178 1258 178 1247 q 200 1281 178 1281 l 299 1281 q 354 1271 325 1281 l 489 1213 l 624 1271 q 679 1281 653 1281 l 778 1281 q 800 1258 800 1281 q 793 1240 800 1247 l 631 1068 q 601 1046 608 1050 q 579 1042 594 1042 z "},"š":{"ha":839,"x_min":42,"x_max":801,"o":"m 454 200 q 447 222 454 214 q 314 266 429 244 q 127 342 199 288 q 56 496 56 397 q 150 665 56 594 q 405 736 244 736 q 668 669 565 736 q 771 535 771 603 q 762 508 771 519 q 740 497 753 497 l 507 497 q 456 519 486 497 q 410 542 425 542 q 378 519 378 542 q 385 497 378 506 q 536 457 403 476 q 735 372 669 438 q 801 225 801 306 q 700 49 801 113 q 413 -15 599 -15 q 238 7 314 -15 q 121 63 161 29 q 42 185 42 128 q 51 211 42 200 q 75 222 61 222 l 317 222 q 367 201 336 222 q 426 179 399 179 q 454 200 454 179 m 510 792 l 329 792 q 307 796 314 792 q 278 818 300 800 l 115 990 q 108 1008 108 997 q 131 1031 108 1031 l 229 1031 q 285 1021 256 1031 l 419 963 l 554 1021 q 610 1031 583 1031 l 708 1031 q 731 1008 731 1031 q 724 990 731 997 l 561 818 q 532 796 539 800 q 510 792 525 792 z "},"Ţ":{"ha":972,"x_min":42,"x_max":931,"o":"m 79 972 l 893 972 q 919 961 908 972 q 931 935 931 950 l 931 711 q 919 685 931 696 q 893 674 908 674 l 663 674 l 663 38 q 651 11 663 22 q 625 0 640 0 l 347 0 q 321 11 332 0 q 310 38 310 22 l 310 674 l 79 674 q 53 685 64 674 q 42 711 42 696 l 42 935 q 53 961 42 950 q 79 972 64 972 m 415 -347 l 253 -347 q 226 -321 226 -347 q 233 -300 226 -314 l 338 -97 q 396 -69 350 -69 l 590 -69 q 613 -92 613 -69 q 606 -112 613 -103 l 467 -321 q 415 -347 450 -347 z "},"ţ":{"ha":738,"x_min":21,"x_max":710,"o":"m 486 479 l 486 326 q 546 257 486 257 l 672 257 q 699 246 688 257 q 710 219 710 235 l 710 38 q 699 11 710 22 q 672 0 688 0 l 515 0 q 168 299 168 0 l 168 479 l 58 479 q 32 490 43 479 q 21 517 21 501 l 21 685 q 32 711 21 700 q 58 722 43 722 l 168 722 l 168 949 q 179 975 168 964 q 206 986 190 986 l 449 986 q 475 975 464 986 q 486 949 486 964 l 486 722 l 661 722 q 688 711 676 722 q 699 685 699 700 l 699 517 q 688 490 699 501 q 661 479 676 479 l 486 479 m 365 -333 l 217 -333 q 190 -307 190 -333 q 197 -286 190 -300 l 288 -97 q 346 -69 300 -69 l 526 -69 q 549 -92 549 -69 q 542 -112 549 -103 l 417 -307 q 365 -333 400 -333 z "},"Ť":{"ha":972,"x_min":42,"x_max":931,"o":"m 79 972 l 893 972 q 919 961 908 972 q 931 935 931 950 l 931 711 q 919 685 931 696 q 893 674 908 674 l 663 674 l 663 38 q 651 11 663 22 q 625 0 640 0 l 347 0 q 321 11 332 0 q 310 38 310 22 l 310 674 l 79 674 q 53 685 64 674 q 42 711 42 696 l 42 935 q 53 961 42 950 q 79 972 64 972 m 576 1042 l 396 1042 q 374 1046 381 1042 q 344 1068 367 1050 l 182 1240 q 175 1258 175 1247 q 197 1281 175 1281 l 296 1281 q 351 1271 322 1281 l 486 1213 l 621 1271 q 676 1281 650 1281 l 775 1281 q 797 1258 797 1281 q 790 1240 797 1247 l 628 1068 q 599 1046 606 1050 q 576 1042 592 1042 z "},"ť":{"ha":1117,"x_min":21,"x_max":1117,"o":"m 486 479 l 486 326 q 546 257 486 257 l 672 257 q 699 246 688 257 q 710 219 710 235 l 710 38 q 699 11 710 22 q 672 0 688 0 l 515 0 q 168 299 168 0 l 168 479 l 58 479 q 32 490 43 479 q 21 517 21 501 l 21 685 q 32 711 21 700 q 58 722 43 722 l 168 722 l 168 949 q 179 975 168 964 q 206 986 190 986 l 449 986 q 475 975 464 986 q 486 949 486 964 l 486 722 l 661 722 q 688 711 676 722 q 699 685 699 700 l 699 517 q 688 490 699 501 q 661 479 676 479 l 486 479 m 933 722 l 785 722 q 758 749 758 722 q 765 769 758 756 l 856 958 q 914 986 868 986 l 1094 986 q 1117 964 1117 986 q 1110 943 1117 953 l 985 749 q 933 722 968 722 z "},"Ŧ":{"ha":972,"x_min":42,"x_max":931,"o":"m 79 972 l 893 972 q 919 961 908 972 q 931 935 931 950 l 931 711 q 919 685 931 696 q 893 674 908 674 l 663 674 l 663 528 l 779 528 q 806 517 794 528 q 817 490 817 506 l 817 392 q 806 365 817 376 q 779 354 794 354 l 663 354 l 663 38 q 651 11 663 22 q 625 0 640 0 l 347 0 q 321 11 332 0 q 310 38 310 22 l 310 354 l 176 354 q 150 365 161 354 q 139 392 139 376 l 139 490 q 150 517 139 506 q 176 528 161 528 l 310 528 l 310 674 l 79 674 q 53 685 64 674 q 42 711 42 696 l 42 935 q 53 961 42 950 q 79 972 64 972 z "},"ŧ":{"ha":738,"x_min":21,"x_max":710,"o":"m 486 514 l 661 514 q 688 503 676 514 q 699 476 699 492 l 699 406 q 688 379 699 390 q 661 368 676 368 l 486 368 l 486 326 q 546 257 486 257 l 672 257 q 699 246 688 257 q 710 219 710 235 l 710 38 q 699 11 710 22 q 672 0 688 0 l 515 0 q 168 299 168 0 l 168 368 l 58 368 q 32 379 43 368 q 21 406 21 390 l 21 476 q 32 503 21 492 q 58 514 43 514 l 168 514 l 168 576 l 58 576 q 32 588 43 576 q 21 614 21 599 l 21 685 q 32 711 21 700 q 58 722 43 722 l 168 722 l 168 949 q 179 975 168 964 q 206 986 190 986 l 449 986 q 475 975 464 986 q 486 949 486 964 l 486 722 l 661 722 q 688 711 676 722 q 699 685 699 700 l 699 614 q 688 588 699 599 q 661 576 676 576 l 486 576 l 486 514 z "},"Ũ":{"ha":1053,"x_min":76,"x_max":976,"o":"m 667 972 l 939 972 q 965 961 954 972 q 976 935 976 950 l 976 376 q 856 84 976 182 q 527 -14 735 -14 q 198 83 319 -14 q 76 376 76 181 l 76 935 q 88 961 76 950 q 114 972 99 972 l 386 972 q 413 961 401 972 q 424 935 424 950 l 424 372 q 526 265 424 265 q 629 372 629 265 l 629 935 q 640 961 629 950 q 667 972 651 972 m 736 1075 q 640 1039 692 1039 q 536 1065 589 1039 q 469 1090 483 1090 q 446 1088 454 1090 q 433 1085 438 1086 q 424 1078 428 1083 q 417 1072 419 1074 q 408 1056 408 1063 q 388 1043 401 1043 l 271 1043 q 252 1051 260 1043 q 244 1077 244 1058 q 254 1128 244 1096 q 283 1194 264 1160 q 340 1250 303 1228 q 426 1272 378 1272 q 524 1247 474 1272 q 588 1221 574 1221 q 610 1223 601 1221 q 625 1231 619 1225 q 643 1252 633 1236 q 667 1268 653 1268 l 783 1268 q 810 1242 810 1268 q 736 1075 810 1136 z "},"ũ":{"ha":950,"x_min":63,"x_max":881,"o":"m 63 301 l 63 685 q 74 711 63 700 q 100 722 85 722 l 365 722 q 392 711 381 722 q 403 685 403 700 l 403 311 q 472 235 403 235 q 542 311 542 235 l 542 685 q 553 711 542 700 q 579 722 564 722 l 843 722 q 869 711 858 722 q 881 685 881 700 l 881 38 q 869 11 881 22 q 843 0 858 0 l 600 0 q 574 11 585 0 q 563 38 563 22 l 563 83 q 332 -14 497 -14 q 140 66 218 -14 q 63 301 63 146 m 683 825 q 588 789 639 789 q 483 815 536 789 q 416 840 431 840 q 393 838 401 840 q 380 835 385 836 q 371 828 375 833 q 364 822 367 824 q 356 806 356 813 q 335 793 349 793 l 218 793 q 199 801 207 793 q 192 827 192 808 q 201 878 192 846 q 231 944 211 910 q 288 1000 250 978 q 373 1022 325 1022 q 471 997 421 1022 q 535 971 521 971 q 558 973 549 971 q 572 981 567 975 q 590 1002 581 986 q 614 1018 600 1018 l 731 1018 q 757 992 757 1018 q 683 825 757 886 z "},"Ū":{"ha":1053,"x_min":76,"x_max":976,"o":"m 667 972 l 939 972 q 965 961 954 972 q 976 935 976 950 l 976 376 q 856 84 976 182 q 527 -14 735 -14 q 198 83 319 -14 q 76 376 76 181 l 76 935 q 88 961 76 950 q 114 972 99 972 l 386 972 q 413 961 401 972 q 424 935 424 950 l 424 372 q 526 265 424 265 q 629 372 629 265 l 629 935 q 640 961 629 950 q 667 972 651 972 m 264 1274 l 788 1274 q 810 1265 801 1274 q 819 1242 819 1256 l 819 1081 q 810 1058 819 1067 q 788 1049 801 1049 l 264 1049 q 241 1058 250 1049 q 232 1081 232 1067 l 232 1242 q 241 1265 232 1256 q 264 1274 250 1274 z "},"ū":{"ha":950,"x_min":63,"x_max":881,"o":"m 63 301 l 63 685 q 74 711 63 700 q 100 722 85 722 l 365 722 q 392 711 381 722 q 403 685 403 700 l 403 311 q 472 235 403 235 q 542 311 542 235 l 542 685 q 553 711 542 700 q 579 722 564 722 l 843 722 q 869 711 858 722 q 881 685 881 700 l 881 38 q 869 11 881 22 q 843 0 858 0 l 600 0 q 574 11 585 0 q 563 38 563 22 l 563 83 q 332 -14 497 -14 q 140 66 218 -14 q 63 301 63 146 m 244 1008 l 699 1008 q 722 999 713 1008 q 731 976 731 990 l 731 836 q 722 813 731 822 q 699 804 713 804 l 244 804 q 222 813 231 804 q 213 836 213 822 l 213 976 q 222 999 213 990 q 244 1008 231 1008 z "},"Ŭ":{"ha":1053,"x_min":76,"x_max":976,"o":"m 667 972 l 939 972 q 965 961 954 972 q 976 935 976 950 l 976 376 q 856 84 976 182 q 527 -14 735 -14 q 198 83 319 -14 q 76 376 76 181 l 76 935 q 88 961 76 950 q 114 972 99 972 l 386 972 q 413 961 401 972 q 424 935 424 950 l 424 372 q 526 265 424 265 q 629 372 629 265 l 629 935 q 640 961 629 950 q 667 972 651 972 m 590 1258 q 617 1285 590 1285 l 754 1285 q 781 1258 781 1285 q 718 1101 781 1160 q 534 1042 656 1042 q 350 1101 413 1042 q 288 1258 288 1161 q 314 1285 288 1285 l 451 1285 q 478 1258 478 1285 q 534 1182 478 1182 q 590 1258 590 1182 z "},"ŭ":{"ha":950,"x_min":63,"x_max":881,"o":"m 63 301 l 63 685 q 74 711 63 700 q 100 722 85 722 l 365 722 q 392 711 381 722 q 403 685 403 700 l 403 311 q 472 235 403 235 q 542 311 542 235 l 542 685 q 553 711 542 700 q 579 722 564 722 l 843 722 q 869 711 858 722 q 881 685 881 700 l 881 38 q 869 11 881 22 q 843 0 858 0 l 600 0 q 574 11 585 0 q 563 38 563 22 l 563 83 q 332 -14 497 -14 q 140 66 218 -14 q 63 301 63 146 m 528 992 q 554 1018 528 1018 l 685 1018 q 711 992 711 1018 q 648 843 711 897 q 471 789 585 789 q 294 843 357 789 q 232 992 232 897 q 258 1018 232 1018 l 389 1018 q 415 992 415 1018 q 472 922 415 922 q 528 992 528 922 z "},"Ů":{"ha":1053,"x_min":76,"x_max":976,"o":"m 667 972 l 939 972 q 965 961 954 972 q 976 935 976 950 l 976 376 q 856 84 976 182 q 527 -14 735 -14 q 198 83 319 -14 q 76 376 76 181 l 76 935 q 88 961 76 950 q 114 972 99 972 l 386 972 q 413 961 401 972 q 424 935 424 950 l 424 372 q 526 265 424 265 q 629 372 629 265 l 629 935 q 640 961 629 950 q 667 972 651 972 m 634 1064 q 614 1046 634 1064 q 521 1028 593 1028 q 408 1064 449 1028 q 368 1158 368 1100 q 409 1251 368 1215 q 522 1288 450 1288 q 634 1251 593 1288 q 675 1158 675 1215 q 634 1064 675 1100 m 482 1158 q 521 1115 482 1115 q 560 1158 560 1115 q 521 1200 560 1200 q 493 1189 504 1200 q 482 1158 482 1178 z "},"ů":{"ha":950,"x_min":63,"x_max":881,"o":"m 63 301 l 63 685 q 74 711 63 700 q 100 722 85 722 l 365 722 q 392 711 381 722 q 403 685 403 700 l 403 311 q 472 235 403 235 q 542 311 542 235 l 542 685 q 553 711 542 700 q 579 722 564 722 l 843 722 q 869 711 858 722 q 881 685 881 700 l 881 38 q 869 11 881 22 q 843 0 858 0 l 600 0 q 574 11 585 0 q 563 38 563 22 l 563 83 q 332 -14 497 -14 q 140 66 218 -14 q 63 301 63 146 m 584 814 q 564 796 584 814 q 471 778 543 778 q 358 814 399 778 q 318 908 318 850 q 359 1001 318 965 q 472 1038 400 1038 q 584 1001 543 1038 q 625 908 625 965 q 584 814 625 850 m 432 908 q 471 865 432 865 q 510 908 510 865 q 471 950 510 950 q 443 939 454 950 q 432 908 432 928 z "},"Ű":{"ha":1053,"x_min":76,"x_max":997,"o":"m 667 972 l 939 972 q 965 961 954 972 q 976 935 976 950 l 976 376 q 856 84 976 182 q 527 -14 735 -14 q 198 83 319 -14 q 76 376 76 181 l 76 935 q 88 961 76 950 q 114 972 99 972 l 386 972 q 413 961 401 972 q 424 935 424 950 l 424 372 q 526 265 424 265 q 629 372 629 265 l 629 935 q 640 961 629 950 q 667 972 651 972 m 374 1281 l 593 1281 q 621 1254 621 1281 q 613 1236 621 1244 l 443 1051 q 388 1042 435 1042 l 261 1042 q 239 1064 239 1042 q 246 1085 239 1071 l 322 1254 q 353 1281 332 1278 q 374 1281 358 1281 m 750 1281 l 969 1281 q 997 1254 997 1281 q 989 1236 997 1244 l 819 1051 q 764 1042 811 1042 l 638 1042 q 615 1064 615 1042 q 622 1085 615 1071 l 699 1254 q 729 1281 708 1278 q 750 1281 735 1281 z "},"ű":{"ha":950,"x_min":63,"x_max":931,"o":"m 63 301 l 63 685 q 74 711 63 700 q 100 722 85 722 l 365 722 q 392 711 381 722 q 403 685 403 700 l 403 311 q 472 235 403 235 q 542 311 542 235 l 542 685 q 553 711 542 700 q 579 722 564 722 l 843 722 q 869 711 858 722 q 881 685 881 700 l 881 38 q 869 11 881 22 q 843 0 858 0 l 600 0 q 574 11 585 0 q 563 38 563 22 l 563 83 q 332 -14 497 -14 q 140 66 218 -14 q 63 301 63 146 m 340 1024 l 546 1024 q 574 997 574 1024 q 565 979 574 988 l 396 801 q 354 792 388 792 l 228 792 q 206 814 206 792 q 213 835 206 821 l 289 997 q 319 1022 299 1021 q 340 1024 325 1024 m 697 1024 l 903 1024 q 931 997 931 1024 q 922 979 931 988 l 753 801 q 697 792 744 792 l 585 792 q 563 814 563 792 q 569 835 563 821 l 646 997 q 676 1022 656 1021 q 697 1024 682 1024 z "},"Ų":{"ha":1053,"x_min":76,"x_max":976,"o":"m 667 972 l 939 972 q 965 961 954 972 q 976 935 976 950 l 976 376 q 892 120 976 215 q 660 -3 808 25 q 578 -83 578 -21 q 594 -131 578 -110 q 647 -153 611 -153 l 661 -153 q 688 -164 676 -153 q 699 -190 699 -175 l 699 -285 q 688 -311 699 -300 q 661 -322 676 -322 l 642 -322 q 463 -256 522 -322 q 403 -83 403 -189 q 413 -6 403 -39 q 165 115 254 19 q 76 376 76 210 l 76 935 q 88 961 76 950 q 114 972 99 972 l 386 972 q 413 961 401 972 q 424 935 424 950 l 424 372 q 526 265 424 265 q 629 372 629 265 l 629 935 q 640 961 629 950 q 667 972 651 972 z "},"ų":{"ha":950,"x_min":63,"x_max":881,"o":"m 63 301 l 63 685 q 74 711 63 700 q 100 722 85 722 l 365 722 q 392 711 381 722 q 403 685 403 700 l 403 311 q 472 235 403 235 q 542 311 542 235 l 542 685 q 553 711 542 700 q 579 722 564 722 l 843 722 q 869 711 858 722 q 881 685 881 700 l 881 38 q 869 11 881 22 q 843 0 858 0 l 829 0 q 760 -56 760 0 q 829 -111 760 -111 l 843 -111 q 869 -122 858 -111 q 881 -149 881 -133 l 881 -229 q 869 -256 881 -244 q 843 -267 858 -267 l 824 -267 q 656 -208 713 -267 q 599 -56 599 -149 q 604 0 599 -22 l 600 0 q 574 11 585 0 q 563 38 563 22 l 563 83 q 332 -14 497 -14 q 140 66 218 -14 q 63 301 63 146 z "},"Ŵ":{"ha":1219,"x_min":49,"x_max":1171,"o":"m 439 0 l 240 0 q 197 16 214 0 q 176 53 179 32 l 49 938 l 49 942 q 58 963 49 954 q 79 972 67 972 l 338 972 q 388 935 383 972 l 435 543 l 492 717 q 539 757 506 757 l 681 757 q 728 717 714 757 l 785 544 l 832 935 q 882 972 836 972 l 1140 972 q 1162 963 1153 972 q 1171 942 1171 954 l 1171 938 l 1043 53 q 1023 16 1040 32 q 979 0 1006 0 l 781 0 q 724 38 738 0 l 610 322 l 496 38 q 439 0 482 0 m 521 1281 l 701 1281 q 724 1276 717 1281 q 753 1254 731 1272 l 915 1082 q 922 1064 922 1075 q 900 1042 922 1042 l 801 1042 q 746 1051 775 1042 l 611 1110 l 476 1051 q 421 1042 447 1042 l 322 1042 q 300 1064 300 1042 q 307 1082 300 1075 l 469 1254 q 499 1276 492 1272 q 521 1281 506 1281 z "},"ŵ":{"ha":1218,"x_min":28,"x_max":1190,"o":"m 544 722 l 674 722 q 721 689 711 722 l 811 400 l 896 689 q 943 722 906 722 l 1157 722 q 1181 713 1171 722 q 1190 693 1190 703 q 1189 678 1190 683 l 986 35 q 940 0 975 0 l 754 0 q 708 35 719 0 l 610 315 l 510 35 q 464 0 499 0 l 278 0 q 232 35 243 0 l 29 678 q 28 693 28 683 q 38 713 28 703 q 61 722 47 722 l 275 722 q 322 689 313 722 l 407 400 l 497 689 q 544 722 507 722 m 519 1022 l 700 1022 q 725 1018 717 1022 q 751 996 733 1014 l 907 831 q 914 813 914 824 q 892 790 914 790 l 793 790 q 738 800 757 790 l 610 858 l 482 800 q 426 790 463 790 l 328 790 q 306 813 306 790 q 313 831 306 824 l 468 996 q 494 1018 486 1014 q 519 1022 503 1022 z "},"Ŷ":{"ha":1006,"x_min":14,"x_max":992,"o":"m 639 0 l 367 0 q 340 11 351 0 q 329 38 329 22 l 329 311 l 17 929 q 14 944 14 935 q 23 963 14 954 q 44 972 32 972 l 306 972 q 364 938 347 972 l 503 658 l 642 938 q 700 972 658 972 l 961 972 q 983 963 974 972 q 992 944 992 954 q 989 929 992 935 l 676 311 l 676 38 q 665 11 676 22 q 639 0 654 0 m 414 1281 l 594 1281 q 617 1276 610 1281 q 646 1254 624 1272 l 808 1082 q 815 1064 815 1075 q 793 1042 815 1042 l 694 1042 q 639 1051 668 1042 l 504 1110 l 369 1051 q 314 1042 340 1042 l 215 1042 q 193 1064 193 1042 q 200 1082 193 1075 l 363 1254 q 392 1276 385 1272 q 414 1281 399 1281 z "},"ŷ":{"ha":892,"x_min":21,"x_max":878,"o":"m 56 722 l 290 722 q 335 689 322 722 l 449 372 l 567 689 q 614 722 581 722 l 846 722 q 868 713 858 722 q 878 694 878 704 q 876 679 878 685 l 485 -231 q 436 -264 471 -264 l 208 -264 q 187 -256 196 -264 q 178 -235 178 -247 q 179 -221 178 -224 l 290 46 l 22 679 q 21 689 21 683 q 56 722 26 722 m 358 1022 l 539 1022 q 564 1018 556 1022 q 590 996 572 1014 l 746 831 q 753 813 753 824 q 731 790 753 790 l 632 790 q 576 800 596 790 l 449 858 l 321 800 q 265 790 301 790 l 167 790 q 144 813 144 790 q 151 831 144 824 l 307 996 q 333 1018 325 1014 q 358 1022 342 1022 z "},"Ÿ":{"ha":1006,"x_min":14,"x_max":992,"o":"m 639 0 l 367 0 q 340 11 351 0 q 329 38 329 22 l 329 311 l 17 929 q 14 944 14 935 q 23 963 14 954 q 44 972 32 972 l 306 972 q 364 938 347 972 l 503 658 l 642 938 q 700 972 658 972 l 961 972 q 983 963 974 972 q 992 944 992 954 q 989 929 992 935 l 676 311 l 676 38 q 665 11 676 22 q 639 0 654 0 m 604 1281 l 779 1281 q 802 1272 793 1281 q 811 1249 811 1263 l 811 1074 q 802 1051 811 1060 q 779 1042 793 1042 l 604 1042 q 581 1051 590 1042 q 572 1074 572 1060 l 572 1249 q 581 1272 572 1263 q 604 1281 590 1281 m 228 1281 l 403 1281 q 426 1272 417 1281 q 435 1249 435 1263 l 435 1074 q 426 1051 435 1060 q 403 1042 417 1042 l 228 1042 q 205 1051 214 1042 q 196 1074 196 1060 l 196 1249 q 205 1272 196 1263 q 228 1281 214 1281 z "},"Ź":{"ha":993,"x_min":63,"x_max":931,"o":"m 893 285 q 919 274 908 285 q 931 247 931 263 l 931 38 q 919 11 931 22 q 893 0 908 0 l 100 0 q 74 11 85 0 q 63 38 63 22 l 63 238 q 83 286 63 265 l 472 690 l 107 690 q 81 701 92 690 q 69 728 69 713 l 69 935 q 81 961 69 950 q 107 972 92 972 l 875 972 q 901 961 890 972 q 913 935 913 950 l 913 738 q 894 692 913 710 l 526 285 l 893 285 m 504 1281 l 778 1281 q 804 1253 804 1281 q 797 1236 804 1243 l 578 1056 q 521 1042 563 1042 l 326 1042 q 304 1064 304 1042 q 311 1082 304 1075 l 453 1254 q 504 1281 476 1281 z "},"ź":{"ha":867,"x_min":69,"x_max":797,"o":"m 760 239 q 786 228 775 239 q 797 201 797 217 l 797 38 q 786 11 797 22 q 760 0 775 0 l 107 0 q 81 11 92 0 q 69 38 69 22 l 69 197 q 92 246 69 226 l 368 483 l 117 483 q 90 494 101 483 q 79 521 79 506 l 79 685 q 90 711 79 700 q 117 722 101 722 l 731 722 q 757 711 746 722 q 768 685 768 700 l 768 510 q 749 469 768 486 l 485 239 l 760 239 m 501 1022 l 761 1022 q 788 994 788 1022 q 781 978 788 985 l 561 804 q 504 790 546 790 l 324 790 q 301 813 301 790 q 308 831 301 824 l 450 996 q 501 1022 474 1022 z "},"Ż":{"ha":993,"x_min":63,"x_max":931,"o":"m 893 285 q 919 274 908 285 q 931 247 931 263 l 931 38 q 919 11 931 22 q 893 0 908 0 l 100 0 q 74 11 85 0 q 63 38 63 22 l 63 238 q 83 286 63 265 l 472 690 l 107 690 q 81 701 92 690 q 69 728 69 713 l 69 935 q 81 961 69 950 q 107 972 92 972 l 875 972 q 901 961 890 972 q 913 935 913 950 l 913 738 q 894 692 913 710 l 526 285 l 893 285 m 404 1281 l 593 1281 q 616 1272 607 1281 q 625 1249 625 1263 l 625 1060 q 616 1037 625 1046 q 593 1028 607 1028 l 404 1028 q 381 1037 390 1028 q 372 1060 372 1046 l 372 1249 q 381 1272 372 1263 q 404 1281 390 1281 z "},"ż":{"ha":867,"x_min":69,"x_max":797,"o":"m 760 239 q 786 228 775 239 q 797 201 797 217 l 797 38 q 786 11 797 22 q 760 0 775 0 l 107 0 q 81 11 92 0 q 69 38 69 22 l 69 197 q 92 246 69 226 l 368 483 l 117 483 q 90 494 101 483 q 79 521 79 506 l 79 685 q 90 711 79 700 q 117 722 101 722 l 731 722 q 757 711 746 722 q 768 685 768 700 l 768 510 q 749 469 768 486 l 485 239 l 760 239 m 342 1022 l 524 1022 q 547 1013 538 1022 q 556 990 556 1004 l 556 808 q 547 785 556 794 q 524 776 538 776 l 342 776 q 319 785 328 776 q 310 808 310 794 l 310 990 q 319 1013 310 1004 q 342 1022 328 1022 z "},"Ž":{"ha":993,"x_min":63,"x_max":931,"o":"m 893 285 q 919 274 908 285 q 931 247 931 263 l 931 38 q 919 11 931 22 q 893 0 908 0 l 100 0 q 74 11 85 0 q 63 38 63 22 l 63 238 q 83 286 63 265 l 472 690 l 107 690 q 81 701 92 690 q 69 728 69 713 l 69 935 q 81 961 69 950 q 107 972 92 972 l 875 972 q 901 961 890 972 q 913 935 913 950 l 913 738 q 894 692 913 710 l 526 285 l 893 285 m 588 1042 l 407 1042 q 385 1046 392 1042 q 356 1068 378 1050 l 193 1240 q 186 1258 186 1247 q 208 1281 186 1281 l 307 1281 q 363 1271 333 1281 l 497 1213 l 632 1271 q 688 1281 661 1281 l 786 1281 q 808 1258 808 1281 q 801 1240 808 1247 l 639 1068 q 610 1046 617 1050 q 588 1042 603 1042 z "},"ž":{"ha":867,"x_min":69,"x_max":797,"o":"m 760 239 q 786 228 775 239 q 797 201 797 217 l 797 38 q 786 11 797 22 q 760 0 775 0 l 107 0 q 81 11 92 0 q 69 38 69 22 l 69 197 q 92 246 69 226 l 368 483 l 117 483 q 90 494 101 483 q 79 521 79 506 l 79 685 q 90 711 79 700 q 117 722 101 722 l 731 722 q 757 711 746 722 q 768 685 768 700 l 768 510 q 749 469 768 486 l 485 239 l 760 239 m 524 792 l 343 792 q 321 796 328 792 q 292 818 314 800 l 129 990 q 122 1008 122 997 q 144 1031 122 1031 l 243 1031 q 299 1021 269 1031 l 433 963 l 568 1021 q 624 1031 597 1031 l 722 1031 q 744 1008 744 1031 q 738 990 744 997 l 575 818 q 546 796 553 800 q 524 792 539 792 z "},"ſ":{"ha":710,"x_min":21,"x_max":682,"o":"m 472 739 l 472 38 q 461 11 472 22 q 435 0 450 0 l 192 0 q 165 11 176 0 q 154 38 154 22 l 154 479 l 58 479 q 32 490 43 479 q 21 517 21 501 l 21 685 q 32 711 21 700 q 58 722 43 722 l 154 722 l 154 746 q 250 966 154 904 q 515 1028 346 1028 l 644 1028 q 671 1017 660 1028 q 682 990 682 1006 l 682 822 q 671 796 682 807 q 644 785 660 785 l 532 785 q 472 739 472 785 z "},"ƒ":{"ha":710,"x_min":-31,"x_max":682,"o":"m -31 -387 l -31 -181 q -19 -154 -31 -165 q 7 -143 -8 -143 l 61 -143 q 131 -117 108 -143 q 154 -31 154 -92 l 154 479 l 58 479 q 32 490 43 479 q 21 517 21 501 l 21 685 q 32 711 21 700 q 58 722 43 722 l 154 722 l 154 746 q 250 966 154 904 q 515 1028 346 1028 l 644 1028 q 671 1017 660 1028 q 682 990 682 1006 l 682 822 q 671 796 682 807 q 644 785 660 785 l 532 785 q 472 739 472 785 l 472 722 l 629 722 q 656 711 644 722 q 667 685 667 700 l 667 517 q 656 490 667 501 q 629 479 644 479 l 472 479 l 472 -46 q 61 -425 472 -425 l 7 -425 q -19 -414 -8 -425 q -31 -387 -31 -403 z "},"Ǽ":{"ha":1381,"x_min":21,"x_max":1360,"o":"m 394 972 l 1311 972 q 1338 961 1326 972 q 1349 935 1349 950 l 1349 739 q 1338 713 1349 724 q 1311 701 1326 701 l 936 701 l 936 614 l 1281 614 q 1307 603 1296 614 q 1318 576 1318 592 l 1318 396 q 1307 369 1318 381 q 1281 358 1296 358 l 936 358 l 936 271 l 1322 271 q 1349 260 1338 271 q 1360 233 1360 249 l 1360 38 q 1349 11 1360 22 q 1322 0 1338 0 l 640 0 q 614 11 625 0 q 603 38 603 22 l 603 126 l 396 126 l 363 35 q 308 0 350 0 l 51 0 q 30 9 39 0 q 21 27 21 18 q 22 40 21 36 l 332 926 q 394 972 344 972 m 603 397 l 603 701 l 558 701 l 467 397 l 603 397 m 825 1281 l 1099 1281 q 1125 1253 1125 1281 q 1118 1236 1125 1243 l 899 1056 q 842 1042 883 1042 l 647 1042 q 625 1064 625 1042 q 632 1082 625 1075 l 774 1254 q 825 1281 797 1281 z "},"ǽ":{"ha":1336,"x_min":49,"x_max":1288,"o":"m 49 207 q 353 447 49 394 l 500 471 q 493 527 500 513 q 460 542 486 542 q 410 519 435 542 q 363 497 385 497 l 126 497 q 96 527 96 497 q 117 591 96 557 q 180 658 139 625 q 295 714 221 692 q 461 736 369 736 q 679 685 608 736 q 892 736 775 736 q 1187 629 1086 736 q 1288 358 1288 522 l 1288 317 q 1276 290 1288 301 q 1250 279 1265 279 l 836 279 l 836 272 q 890 188 836 188 q 928 210 906 188 q 976 232 950 232 l 1239 232 q 1269 201 1269 232 q 1167 60 1269 133 q 893 -14 1065 -14 q 619 71 721 -14 q 346 -14 519 -14 q 128 48 208 -14 q 49 207 49 110 m 414 192 q 504 300 504 192 l 422 282 q 361 231 361 268 q 375 203 361 214 q 414 192 389 192 m 947 458 q 892 542 947 542 q 836 458 836 542 l 836 453 l 947 453 l 947 458 m 739 1022 l 999 1022 q 1025 994 1025 1022 q 1018 978 1025 985 l 799 804 q 742 790 783 790 l 561 790 q 539 813 539 790 q 546 831 539 824 l 688 996 q 739 1022 711 1022 z "},"Ǿ":{"ha":1053,"x_min":0,"x_max":1053,"o":"m 526 986 q 785 932 675 986 q 949 776 896 878 l 1008 800 q 1028 804 1019 804 q 1044 796 1036 804 q 1053 775 1053 788 l 1053 625 q 1022 579 1053 590 l 990 567 l 990 375 q 865 85 990 185 q 526 -14 739 -14 q 251 44 365 -14 q 92 214 138 101 l 44 196 q 25 192 33 192 q 8 200 17 192 q 0 221 0 208 l 0 371 q 31 417 0 406 l 63 429 l 63 592 q 190 883 63 781 q 526 986 317 986 m 526 257 q 601 285 574 257 q 629 369 629 313 l 629 425 l 425 344 q 526 257 435 257 m 526 715 q 451 687 479 715 q 424 603 424 658 l 424 571 l 622 649 q 526 715 601 715 m 575 1281 l 849 1281 q 875 1253 875 1281 q 868 1236 875 1243 l 649 1056 q 592 1042 633 1042 l 397 1042 q 375 1064 375 1042 q 382 1082 375 1075 l 524 1254 q 575 1281 547 1281 z "},"ǿ":{"ha":903,"x_min":0,"x_max":903,"o":"m 854 408 l 854 314 q 746 70 854 154 q 451 -14 638 -14 q 92 143 188 -14 l 44 125 q 25 121 33 121 q 8 129 17 121 q 0 150 0 138 l 0 244 q 31 290 0 279 l 49 297 l 49 408 q 161 651 49 567 q 451 736 274 736 q 801 589 696 736 l 858 611 q 878 615 869 615 q 894 607 886 615 q 903 586 903 599 l 903 492 q 872 446 903 457 l 853 438 l 854 408 m 455 208 q 470 208 455 208 q 500 229 486 208 q 514 303 514 250 l 514 307 l 392 260 q 410 219 396 231 q 455 208 424 208 m 458 514 q 438 514 458 514 q 404 495 418 514 q 389 429 390 476 l 508 475 q 458 514 497 514 m 519 1022 l 779 1022 q 806 994 806 1022 q 799 978 806 985 l 579 804 q 522 790 564 790 l 342 790 q 319 813 319 790 q 326 831 319 824 l 468 996 q 519 1022 492 1022 z "},"Ș":{"ha":1001,"x_min":42,"x_max":960,"o":"m 65 667 q 183 897 65 808 q 491 986 300 986 q 803 893 682 986 q 925 699 925 800 q 916 677 925 686 q 896 668 907 668 l 618 668 q 560 692 586 668 q 489 715 533 715 q 422 676 422 715 q 455 642 422 656 q 576 617 488 628 q 872 520 783 590 q 960 308 960 450 q 830 76 960 165 q 490 -14 700 -14 q 161 72 281 -14 q 42 282 42 158 q 51 303 42 294 q 72 313 60 313 l 336 313 q 401 285 365 313 q 499 257 436 257 q 603 296 603 257 q 565 334 603 321 q 424 361 528 347 q 65 667 65 408 m 439 -347 l 276 -347 q 250 -321 250 -347 q 257 -300 250 -314 l 361 -97 q 419 -69 374 -69 l 614 -69 q 636 -92 636 -69 q 629 -112 636 -103 l 490 -321 q 439 -347 474 -347 z "},"ș":{"ha":839,"x_min":42,"x_max":801,"o":"m 454 200 q 447 222 454 214 q 314 266 429 244 q 127 342 199 288 q 56 496 56 397 q 150 665 56 594 q 405 736 244 736 q 668 669 565 736 q 771 535 771 603 q 762 508 771 519 q 740 497 753 497 l 507 497 q 456 519 486 497 q 410 542 425 542 q 378 519 378 542 q 385 497 378 506 q 536 457 403 476 q 735 372 669 438 q 801 225 801 306 q 700 49 801 113 q 413 -15 599 -15 q 238 7 314 -15 q 121 63 161 29 q 42 185 42 128 q 51 211 42 200 q 75 222 61 222 l 317 222 q 367 201 336 222 q 426 179 399 179 q 454 200 454 179 m 346 -333 l 197 -333 q 171 -307 171 -333 q 178 -286 171 -300 l 268 -97 q 326 -69 281 -69 l 507 -69 q 529 -92 529 -69 q 522 -112 529 -103 l 397 -307 q 346 -333 381 -333 z "},"ȷ":{"ha":688,"x_min":35,"x_max":611,"o":"m 257 -264 l 72 -264 q 46 -253 57 -264 q 35 -226 35 -242 l 35 -10 q 46 17 35 6 q 72 28 57 28 l 213 28 q 272 97 272 28 l 272 468 l 76 468 q 50 479 61 468 q 39 506 39 490 l 39 685 q 50 711 39 700 q 76 722 61 722 l 574 722 q 600 711 589 722 q 611 685 611 700 l 611 97 q 512 -167 611 -69 q 257 -264 413 -264 z "},"ˆ":{"ha":747,"x_min":69,"x_max":678,"o":"m 283 1022 l 464 1022 q 489 1018 481 1022 q 515 996 497 1014 l 671 831 q 678 813 678 824 q 656 790 678 790 l 557 790 q 501 800 521 790 l 374 858 l 246 800 q 190 790 226 790 l 92 790 q 69 813 69 790 q 76 831 69 824 l 232 996 q 258 1018 250 1014 q 283 1022 267 1022 z "},"ˇ":{"ha":761,"x_min":69,"x_max":692,"o":"m 471 792 l 290 792 q 268 796 275 792 q 239 818 261 800 l 76 990 q 69 1008 69 997 q 92 1031 69 1031 l 190 1031 q 246 1021 217 1031 l 381 963 l 515 1021 q 571 1031 544 1031 l 669 1031 q 692 1008 692 1031 q 685 990 692 997 l 522 818 q 493 796 500 800 q 471 792 486 792 z "},"˘":{"ha":618,"x_min":69,"x_max":549,"o":"m 365 992 q 392 1018 365 1018 l 522 1018 q 549 992 549 1018 q 485 843 549 897 q 308 789 422 789 q 132 843 194 789 q 69 992 69 897 q 96 1018 69 1018 l 226 1018 q 253 992 253 1018 q 309 922 253 922 q 365 992 365 922 z "},"˙":{"ha":385,"x_min":69,"x_max":315,"o":"m 101 1022 l 283 1022 q 306 1013 297 1022 q 315 990 315 1004 l 315 808 q 306 785 315 794 q 283 776 297 776 l 101 776 q 78 785 88 776 q 69 808 69 794 l 69 990 q 78 1013 69 1004 q 101 1022 88 1022 z "},"˚":{"ha":446,"x_min":69,"x_max":376,"o":"m 335 814 q 315 796 335 814 q 222 778 294 778 q 110 814 150 778 q 69 908 69 850 q 110 1001 69 965 q 223 1038 151 1038 q 335 1001 294 1038 q 376 908 376 965 q 335 814 376 850 m 183 908 q 222 865 183 865 q 261 908 261 865 q 222 950 261 950 q 194 939 206 950 q 183 908 183 928 z "},"˛":{"ha":421,"x_min":69,"x_max":351,"o":"m 314 -111 q 340 -122 329 -111 q 351 -149 351 -133 l 351 -229 q 340 -256 351 -244 q 314 -267 329 -267 l 294 -267 q 126 -208 183 -267 q 69 -56 69 -149 q 126 97 69 38 q 294 156 183 156 l 314 156 q 340 144 329 156 q 351 118 351 133 l 351 38 q 340 11 351 22 q 314 0 329 0 l 300 0 q 231 -56 231 0 q 300 -111 231 -111 l 314 -111 z "},"˜":{"ha":704,"x_min":69,"x_max":635,"o":"m 561 825 q 465 789 517 789 q 361 815 414 789 q 294 840 308 840 q 271 838 279 840 q 258 835 263 836 q 249 828 253 833 q 242 822 244 824 q 233 806 233 813 q 213 793 226 793 l 96 793 q 77 801 85 793 q 69 827 69 808 q 79 878 69 846 q 108 944 89 910 q 165 1000 128 978 q 251 1022 203 1022 q 349 997 299 1022 q 413 971 399 971 q 435 973 426 971 q 450 981 444 975 q 468 1002 458 986 q 492 1018 478 1018 l 608 1018 q 635 992 635 1018 q 561 825 635 886 z "},"˝":{"ha":864,"x_min":69,"x_max":794,"o":"m 204 1024 l 410 1024 q 438 997 438 1024 q 429 979 438 988 l 260 801 q 218 792 251 792 l 92 792 q 69 814 69 792 q 76 835 69 821 l 153 997 q 183 1022 163 1021 q 204 1024 189 1024 m 561 1024 l 767 1024 q 794 997 794 1024 q 786 979 794 988 l 617 801 q 561 792 608 792 l 449 792 q 426 814 426 792 q 433 835 426 821 l 510 997 q 540 1022 519 1021 q 561 1024 546 1024 z "},"Ѐ":{"ha":965,"x_min":90,"x_max":889,"o":"m 424 271 l 851 271 q 878 260 867 271 q 889 233 889 249 l 889 38 q 878 11 889 22 q 851 0 867 0 l 128 0 q 101 11 113 0 q 90 38 90 22 l 90 935 q 101 961 90 950 q 128 972 113 972 l 840 972 q 867 961 856 972 q 878 935 878 950 l 878 739 q 867 713 878 724 q 840 701 856 701 l 424 701 l 424 614 l 810 614 q 836 603 825 614 q 847 576 847 592 l 847 396 q 836 369 847 381 q 810 358 825 358 l 424 358 l 424 271 m 725 1063 q 703 1040 725 1040 l 522 1040 q 465 1054 481 1040 l 246 1228 q 239 1244 239 1235 q 265 1272 239 1272 l 525 1272 q 576 1246 553 1272 l 718 1081 q 725 1063 725 1074 z "},"Ё":{"ha":965,"x_min":90,"x_max":889,"o":"m 851 271 q 878 260 867 271 q 889 233 889 249 l 889 38 q 878 11 889 22 q 851 0 867 0 l 128 0 q 101 11 113 0 q 90 38 90 22 l 90 935 q 101 961 90 950 q 128 972 113 972 l 840 972 q 867 961 856 972 q 878 935 878 950 l 878 739 q 867 713 878 724 q 840 701 856 701 l 424 701 l 424 614 l 810 614 q 836 603 825 614 q 847 576 847 592 l 847 396 q 836 369 847 381 q 810 358 825 358 l 424 358 l 424 271 l 851 271 m 575 1281 l 750 1281 q 773 1272 764 1281 q 782 1249 782 1263 l 782 1074 q 773 1051 782 1060 q 750 1042 764 1042 l 575 1042 q 552 1051 561 1042 q 543 1074 543 1060 l 543 1249 q 552 1272 543 1263 q 575 1281 561 1281 m 199 1281 l 374 1281 q 397 1272 388 1281 q 406 1249 406 1263 l 406 1074 q 397 1051 406 1060 q 374 1042 388 1042 l 199 1042 q 176 1051 185 1042 q 167 1074 167 1060 l 167 1249 q 176 1272 167 1263 q 199 1281 185 1281 z "},"Ђ":{"ha":1129,"x_min":42,"x_max":1067,"o":"m 1067 308 l 1067 93 q 955 -188 1067 -97 q 644 -279 843 -279 l 632 -279 q 606 -268 617 -279 q 594 -242 594 -257 l 594 -67 q 606 -40 594 -51 q 632 -29 617 -29 l 658 -29 q 738 108 738 -29 l 738 299 q 654 389 738 389 l 576 389 l 576 38 q 565 11 576 22 q 539 0 554 0 l 282 0 q 256 11 267 0 q 244 38 244 22 l 244 726 l 74 726 q 51 735 60 726 q 42 758 42 744 l 42 940 q 51 963 42 954 q 74 972 60 972 l 785 972 q 808 963 799 972 q 817 940 817 954 l 817 758 q 808 735 817 744 q 785 726 799 726 l 576 726 l 576 653 l 654 653 q 964 571 861 653 q 1067 308 1067 489 z "},"Ѓ":{"ha":893,"x_min":90,"x_max":865,"o":"m 443 688 l 443 38 q 432 11 443 22 q 406 0 421 0 l 128 0 q 101 11 113 0 q 90 38 90 22 l 90 935 q 101 961 90 950 q 128 972 113 972 l 828 972 q 854 961 843 972 q 865 935 865 950 l 865 725 q 854 699 865 710 q 828 688 843 688 l 443 688 m 540 1272 l 800 1272 q 826 1244 826 1272 q 819 1228 826 1235 l 600 1054 q 543 1040 585 1040 l 363 1040 q 340 1063 340 1040 q 347 1081 340 1074 l 489 1246 q 540 1272 513 1272 z "},"Є":{"ha":1038,"x_min":56,"x_max":989,"o":"m 56 424 l 56 550 q 185 869 56 751 q 517 986 315 986 q 853 889 718 986 q 989 646 989 792 q 980 624 989 633 q 958 615 971 615 l 689 615 q 632 656 649 615 q 526 717 607 717 q 417 606 417 717 l 575 606 q 601 594 590 606 q 613 568 613 583 l 613 407 q 601 381 613 392 q 575 369 590 369 l 417 369 q 526 257 417 257 q 632 318 607 257 q 689 358 649 358 l 958 358 q 980 349 971 358 q 989 328 989 340 q 853 84 989 182 q 517 -14 718 -14 q 185 104 315 -14 q 56 424 56 222 z "},"Ѕ":{"ha":1001,"x_min":42,"x_max":960,"o":"m 65 667 q 183 897 65 808 q 491 986 300 986 q 803 893 682 986 q 925 699 925 800 q 916 677 925 686 q 896 668 907 668 l 618 668 q 560 692 586 668 q 489 715 533 715 q 422 676 422 715 q 455 642 422 656 q 576 617 488 628 q 872 520 783 590 q 960 308 960 450 q 830 76 960 165 q 490 -14 700 -14 q 161 72 281 -14 q 42 282 42 158 q 51 303 42 294 q 72 313 60 313 l 336 313 q 401 285 365 313 q 499 257 436 257 q 603 296 603 257 q 565 334 603 321 q 424 361 528 347 q 65 667 65 408 z "},"І":{"ha":525,"x_min":90,"x_max":449,"o":"m 411 0 l 128 0 q 101 11 113 0 q 90 38 90 22 l 90 935 q 101 961 90 950 q 128 972 113 972 l 411 972 q 438 961 426 972 q 449 935 449 950 l 449 38 q 438 11 449 22 q 411 0 426 0 z "},"Ї":{"ha":539,"x_min":-32,"x_max":583,"o":"m 411 0 l 128 0 q 101 11 113 0 q 90 38 90 22 l 90 935 q 101 961 90 950 q 128 972 113 972 l 411 972 q 438 961 426 972 q 449 935 449 950 l 449 38 q 438 11 449 22 q 411 0 426 0 m 376 1281 l 551 1281 q 574 1272 565 1281 q 583 1249 583 1263 l 583 1074 q 574 1051 583 1060 q 551 1042 565 1042 l 376 1042 q 353 1051 363 1042 q 344 1074 344 1060 l 344 1249 q 353 1272 344 1263 q 376 1281 363 1281 m 0 1281 l 175 1281 q 198 1272 189 1281 q 207 1249 207 1263 l 207 1074 q 198 1051 207 1060 q 175 1042 189 1042 l 0 1042 q -23 1051 -14 1042 q -32 1074 -32 1060 l -32 1249 q -23 1272 -32 1263 q 0 1281 -14 1281 z "},"Ј":{"ha":1032,"x_min":56,"x_max":949,"o":"m 949 935 l 949 365 q 823 81 949 176 q 506 -14 697 -14 q 185 78 314 -14 q 56 326 56 169 q 65 348 56 339 q 86 357 74 357 l 369 357 q 403 347 392 357 q 428 309 415 336 q 458 269 440 282 q 507 257 475 257 q 589 369 589 257 l 589 690 l 176 690 q 150 701 161 690 q 139 728 139 713 l 139 935 q 150 961 139 950 q 176 972 161 972 l 911 972 q 938 961 926 972 q 949 935 949 950 z "},"Љ":{"ha":1603,"x_min":28,"x_max":1561,"o":"m 67 -14 q 40 -3 51 -14 q 28 24 28 8 l 28 228 q 39 254 28 243 q 65 265 50 265 q 168 372 168 265 l 168 935 q 179 961 168 950 q 206 972 190 972 l 1008 972 q 1035 961 1024 972 q 1046 935 1046 950 l 1046 669 l 1136 669 q 1449 589 1338 669 q 1561 340 1561 508 q 1449 86 1561 172 q 1136 0 1336 0 l 722 0 q 696 11 707 0 q 685 38 685 22 l 685 667 l 515 667 l 515 376 q 394 84 515 182 q 67 -14 274 -14 m 1038 413 l 1038 258 l 1135 258 q 1183 282 1168 258 q 1199 340 1199 306 q 1179 394 1199 375 q 1135 413 1160 413 l 1038 413 z "},"Њ":{"ha":1572,"x_min":90,"x_max":1531,"o":"m 1106 0 l 692 0 q 665 11 676 0 q 654 38 654 22 l 654 338 l 438 338 l 438 38 q 426 11 438 22 q 400 0 415 0 l 128 0 q 101 10 113 0 q 90 38 90 21 l 90 935 q 101 961 90 950 q 128 972 113 972 l 400 972 q 426 961 415 972 q 438 935 438 950 l 438 643 l 654 643 l 654 935 q 665 961 654 950 q 692 972 676 972 l 978 972 q 1004 961 993 972 q 1015 935 1015 950 l 1015 669 l 1106 669 q 1419 589 1307 669 q 1531 340 1531 508 q 1418 86 1531 172 q 1106 0 1306 0 m 1008 413 l 1008 258 l 1106 258 q 1154 282 1139 258 q 1169 340 1169 306 q 1150 394 1169 375 q 1106 413 1131 413 l 1008 413 z "},"Ћ":{"ha":1133,"x_min":42,"x_max":1071,"o":"m 738 38 l 738 279 q 654 369 738 369 l 576 369 l 576 38 q 565 11 576 22 q 539 0 554 0 l 282 0 q 256 11 267 0 q 244 38 244 22 l 244 726 l 74 726 q 51 735 60 726 q 42 758 42 744 l 42 940 q 51 963 42 954 q 74 972 60 972 l 782 972 q 805 963 796 972 q 814 940 814 954 l 814 758 q 805 735 814 744 q 782 726 796 726 l 576 726 l 576 647 l 654 647 q 1071 289 1071 647 l 1071 38 q 1060 11 1071 22 q 1033 0 1049 0 l 775 0 q 749 11 760 0 q 738 38 738 22 z "},"Ќ":{"ha":1018,"x_min":90,"x_max":1004,"o":"m 1000 46 q 1004 28 1004 39 q 995 9 1004 18 q 974 0 986 0 l 657 0 q 600 32 617 0 l 431 335 l 431 38 q 419 11 431 22 q 393 0 408 0 l 128 0 q 101 11 113 0 q 90 38 90 22 l 90 935 q 101 961 90 950 q 128 972 113 972 l 393 972 q 419 961 408 972 q 431 935 431 950 l 431 660 l 588 942 q 643 972 603 972 l 950 972 q 972 963 963 972 q 981 944 981 954 q 976 926 981 933 l 726 507 l 1000 46 m 547 1281 l 821 1281 q 847 1253 847 1281 q 840 1236 847 1243 l 621 1056 q 564 1042 606 1042 l 369 1042 q 347 1064 347 1042 q 354 1082 347 1075 l 496 1254 q 547 1281 519 1281 z "},"Ѝ":{"ha":1056,"x_min":90,"x_max":965,"o":"m 128 972 l 379 972 q 406 961 394 972 q 417 935 417 950 l 417 556 l 651 940 q 708 972 669 972 l 928 972 q 954 961 943 972 q 965 935 965 950 l 965 38 q 954 11 965 22 q 928 0 943 0 l 676 0 q 650 11 661 0 q 639 38 639 22 l 639 386 l 404 32 q 347 0 383 0 l 128 0 q 101 11 113 0 q 90 38 90 22 l 90 935 q 101 961 90 950 q 128 972 113 972 m 706 1063 q 683 1040 706 1040 l 503 1040 q 446 1054 461 1040 l 226 1228 q 219 1244 219 1235 q 246 1272 219 1272 l 506 1272 q 557 1246 533 1272 l 699 1081 q 706 1063 706 1074 z "},"Ў":{"ha":1025,"x_min":49,"x_max":1017,"o":"m 158 297 l 297 297 q 374 317 367 297 l 50 929 q 49 939 49 933 q 83 972 54 972 l 374 972 q 418 939 403 972 l 547 665 l 650 939 q 697 972 664 972 l 985 972 q 1007 963 997 972 q 1017 943 1017 954 q 1015 929 1017 932 l 739 283 q 587 57 667 114 q 332 0 507 0 l 158 0 q 132 11 143 0 q 121 38 121 22 l 121 260 q 132 286 121 275 q 158 297 143 297 m 599 1242 q 625 1268 599 1268 l 756 1268 q 782 1242 782 1268 q 719 1093 782 1147 q 542 1039 656 1039 q 365 1093 428 1039 q 303 1242 303 1147 q 329 1268 303 1268 l 460 1268 q 486 1242 486 1268 q 542 1172 486 1172 q 599 1242 599 1172 z "},"Џ":{"ha":1040,"x_min":90,"x_max":950,"o":"m 438 306 l 607 306 l 607 935 q 618 961 607 950 q 644 972 629 972 l 913 972 q 939 961 928 972 q 950 935 950 950 l 950 38 q 939 11 950 22 q 913 0 928 0 l 658 0 l 658 -133 q 647 -160 658 -149 q 621 -171 636 -171 l 417 -171 q 390 -160 401 -171 q 379 -133 379 -149 l 379 0 l 128 0 q 101 11 113 0 q 90 38 90 22 l 90 935 q 101 962 90 951 q 128 972 113 972 l 400 972 q 426 961 415 972 q 438 935 438 950 l 438 306 z "},"А":{"ha":1090,"x_min":21,"x_max":1069,"o":"m 394 972 l 696 972 q 758 926 746 972 l 1068 40 q 1069 27 1069 36 q 1060 9 1069 18 q 1039 0 1051 0 l 782 0 q 728 35 740 0 l 694 126 l 396 126 l 363 35 q 308 0 350 0 l 51 0 q 30 9 39 0 q 21 27 21 18 q 22 40 21 36 l 332 926 q 394 972 344 972 m 467 397 l 624 397 l 544 656 l 467 397 z "},"Б":{"ha":967,"x_min":90,"x_max":925,"o":"m 128 972 l 793 972 q 819 961 808 972 q 831 935 831 950 l 831 739 q 819 713 831 724 q 793 701 808 701 l 438 701 l 438 621 l 526 621 q 817 541 710 621 q 925 315 925 461 q 819 85 925 169 q 526 0 714 0 l 128 0 q 101 11 113 0 q 90 38 90 22 l 90 935 q 101 961 90 950 q 128 972 113 972 m 438 389 l 438 239 l 525 239 q 572 264 556 239 q 589 317 589 289 q 572 367 589 344 q 525 389 554 389 l 438 389 z "},"В":{"ha":1050,"x_min":90,"x_max":994,"o":"m 597 625 q 604 634 597 625 q 611 668 611 643 q 597 713 611 693 q 554 733 582 733 l 438 733 l 438 607 l 554 607 q 597 625 582 607 m 438 375 l 438 239 l 567 239 q 615 260 599 239 q 631 308 631 282 l 631 310 q 613 356 631 336 q 567 375 596 375 l 438 375 m 603 0 l 128 0 q 101 11 113 0 q 90 38 90 22 l 90 935 q 101 961 90 950 q 128 972 113 972 l 589 972 q 880 901 786 972 q 974 685 974 829 l 974 681 q 939 574 974 621 q 863 507 904 528 q 956 428 918 485 q 994 306 994 372 q 603 0 994 0 z "},"Г":{"ha":893,"x_min":90,"x_max":865,"o":"m 828 688 l 443 688 l 443 38 q 432 11 443 22 q 406 0 421 0 l 128 0 q 101 11 113 0 q 90 38 90 22 l 90 935 q 101 961 90 950 q 128 972 113 972 l 828 972 q 854 961 843 972 q 865 935 865 950 l 865 725 q 854 699 865 710 q 828 688 843 688 z "},"Д":{"ha":1211,"x_min":69,"x_max":1142,"o":"m 246 972 l 1007 972 q 1033 961 1022 972 q 1044 935 1044 950 l 1044 306 l 1104 306 q 1131 294 1119 306 q 1142 268 1142 283 l 1142 -133 q 1131 -160 1142 -149 q 1104 -171 1119 -171 l 832 -171 q 806 -160 817 -171 q 794 -133 794 -149 l 794 0 l 417 0 l 417 -133 q 406 -160 417 -149 q 379 -171 394 -171 l 107 -171 q 81 -160 92 -171 q 69 -133 69 -150 l 69 268 q 81 294 69 283 q 107 306 92 306 l 113 306 q 181 333 154 306 q 208 413 208 361 l 208 935 q 219 961 208 950 q 246 972 231 972 m 697 667 l 556 667 l 556 411 q 543 306 556 333 l 697 306 l 697 667 z "},"Е":{"ha":965,"x_min":90,"x_max":889,"o":"m 424 271 l 851 271 q 878 260 867 271 q 889 233 889 249 l 889 38 q 878 11 889 22 q 851 0 867 0 l 128 0 q 101 11 113 0 q 90 38 90 22 l 90 935 q 101 961 90 950 q 128 972 113 972 l 840 972 q 867 961 856 972 q 878 935 878 950 l 878 739 q 867 713 878 724 q 840 701 856 701 l 424 701 l 424 614 l 810 614 q 836 603 825 614 q 847 576 847 592 l 847 396 q 836 369 847 381 q 810 358 825 358 l 424 358 l 424 271 z "},"Ж":{"ha":1376,"x_min":14,"x_max":1363,"o":"m 1358 46 q 1363 28 1363 39 q 1353 9 1363 18 q 1332 0 1344 0 l 1057 0 q 1000 32 1017 0 l 844 376 l 844 38 q 833 11 844 22 q 807 0 822 0 l 569 0 q 543 11 554 0 q 532 38 532 22 l 532 376 l 376 32 q 319 0 361 0 l 44 0 q 23 9 32 0 q 14 28 14 18 q 18 46 14 39 l 250 507 l 42 926 q 38 944 38 933 q 47 963 38 954 q 68 972 56 972 l 333 972 q 389 942 374 972 l 532 618 l 532 935 q 543 961 532 950 q 569 972 554 972 l 807 972 q 833 961 822 972 q 844 935 844 950 l 844 618 l 988 942 q 1043 972 1003 972 l 1308 972 q 1330 963 1321 972 q 1339 944 1339 954 q 1335 926 1339 933 l 1126 507 l 1358 46 z "},"З":{"ha":1031,"x_min":56,"x_max":961,"o":"m 593 653 q 504 715 593 715 q 441 706 453 715 q 413 681 429 697 q 372 665 397 665 l 93 665 q 72 674 81 665 q 63 707 63 683 q 76 768 63 731 q 124 845 90 806 q 206 915 157 885 q 333 966 254 946 q 507 986 411 986 q 828 898 701 986 q 954 677 954 810 q 826 481 954 544 q 961 292 961 424 q 832 74 961 161 q 507 -14 703 -14 q 297 15 389 -14 q 154 89 204 44 q 56 274 56 179 q 65 295 56 286 q 86 304 74 304 l 365 304 q 415 279 390 304 q 504 254 440 254 q 600 315 600 254 q 503 361 600 361 l 363 361 q 336 374 347 361 q 325 401 325 386 l 325 568 q 336 596 325 583 q 363 608 347 608 l 503 608 q 573 618 553 608 q 593 653 593 628 z "}}}
